%TF.GenerationSoftware,KiCad,Pcbnew,(6.0.11-0)*%
%TF.CreationDate,2023-02-08T21:31:18+08:00*%
%TF.ProjectId,EEEE2046_PCB_Template,45454545-3230-4343-965f-5043425f5465,rev?*%
%TF.SameCoordinates,Original*%
%TF.FileFunction,Soldermask,Bot*%
%TF.FilePolarity,Negative*%
%FSLAX46Y46*%
G04 Gerber Fmt 4.6, Leading zero omitted, Abs format (unit mm)*
G04 Created by KiCad (PCBNEW (6.0.11-0)) date 2023-02-08 21:31:18*
%MOMM*%
%LPD*%
G01*
G04 APERTURE LIST*
%ADD10R,2.540000X1.270000*%
%ADD11C,2.000000*%
%ADD12R,5.080000X5.080000*%
%ADD13C,0.800000*%
%ADD14C,6.400000*%
%ADD15C,1.600000*%
%ADD16O,1.600000X1.600000*%
%ADD17C,2.500000*%
%ADD18C,1.400000*%
%ADD19O,2.500000X3.000000*%
%ADD20R,2.400000X1.600000*%
%ADD21O,2.400000X1.600000*%
%ADD22R,1.600000X1.600000*%
%ADD23R,2.400000X2.400000*%
%ADD24C,2.400000*%
%ADD25O,1.800000X3.000000*%
%ADD26C,1.700000*%
%ADD27O,2.000000X4.000000*%
%ADD28O,4.000000X2.000000*%
%ADD29R,2.600000X2.600000*%
%ADD30C,2.600000*%
G04 APERTURE END LIST*
D10*
%TO.C,U15*%
X120180000Y-82120000D03*
D11*
X118910000Y-82120000D03*
X121450000Y-82120000D03*
X118910000Y-117680000D03*
X121450000Y-117680000D03*
D10*
X120180000Y-117680000D03*
D11*
X113830000Y-82120000D03*
D10*
X115100000Y-82120000D03*
D11*
X116370000Y-82120000D03*
X111290000Y-82120000D03*
X108750000Y-82120000D03*
D10*
X110020000Y-82120000D03*
D11*
X113830000Y-117680000D03*
D10*
X115100000Y-117680000D03*
D11*
X116370000Y-117680000D03*
D10*
X110020000Y-117680000D03*
D11*
X108750000Y-117680000D03*
X111290000Y-117680000D03*
%TD*%
D12*
%TO.C,U26*%
X114570000Y-27870000D03*
D11*
X115840000Y-26600000D03*
X115840000Y-29140000D03*
X113300000Y-29140000D03*
X113300000Y-26600000D03*
X113300000Y-69780000D03*
X113300000Y-67240000D03*
X115840000Y-67240000D03*
D12*
X114570000Y-68510000D03*
D11*
X115840000Y-69780000D03*
X166640000Y-26600000D03*
X164100000Y-29140000D03*
X164100000Y-26600000D03*
X166640000Y-29140000D03*
D12*
X165370000Y-27870000D03*
D11*
X164100000Y-67240000D03*
X166640000Y-67240000D03*
D12*
X165370000Y-68510000D03*
D11*
X166640000Y-69780000D03*
X164100000Y-69780000D03*
%TD*%
D13*
%TO.C,H2*%
X253922102Y-27722102D03*
X258019158Y-26025046D03*
X256322102Y-30122102D03*
D14*
X256322102Y-27722102D03*
D13*
X258722102Y-27722102D03*
X254625046Y-26025046D03*
X256322102Y-25322102D03*
X254625046Y-29419158D03*
X258019158Y-29419158D03*
%TD*%
D15*
%TO.C,U28*%
X53410200Y-101034600D03*
D16*
X43250200Y-101034600D03*
%TD*%
D17*
%TO.C,U45*%
X224600000Y-28850000D03*
X219520000Y-28850000D03*
%TD*%
%TO.C,U41*%
X168700000Y-116500000D03*
X173780000Y-116500000D03*
%TD*%
D18*
%TO.C,U3*%
X79820800Y-107232200D03*
X82360800Y-107232200D03*
%TD*%
D13*
%TO.C,H4*%
X256322102Y-114222102D03*
X256322102Y-119022102D03*
X254625046Y-114925046D03*
X253922102Y-116622102D03*
X258019158Y-114925046D03*
X254625046Y-118319158D03*
D14*
X256322102Y-116622102D03*
D13*
X258019158Y-118319158D03*
X258722102Y-116622102D03*
%TD*%
D19*
%TO.C,U33*%
X188200000Y-52586000D03*
X188200000Y-50300000D03*
X183120000Y-50300000D03*
X183120000Y-52586000D03*
%TD*%
D12*
%TO.C,U34*%
X257250000Y-91020000D03*
D11*
X255980000Y-51650000D03*
D12*
X257250000Y-50380000D03*
D11*
X258520000Y-51650000D03*
X258520000Y-49110000D03*
X255980000Y-89750000D03*
X258520000Y-89750000D03*
X258520000Y-92290000D03*
X255980000Y-92290000D03*
X255980000Y-49110000D03*
D12*
X206450000Y-50380000D03*
D11*
X207720000Y-51650000D03*
X205180000Y-51650000D03*
X207720000Y-49110000D03*
X205180000Y-49110000D03*
X207720000Y-89750000D03*
X207720000Y-92290000D03*
X205180000Y-89750000D03*
X205180000Y-92290000D03*
D12*
X206450000Y-91020000D03*
%TD*%
D14*
%TO.C,H3*%
X39500000Y-117600000D03*
D13*
X41197056Y-119297056D03*
X41900000Y-117600000D03*
X37100000Y-117600000D03*
X37802944Y-115902944D03*
X39500000Y-115200000D03*
X39500000Y-120000000D03*
X37802944Y-119297056D03*
X41197056Y-115902944D03*
%TD*%
D15*
%TO.C,U24*%
X76120000Y-93300000D03*
D16*
X86280000Y-93300000D03*
%TD*%
D20*
%TO.C,U5*%
X151000000Y-100700000D03*
D21*
X151000000Y-103240000D03*
X151000000Y-105780000D03*
X151000000Y-108320000D03*
X158620000Y-108320000D03*
X158620000Y-105780000D03*
X158620000Y-103240000D03*
X158620000Y-100700000D03*
%TD*%
D22*
%TO.C,U40*%
X204520708Y-29800000D03*
X205191645Y-31400000D03*
D15*
X202020708Y-29800000D03*
X201349771Y-28200000D03*
%TD*%
D23*
%TO.C,U11*%
X67945000Y-47292780D03*
D24*
X67945000Y-39792780D03*
%TD*%
D15*
%TO.C,U39*%
X138350000Y-85000000D03*
X137100000Y-85000000D03*
X133350000Y-85000000D03*
X134600000Y-85000000D03*
%TD*%
D19*
%TO.C,U31*%
X187240000Y-76835500D03*
X187240000Y-74549500D03*
X182160000Y-76835500D03*
X182160000Y-74549500D03*
%TD*%
D15*
%TO.C,U25*%
X43220000Y-93900000D03*
D16*
X53380000Y-93900000D03*
%TD*%
D22*
%TO.C,U21*%
X91500000Y-94290000D03*
D16*
X91500000Y-101910000D03*
%TD*%
D24*
%TO.C,U12*%
X91236800Y-39640380D03*
D23*
X91236800Y-47140380D03*
%TD*%
D22*
%TO.C,U36*%
X192570937Y-31000000D03*
X191900000Y-29400000D03*
D15*
X188729063Y-27800000D03*
X189400000Y-29400000D03*
%TD*%
D18*
%TO.C,U7*%
X46953200Y-107892600D03*
X49493200Y-107892600D03*
%TD*%
D22*
%TO.C,U38*%
X179970937Y-31300000D03*
X179300000Y-29700000D03*
D15*
X176129063Y-28100000D03*
X176800000Y-29700000D03*
%TD*%
%TO.C,U14*%
X154450000Y-92700000D03*
X153200000Y-92700000D03*
X158200000Y-92700000D03*
X156950000Y-92700000D03*
%TD*%
D25*
%TO.C,U16*%
X49676400Y-79409400D03*
X49676400Y-76869400D03*
X52216400Y-76869400D03*
X52216400Y-79409400D03*
X54756400Y-76869400D03*
X54756400Y-79409400D03*
%TD*%
D17*
%TO.C,U44*%
X242950000Y-28850000D03*
X237870000Y-28850000D03*
%TD*%
%TO.C,U43*%
X56906800Y-26703400D03*
X51826800Y-26703400D03*
%TD*%
D22*
%TO.C,U22*%
X58972800Y-94252800D03*
D16*
X58972800Y-101872800D03*
%TD*%
D15*
%TO.C,U37*%
X138450000Y-93900000D03*
X137200000Y-93900000D03*
X134700000Y-93900000D03*
X133450000Y-93900000D03*
%TD*%
D18*
%TO.C,U1*%
X155640000Y-118800000D03*
X153100000Y-118800000D03*
%TD*%
D26*
%TO.C,U42*%
X138850000Y-108600000D03*
X132550000Y-112600000D03*
X138850000Y-112600000D03*
X138850000Y-118400000D03*
X132550000Y-118400000D03*
D27*
X130600000Y-116600000D03*
D26*
X132550000Y-108600000D03*
D28*
X135700000Y-111600000D03*
D27*
X140800000Y-116600000D03*
%TD*%
D19*
%TO.C,U23*%
X51700000Y-60600000D03*
X51700000Y-58314000D03*
X46620000Y-58314000D03*
X46620000Y-60600000D03*
%TD*%
D29*
%TO.C,U6*%
X41400000Y-49050000D03*
D30*
X51800000Y-49050000D03*
X51800000Y-38650000D03*
X41400000Y-38650000D03*
%TD*%
D15*
%TO.C,U27*%
X86180000Y-100100000D03*
D16*
X76020000Y-100100000D03*
%TD*%
D19*
%TO.C,U17*%
X92000000Y-57864000D03*
X92000000Y-60150000D03*
X86920000Y-57864000D03*
X86920000Y-60150000D03*
%TD*%
D25*
%TO.C,U20*%
X83870000Y-76150000D03*
X83870000Y-78690000D03*
X86410000Y-78690000D03*
X86410000Y-76150000D03*
X88950000Y-76150000D03*
X88950000Y-78690000D03*
%TD*%
D18*
%TO.C,U9*%
X93950000Y-25400000D03*
X91410000Y-25400000D03*
%TD*%
D15*
%TO.C,U18*%
X96350800Y-94329000D03*
X97600800Y-94329000D03*
X100100800Y-94329000D03*
X101350800Y-94329000D03*
%TD*%
%TO.C,U19*%
X66750000Y-98600000D03*
X65500000Y-98600000D03*
X69250000Y-98600000D03*
X70500000Y-98600000D03*
%TD*%
D13*
%TO.C,H1*%
X40422102Y-30122102D03*
X42822102Y-27722102D03*
X38022102Y-27722102D03*
X38725046Y-29419158D03*
X38725046Y-26025046D03*
X42119158Y-26025046D03*
X40422102Y-25322102D03*
X42119158Y-29419158D03*
D14*
X40422102Y-27722102D03*
%TD*%
M02*
