M48
; DRILL file {KiCad (6.0.11-0)} date 
; FORMAT={-:-/ absolute / inch / decimal}
; #@! TF.CreationDate,2023-02-08T21:31:38+08:00
; #@! TF.GenerationSoftware,Kicad,Pcbnew,(6.0.11-0)
; #@! TF.FileFunction,Plated,1,2,PTH
FMAT,2
INCH
; #@! TA.AperFunction,Plated,PTH,ComponentDrill
T1C0.0197
; #@! TA.AperFunction,Plated,PTH,ComponentDrill
T2C0.0315
; #@! TA.AperFunction,Plated,PTH,ComponentDrill
T3C0.0394
; #@! TA.AperFunction,Plated,PTH,ViaDrill
T4C0.0472
; #@! TA.AperFunction,Plated,PTH,ComponentDrill
T5C0.0472
; #@! TA.AperFunction,Plated,PTH,ComponentDrill
T6C0.0512
; #@! TA.AperFunction,Plated,PTH,ComponentDrill
T7C0.1260
%
G90
G05
T1
X1.4606Y-4.6299
X1.4883Y-4.5631
X1.4883Y-4.6967
X1.4969Y-1.0914
X1.5246Y-1.0246
X1.5246Y-1.1582
X1.5551Y-4.5354
X1.5551Y-4.7244
X1.5914Y-0.9969
X1.5914Y-1.1859
X1.6219Y-4.5631
X1.6219Y-4.6967
X1.6496Y-4.6299
X1.6582Y-1.0246
X1.6582Y-1.1582
X1.6859Y-1.0914
X9.9969Y-1.0914
X9.9969Y-4.5914
X10.0246Y-1.0246
X10.0246Y-1.1582
X10.0246Y-4.5246
X10.0246Y-4.6582
X10.0914Y-0.9969
X10.0914Y-1.1859
X10.0914Y-4.4969
X10.0914Y-4.6859
X10.1582Y-1.0246
X10.1582Y-1.1582
X10.1582Y-4.5246
X10.1582Y-4.6582
X10.1859Y-1.0914
X10.1859Y-4.5914
T2
X1.7016Y-3.6969
X1.7028Y-3.9777
X1.8486Y-4.2477
X1.9486Y-4.2477
X2.1016Y-3.6969
X2.1028Y-3.9777
X2.3218Y-3.7107
X2.3218Y-4.0107
X2.5787Y-3.8819
X2.628Y-3.8819
X2.7264Y-3.8819
X2.7756Y-3.8819
X2.9929Y-3.9409
X2.9969Y-3.6732
X3.1426Y-4.2217
X3.2426Y-4.2217
X3.3929Y-3.9409
X3.3969Y-3.6732
X3.5988Y-1.0
X3.6024Y-3.7122
X3.6024Y-4.0122
X3.6988Y-1.0
X3.7933Y-3.7137
X3.8426Y-3.7137
X3.941Y-3.7137
X3.9902Y-3.7137
X5.25Y-3.3465
X5.2539Y-3.6969
X5.2992Y-3.3465
X5.3031Y-3.6969
X5.3976Y-3.3465
X5.4016Y-3.6969
X5.4469Y-3.3465
X5.4508Y-3.6969
X5.9449Y-3.9646
X5.9449Y-4.0646
X5.9449Y-4.1646
X5.9449Y-4.2646
X6.0276Y-4.6772
X6.0315Y-3.6496
X6.0807Y-3.6496
X6.1276Y-4.6772
X6.1791Y-3.6496
X6.2283Y-3.6496
X6.2449Y-3.9646
X6.2449Y-4.0646
X6.2449Y-4.1646
X6.2449Y-4.2646
X6.9342Y-1.1063
X6.9606Y-1.1693
X7.0591Y-1.1693
X7.0855Y-1.2323
X7.4303Y-1.0945
X7.4567Y-1.1575
X7.5551Y-1.1575
X7.5815Y-1.2205
X7.9272Y-1.1102
X7.9536Y-1.1732
X8.052Y-1.1732
X8.0784Y-1.2362
T3
X1.8354Y-2.2958
X1.8354Y-2.3858
X1.9558Y-3.0264
X1.9558Y-3.1264
X2.0354Y-2.2958
X2.0354Y-2.3858
X2.0404Y-1.0513
X2.0558Y-3.0264
X2.0558Y-3.1264
X2.1558Y-3.0264
X2.1558Y-3.1264
X2.2404Y-1.0513
X3.302Y-2.998
X3.302Y-3.098
X3.402Y-2.998
X3.402Y-3.098
X3.422Y-2.2781
X3.422Y-2.3681
X3.502Y-2.998
X3.502Y-3.098
X3.622Y-2.2781
X3.622Y-2.3681
X4.2815Y-3.2331
X4.2815Y-4.6331
X4.3815Y-3.2331
X4.3815Y-4.6331
X4.4606Y-1.0472
X4.4606Y-1.1472
X4.4606Y-2.6472
X4.4606Y-2.7472
X4.4815Y-3.2331
X4.4815Y-4.6331
X4.5606Y-1.0472
X4.5606Y-1.1472
X4.5606Y-2.6472
X4.5606Y-2.7472
X4.5815Y-3.2331
X4.5815Y-4.6331
X4.6815Y-3.2331
X4.6815Y-4.6331
X4.7815Y-3.2331
X4.7815Y-4.6331
X6.4606Y-1.0472
X6.4606Y-1.1472
X6.4606Y-2.6472
X6.4606Y-2.7472
X6.5606Y-1.0472
X6.5606Y-1.1472
X6.5606Y-2.6472
X6.5606Y-2.7472
X6.6417Y-4.5866
X6.8417Y-4.5866
X7.1717Y-2.935
X7.1717Y-3.025
X7.2094Y-1.9803
X7.2094Y-2.0703
X7.3717Y-2.935
X7.3717Y-3.025
X7.4094Y-1.9803
X7.4094Y-2.0703
X8.078Y-1.9335
X8.078Y-2.0335
X8.078Y-3.5335
X8.078Y-3.6335
X8.178Y-1.9335
X8.178Y-2.0335
X8.178Y-3.5335
X8.178Y-3.6335
X8.6425Y-1.1358
X8.8425Y-1.1358
X9.365Y-1.1358
X9.565Y-1.1358
X10.078Y-1.9335
X10.078Y-2.0335
X10.078Y-3.5335
X10.078Y-3.6335
X10.178Y-1.9335
X10.178Y-2.0335
X10.178Y-3.5335
X10.178Y-3.6335
T4
X2.3622Y-2.5256
X2.6772Y-2.6535
X3.8898Y-2.4173
X4.1417Y-2.6594
T5
X2.675Y-1.5666
X2.675Y-1.8619
X3.592Y-1.5606
X3.592Y-1.8559
T6
X1.6299Y-1.5217
X1.6299Y-1.9311
X2.0394Y-1.5217
X2.0394Y-1.9311
T7
X1.5551Y-4.6299
X1.5914Y-1.0914
X10.0914Y-1.0914
X10.0914Y-4.5914
T5
G00X5.1417Y-4.5591
M15
G01X5.1417Y-4.622
M16
G05
G00X5.311Y-4.3937
M15
G01X5.374Y-4.3937
M16
G05
G00X5.5433Y-4.5591
M15
G01X5.5433Y-4.622
M16
G05
T0
M30
