%TF.GenerationSoftware,KiCad,Pcbnew,(6.0.11-0)*%
%TF.CreationDate,2023-02-08T21:31:18+08:00*%
%TF.ProjectId,EEEE2046_PCB_Template,45454545-3230-4343-965f-5043425f5465,rev?*%
%TF.SameCoordinates,Original*%
%TF.FileFunction,Legend,Top*%
%TF.FilePolarity,Positive*%
%FSLAX46Y46*%
G04 Gerber Fmt 4.6, Leading zero omitted, Abs format (unit mm)*
G04 Created by KiCad (PCBNEW (6.0.11-0)) date 2023-02-08 21:31:18*
%MOMM*%
%LPD*%
G01*
G04 APERTURE LIST*
%ADD10C,0.200000*%
%ADD11C,0.150000*%
%ADD12C,0.400000*%
%ADD13C,0.450000*%
%ADD14C,0.300000*%
%ADD15C,0.120000*%
G04 APERTURE END LIST*
D10*
X220762102Y-122972102D02*
X220762102Y-112812102D01*
X223302102Y-110272102D02*
X262672102Y-110272102D01*
X223302102Y-110272102D02*
G75*
G03*
X220762102Y-112812102I-2J-2539998D01*
G01*
D11*
X68359523Y-102007142D02*
X68311904Y-102054761D01*
X68169047Y-102102380D01*
X68073809Y-102102380D01*
X67930952Y-102054761D01*
X67835714Y-101959523D01*
X67788095Y-101864285D01*
X67740476Y-101673809D01*
X67740476Y-101530952D01*
X67788095Y-101340476D01*
X67835714Y-101245238D01*
X67930952Y-101150000D01*
X68073809Y-101102380D01*
X68169047Y-101102380D01*
X68311904Y-101150000D01*
X68359523Y-101197619D01*
X216630952Y-29071428D02*
X215869047Y-29071428D01*
X81509523Y-96102380D02*
X81176190Y-95626190D01*
X80938095Y-96102380D02*
X80938095Y-95102380D01*
X81319047Y-95102380D01*
X81414285Y-95150000D01*
X81461904Y-95197619D01*
X81509523Y-95292857D01*
X81509523Y-95435714D01*
X81461904Y-95530952D01*
X81414285Y-95578571D01*
X81319047Y-95626190D01*
X80938095Y-95626190D01*
X177669047Y-77271428D02*
X178430952Y-77271428D01*
X178050000Y-77652380D02*
X178050000Y-76890476D01*
X58469047Y-103621428D02*
X59230952Y-103621428D01*
X58850000Y-104002380D02*
X58850000Y-103240476D01*
X84309523Y-107552380D02*
X84309523Y-106552380D01*
X84690476Y-106552380D01*
X84785714Y-106600000D01*
X84833333Y-106647619D01*
X84880952Y-106742857D01*
X84880952Y-106885714D01*
X84833333Y-106980952D01*
X84785714Y-107028571D01*
X84690476Y-107076190D01*
X84309523Y-107076190D01*
X85214285Y-106552380D02*
X85452380Y-107552380D01*
X85642857Y-106838095D01*
X85833333Y-107552380D01*
X86071428Y-106552380D01*
X86452380Y-107552380D02*
X86452380Y-106552380D01*
X86785714Y-107266666D01*
X87119047Y-106552380D01*
X87119047Y-107552380D01*
X87357142Y-107647619D02*
X88119047Y-107647619D01*
X88928571Y-107457142D02*
X88880952Y-107504761D01*
X88738095Y-107552380D01*
X88642857Y-107552380D01*
X88500000Y-107504761D01*
X88404761Y-107409523D01*
X88357142Y-107314285D01*
X88309523Y-107123809D01*
X88309523Y-106980952D01*
X88357142Y-106790476D01*
X88404761Y-106695238D01*
X88500000Y-106600000D01*
X88642857Y-106552380D01*
X88738095Y-106552380D01*
X88880952Y-106600000D01*
X88928571Y-106647619D01*
X89547619Y-106552380D02*
X89738095Y-106552380D01*
X89833333Y-106600000D01*
X89928571Y-106695238D01*
X89976190Y-106885714D01*
X89976190Y-107219047D01*
X89928571Y-107409523D01*
X89833333Y-107504761D01*
X89738095Y-107552380D01*
X89547619Y-107552380D01*
X89452380Y-107504761D01*
X89357142Y-107409523D01*
X89309523Y-107219047D01*
X89309523Y-106885714D01*
X89357142Y-106695238D01*
X89452380Y-106600000D01*
X89547619Y-106552380D01*
X90404761Y-107552380D02*
X90404761Y-106552380D01*
X90738095Y-107266666D01*
X91071428Y-106552380D01*
X91071428Y-107552380D01*
X91309523Y-107647619D02*
X92071428Y-107647619D01*
X92261904Y-107266666D02*
X92738095Y-107266666D01*
X92166666Y-107552380D02*
X92500000Y-106552380D01*
X92833333Y-107552380D01*
X42219047Y-58671428D02*
X42980952Y-58671428D01*
X42600000Y-59052380D02*
X42600000Y-58290476D01*
X190569047Y-77521428D02*
X191330952Y-77521428D01*
X178869047Y-53271428D02*
X179630952Y-53271428D01*
X179250000Y-53652380D02*
X179250000Y-52890476D01*
X90919047Y-103971428D02*
X91680952Y-103971428D01*
X91300000Y-104352380D02*
X91300000Y-103590476D01*
X89002380Y-22252380D02*
X89573809Y-22252380D01*
X89288095Y-23252380D02*
X89288095Y-22252380D01*
X89907142Y-23252380D02*
X89907142Y-22252380D01*
X90288095Y-22252380D01*
X90383333Y-22300000D01*
X90430952Y-22347619D01*
X90478571Y-22442857D01*
X90478571Y-22585714D01*
X90430952Y-22680952D01*
X90383333Y-22728571D01*
X90288095Y-22776190D01*
X89907142Y-22776190D01*
X90669047Y-23347619D02*
X91430952Y-23347619D01*
X91669047Y-23252380D02*
X91669047Y-22252380D01*
X91907142Y-22252380D01*
X92050000Y-22300000D01*
X92145238Y-22395238D01*
X92192857Y-22490476D01*
X92240476Y-22680952D01*
X92240476Y-22823809D01*
X92192857Y-23014285D01*
X92145238Y-23109523D01*
X92050000Y-23204761D01*
X91907142Y-23252380D01*
X91669047Y-23252380D01*
X93240476Y-23157142D02*
X93192857Y-23204761D01*
X93050000Y-23252380D01*
X92954761Y-23252380D01*
X92811904Y-23204761D01*
X92716666Y-23109523D01*
X92669047Y-23014285D01*
X92621428Y-22823809D01*
X92621428Y-22680952D01*
X92669047Y-22490476D01*
X92716666Y-22395238D01*
X92811904Y-22300000D01*
X92954761Y-22252380D01*
X93050000Y-22252380D01*
X93192857Y-22300000D01*
X93240476Y-22347619D01*
X93430952Y-23347619D02*
X94192857Y-23347619D01*
X94907142Y-23252380D02*
X94430952Y-23252380D01*
X94430952Y-22252380D01*
X95240476Y-23252380D02*
X95240476Y-22585714D01*
X95240476Y-22252380D02*
X95192857Y-22300000D01*
X95240476Y-22347619D01*
X95288095Y-22300000D01*
X95240476Y-22252380D01*
X95240476Y-22347619D01*
X95716666Y-22585714D02*
X95716666Y-23252380D01*
X95716666Y-22680952D02*
X95764285Y-22633333D01*
X95859523Y-22585714D01*
X96002380Y-22585714D01*
X96097619Y-22633333D01*
X96145238Y-22728571D01*
X96145238Y-23252380D01*
X96621428Y-23252380D02*
X96621428Y-22252380D01*
X96716666Y-22871428D02*
X97002380Y-23252380D01*
X97002380Y-22585714D02*
X96621428Y-22966666D01*
X81509523Y-98252380D02*
X81176190Y-97776190D01*
X80938095Y-98252380D02*
X80938095Y-97252380D01*
X81319047Y-97252380D01*
X81414285Y-97300000D01*
X81461904Y-97347619D01*
X81509523Y-97442857D01*
X81509523Y-97585714D01*
X81461904Y-97680952D01*
X81414285Y-97728571D01*
X81319047Y-97776190D01*
X80938095Y-97776190D01*
X163419047Y-115466428D02*
X164180952Y-115466428D01*
X163800000Y-115847380D02*
X163800000Y-115085476D01*
X162276190Y-117838333D02*
X162228571Y-117790714D01*
X162133333Y-117647857D01*
X162085714Y-117552619D01*
X162038095Y-117409761D01*
X161990476Y-117171666D01*
X161990476Y-116981190D01*
X162038095Y-116743095D01*
X162085714Y-116600238D01*
X162133333Y-116505000D01*
X162228571Y-116362142D01*
X162276190Y-116314523D01*
X163180952Y-117457380D02*
X162609523Y-117457380D01*
X162895238Y-117457380D02*
X162895238Y-116457380D01*
X162800000Y-116600238D01*
X162704761Y-116695476D01*
X162609523Y-116743095D01*
X164085714Y-116457380D02*
X163609523Y-116457380D01*
X163561904Y-116933571D01*
X163609523Y-116885952D01*
X163704761Y-116838333D01*
X163942857Y-116838333D01*
X164038095Y-116885952D01*
X164085714Y-116933571D01*
X164133333Y-117028809D01*
X164133333Y-117266904D01*
X164085714Y-117362142D01*
X164038095Y-117409761D01*
X163942857Y-117457380D01*
X163704761Y-117457380D01*
X163609523Y-117409761D01*
X163561904Y-117362142D01*
X164419047Y-116457380D02*
X164752380Y-117457380D01*
X165085714Y-116457380D01*
X165323809Y-117838333D02*
X165371428Y-117790714D01*
X165466666Y-117647857D01*
X165514285Y-117552619D01*
X165561904Y-117409761D01*
X165609523Y-117171666D01*
X165609523Y-116981190D01*
X165561904Y-116743095D01*
X165514285Y-116600238D01*
X165466666Y-116505000D01*
X165371428Y-116362142D01*
X165323809Y-116314523D01*
X45569047Y-26202380D02*
X45902380Y-27202380D01*
X46235714Y-26202380D01*
X46521428Y-26916666D02*
X46997619Y-26916666D01*
X46426190Y-27202380D02*
X46759523Y-26202380D01*
X47092857Y-27202380D01*
X47997619Y-27107142D02*
X47950000Y-27154761D01*
X47807142Y-27202380D01*
X47711904Y-27202380D01*
X47569047Y-27154761D01*
X47473809Y-27059523D01*
X47426190Y-26964285D01*
X47378571Y-26773809D01*
X47378571Y-26630952D01*
X47426190Y-26440476D01*
X47473809Y-26345238D01*
X47569047Y-26250000D01*
X47711904Y-26202380D01*
X47807142Y-26202380D01*
X47950000Y-26250000D01*
X47997619Y-26297619D01*
X48426190Y-26821428D02*
X49188095Y-26821428D01*
X48807142Y-27202380D02*
X48807142Y-26440476D01*
X133657142Y-82407142D02*
X133609523Y-82454761D01*
X133466666Y-82502380D01*
X133371428Y-82502380D01*
X133228571Y-82454761D01*
X133133333Y-82359523D01*
X133085714Y-82264285D01*
X133038095Y-82073809D01*
X133038095Y-81930952D01*
X133085714Y-81740476D01*
X133133333Y-81645238D01*
X133228571Y-81550000D01*
X133371428Y-81502380D01*
X133466666Y-81502380D01*
X133609523Y-81550000D01*
X133657142Y-81597619D01*
X135038095Y-81502380D02*
X135133333Y-81502380D01*
X135228571Y-81550000D01*
X135276190Y-81597619D01*
X135323809Y-81692857D01*
X135371428Y-81883333D01*
X135371428Y-82121428D01*
X135323809Y-82311904D01*
X135276190Y-82407142D01*
X135228571Y-82454761D01*
X135133333Y-82502380D01*
X135038095Y-82502380D01*
X134942857Y-82454761D01*
X134895238Y-82407142D01*
X134847619Y-82311904D01*
X134800000Y-82121428D01*
X134800000Y-81883333D01*
X134847619Y-81692857D01*
X134895238Y-81597619D01*
X134942857Y-81550000D01*
X135038095Y-81502380D01*
X135800000Y-82407142D02*
X135847619Y-82454761D01*
X135800000Y-82502380D01*
X135752380Y-82454761D01*
X135800000Y-82407142D01*
X135800000Y-82502380D01*
X136800000Y-82502380D02*
X136228571Y-82502380D01*
X136514285Y-82502380D02*
X136514285Y-81502380D01*
X136419047Y-81645238D01*
X136323809Y-81740476D01*
X136228571Y-81788095D01*
X137657142Y-81835714D02*
X137657142Y-82502380D01*
X137228571Y-81835714D02*
X137228571Y-82359523D01*
X137276190Y-82454761D01*
X137371428Y-82502380D01*
X137514285Y-82502380D01*
X137609523Y-82454761D01*
X137657142Y-82407142D01*
X138466666Y-81978571D02*
X138133333Y-81978571D01*
X138133333Y-82502380D02*
X138133333Y-81502380D01*
X138609523Y-81502380D01*
X245819047Y-28821428D02*
X246580952Y-28821428D01*
X246200000Y-29202380D02*
X246200000Y-28440476D01*
X46957142Y-33116666D02*
X47433333Y-33116666D01*
X46861904Y-33402380D02*
X47195238Y-32402380D01*
X47528571Y-33402380D01*
X48433333Y-33307142D02*
X48385714Y-33354761D01*
X48242857Y-33402380D01*
X48147619Y-33402380D01*
X48004761Y-33354761D01*
X47909523Y-33259523D01*
X47861904Y-33164285D01*
X47814285Y-32973809D01*
X47814285Y-32830952D01*
X47861904Y-32640476D01*
X47909523Y-32545238D01*
X48004761Y-32450000D01*
X48147619Y-32402380D01*
X48242857Y-32402380D01*
X48385714Y-32450000D01*
X48433333Y-32497619D01*
X49623809Y-33402380D02*
X49623809Y-32402380D01*
X50004761Y-32402380D01*
X50100000Y-32450000D01*
X50147619Y-32497619D01*
X50195238Y-32592857D01*
X50195238Y-32735714D01*
X50147619Y-32830952D01*
X50100000Y-32878571D01*
X50004761Y-32926190D01*
X49623809Y-32926190D01*
X50766666Y-33402380D02*
X50671428Y-33354761D01*
X50623809Y-33307142D01*
X50576190Y-33211904D01*
X50576190Y-32926190D01*
X50623809Y-32830952D01*
X50671428Y-32783333D01*
X50766666Y-32735714D01*
X50909523Y-32735714D01*
X51004761Y-32783333D01*
X51052380Y-32830952D01*
X51100000Y-32926190D01*
X51100000Y-33211904D01*
X51052380Y-33307142D01*
X51004761Y-33354761D01*
X50909523Y-33402380D01*
X50766666Y-33402380D01*
X51433333Y-32735714D02*
X51623809Y-33402380D01*
X51814285Y-32926190D01*
X52004761Y-33402380D01*
X52195238Y-32735714D01*
X52957142Y-33354761D02*
X52861904Y-33402380D01*
X52671428Y-33402380D01*
X52576190Y-33354761D01*
X52528571Y-33259523D01*
X52528571Y-32878571D01*
X52576190Y-32783333D01*
X52671428Y-32735714D01*
X52861904Y-32735714D01*
X52957142Y-32783333D01*
X53004761Y-32878571D01*
X53004761Y-32973809D01*
X52528571Y-33069047D01*
X53433333Y-33402380D02*
X53433333Y-32735714D01*
X53433333Y-32926190D02*
X53480952Y-32830952D01*
X53528571Y-32783333D01*
X53623809Y-32735714D01*
X53719047Y-32735714D01*
X54338095Y-33783333D02*
X54290476Y-33735714D01*
X54195238Y-33592857D01*
X54147619Y-33497619D01*
X54100000Y-33354761D01*
X54052380Y-33116666D01*
X54052380Y-32926190D01*
X54100000Y-32688095D01*
X54147619Y-32545238D01*
X54195238Y-32450000D01*
X54290476Y-32307142D01*
X54338095Y-32259523D01*
X54623809Y-32402380D02*
X55242857Y-32402380D01*
X54909523Y-32783333D01*
X55052380Y-32783333D01*
X55147619Y-32830952D01*
X55195238Y-32878571D01*
X55242857Y-32973809D01*
X55242857Y-33211904D01*
X55195238Y-33307142D01*
X55147619Y-33354761D01*
X55052380Y-33402380D01*
X54766666Y-33402380D01*
X54671428Y-33354761D01*
X54623809Y-33307142D01*
X55861904Y-32402380D02*
X55957142Y-32402380D01*
X56052380Y-32450000D01*
X56100000Y-32497619D01*
X56147619Y-32592857D01*
X56195238Y-32783333D01*
X56195238Y-33021428D01*
X56147619Y-33211904D01*
X56100000Y-33307142D01*
X56052380Y-33354761D01*
X55957142Y-33402380D01*
X55861904Y-33402380D01*
X55766666Y-33354761D01*
X55719047Y-33307142D01*
X55671428Y-33211904D01*
X55623809Y-33021428D01*
X55623809Y-32783333D01*
X55671428Y-32592857D01*
X55719047Y-32497619D01*
X55766666Y-32450000D01*
X55861904Y-32402380D01*
X56480952Y-32402380D02*
X56814285Y-33402380D01*
X57147619Y-32402380D01*
X58719047Y-32402380D02*
X58242857Y-32402380D01*
X58195238Y-32878571D01*
X58242857Y-32830952D01*
X58338095Y-32783333D01*
X58576190Y-32783333D01*
X58671428Y-32830952D01*
X58719047Y-32878571D01*
X58766666Y-32973809D01*
X58766666Y-33211904D01*
X58719047Y-33307142D01*
X58671428Y-33354761D01*
X58576190Y-33402380D01*
X58338095Y-33402380D01*
X58242857Y-33354761D01*
X58195238Y-33307142D01*
X59385714Y-32402380D02*
X59480952Y-32402380D01*
X59576190Y-32450000D01*
X59623809Y-32497619D01*
X59671428Y-32592857D01*
X59719047Y-32783333D01*
X59719047Y-33021428D01*
X59671428Y-33211904D01*
X59623809Y-33307142D01*
X59576190Y-33354761D01*
X59480952Y-33402380D01*
X59385714Y-33402380D01*
X59290476Y-33354761D01*
X59242857Y-33307142D01*
X59195238Y-33211904D01*
X59147619Y-33021428D01*
X59147619Y-32783333D01*
X59195238Y-32592857D01*
X59242857Y-32497619D01*
X59290476Y-32450000D01*
X59385714Y-32402380D01*
X60147619Y-33402380D02*
X60147619Y-32402380D01*
X60147619Y-32878571D02*
X60719047Y-32878571D01*
X60719047Y-33402380D02*
X60719047Y-32402380D01*
X61099999Y-32735714D02*
X61623809Y-32735714D01*
X61099999Y-33402380D01*
X61623809Y-33402380D01*
X61909523Y-33783333D02*
X61957142Y-33735714D01*
X62052380Y-33592857D01*
X62099999Y-33497619D01*
X62147619Y-33354761D01*
X62195238Y-33116666D01*
X62195238Y-32926190D01*
X62147619Y-32688095D01*
X62099999Y-32545238D01*
X62052380Y-32450000D01*
X61957142Y-32307142D01*
X61909523Y-32259523D01*
X48859523Y-99302380D02*
X48526190Y-98826190D01*
X48288095Y-99302380D02*
X48288095Y-98302380D01*
X48669047Y-98302380D01*
X48764285Y-98350000D01*
X48811904Y-98397619D01*
X48859523Y-98492857D01*
X48859523Y-98635714D01*
X48811904Y-98730952D01*
X48764285Y-98778571D01*
X48669047Y-98826190D01*
X48288095Y-98826190D01*
X81038095Y-26147380D02*
X81038095Y-25147380D01*
X81419047Y-25147380D01*
X81514285Y-25195000D01*
X81561904Y-25242619D01*
X81609523Y-25337857D01*
X81609523Y-25480714D01*
X81561904Y-25575952D01*
X81514285Y-25623571D01*
X81419047Y-25671190D01*
X81038095Y-25671190D01*
X81942857Y-25147380D02*
X82180952Y-26147380D01*
X82371428Y-25433095D01*
X82561904Y-26147380D01*
X82800000Y-25147380D01*
X83180952Y-26147380D02*
X83180952Y-25147380D01*
X83514285Y-25861666D01*
X83847619Y-25147380D01*
X83847619Y-26147380D01*
X84085714Y-26242619D02*
X84847619Y-26242619D01*
X85657142Y-26052142D02*
X85609523Y-26099761D01*
X85466666Y-26147380D01*
X85371428Y-26147380D01*
X85228571Y-26099761D01*
X85133333Y-26004523D01*
X85085714Y-25909285D01*
X85038095Y-25718809D01*
X85038095Y-25575952D01*
X85085714Y-25385476D01*
X85133333Y-25290238D01*
X85228571Y-25195000D01*
X85371428Y-25147380D01*
X85466666Y-25147380D01*
X85609523Y-25195000D01*
X85657142Y-25242619D01*
X86276190Y-25147380D02*
X86466666Y-25147380D01*
X86561904Y-25195000D01*
X86657142Y-25290238D01*
X86704761Y-25480714D01*
X86704761Y-25814047D01*
X86657142Y-26004523D01*
X86561904Y-26099761D01*
X86466666Y-26147380D01*
X86276190Y-26147380D01*
X86180952Y-26099761D01*
X86085714Y-26004523D01*
X86038095Y-25814047D01*
X86038095Y-25480714D01*
X86085714Y-25290238D01*
X86180952Y-25195000D01*
X86276190Y-25147380D01*
X87133333Y-26147380D02*
X87133333Y-25147380D01*
X87466666Y-25861666D01*
X87800000Y-25147380D01*
X87800000Y-26147380D01*
X88038095Y-26242619D02*
X88800000Y-26242619D01*
X89371428Y-25623571D02*
X89514285Y-25671190D01*
X89561904Y-25718809D01*
X89609523Y-25814047D01*
X89609523Y-25956904D01*
X89561904Y-26052142D01*
X89514285Y-26099761D01*
X89419047Y-26147380D01*
X89038095Y-26147380D01*
X89038095Y-25147380D01*
X89371428Y-25147380D01*
X89466666Y-25195000D01*
X89514285Y-25242619D01*
X89561904Y-25337857D01*
X89561904Y-25433095D01*
X89514285Y-25528333D01*
X89466666Y-25575952D01*
X89371428Y-25623571D01*
X89038095Y-25623571D01*
X48759523Y-96752380D02*
X48426190Y-96276190D01*
X48188095Y-96752380D02*
X48188095Y-95752380D01*
X48569047Y-95752380D01*
X48664285Y-95800000D01*
X48711904Y-95847619D01*
X48759523Y-95942857D01*
X48759523Y-96085714D01*
X48711904Y-96180952D01*
X48664285Y-96228571D01*
X48569047Y-96276190D01*
X48188095Y-96276190D01*
X47090476Y-64802380D02*
X47090476Y-63802380D01*
X47328571Y-63802380D01*
X47471428Y-63850000D01*
X47566666Y-63945238D01*
X47614285Y-64040476D01*
X47661904Y-64230952D01*
X47661904Y-64373809D01*
X47614285Y-64564285D01*
X47566666Y-64659523D01*
X47471428Y-64754761D01*
X47328571Y-64802380D01*
X47090476Y-64802380D01*
X48090476Y-64802380D02*
X48090476Y-64135714D01*
X48090476Y-63802380D02*
X48042857Y-63850000D01*
X48090476Y-63897619D01*
X48138095Y-63850000D01*
X48090476Y-63802380D01*
X48090476Y-63897619D01*
X48709523Y-64802380D02*
X48614285Y-64754761D01*
X48566666Y-64707142D01*
X48519047Y-64611904D01*
X48519047Y-64326190D01*
X48566666Y-64230952D01*
X48614285Y-64183333D01*
X48709523Y-64135714D01*
X48852380Y-64135714D01*
X48947619Y-64183333D01*
X48995238Y-64230952D01*
X49042857Y-64326190D01*
X49042857Y-64611904D01*
X48995238Y-64707142D01*
X48947619Y-64754761D01*
X48852380Y-64802380D01*
X48709523Y-64802380D01*
X49900000Y-64802380D02*
X49900000Y-63802380D01*
X49900000Y-64754761D02*
X49804761Y-64802380D01*
X49614285Y-64802380D01*
X49519047Y-64754761D01*
X49471428Y-64707142D01*
X49423809Y-64611904D01*
X49423809Y-64326190D01*
X49471428Y-64230952D01*
X49519047Y-64183333D01*
X49614285Y-64135714D01*
X49804761Y-64135714D01*
X49900000Y-64183333D01*
X50757142Y-64754761D02*
X50661904Y-64802380D01*
X50471428Y-64802380D01*
X50376190Y-64754761D01*
X50328571Y-64659523D01*
X50328571Y-64278571D01*
X50376190Y-64183333D01*
X50471428Y-64135714D01*
X50661904Y-64135714D01*
X50757142Y-64183333D01*
X50804761Y-64278571D01*
X50804761Y-64373809D01*
X50328571Y-64469047D01*
X51757142Y-64802380D02*
X51185714Y-64802380D01*
X51471428Y-64802380D02*
X51471428Y-63802380D01*
X51376190Y-63945238D01*
X51280952Y-64040476D01*
X51185714Y-64088095D01*
X82819047Y-58271428D02*
X83580952Y-58271428D01*
X83200000Y-58652380D02*
X83200000Y-57890476D01*
X95069047Y-57921428D02*
X95830952Y-57921428D01*
X56952380Y-100388095D02*
X55952380Y-100388095D01*
X55952380Y-100150000D01*
X56000000Y-100007142D01*
X56095238Y-99911904D01*
X56190476Y-99864285D01*
X56380952Y-99816666D01*
X56523809Y-99816666D01*
X56714285Y-99864285D01*
X56809523Y-99911904D01*
X56904761Y-100007142D01*
X56952380Y-100150000D01*
X56952380Y-100388095D01*
X57047619Y-99626190D02*
X57047619Y-98864285D01*
X55952380Y-98721428D02*
X55952380Y-98054761D01*
X56952380Y-98721428D01*
X56952380Y-98054761D01*
X56904761Y-97292857D02*
X56952380Y-97388095D01*
X56952380Y-97578571D01*
X56904761Y-97673809D01*
X56809523Y-97721428D01*
X56428571Y-97721428D01*
X56333333Y-97673809D01*
X56285714Y-97578571D01*
X56285714Y-97388095D01*
X56333333Y-97292857D01*
X56428571Y-97245238D01*
X56523809Y-97245238D01*
X56619047Y-97721428D01*
X56285714Y-96816666D02*
X56952380Y-96816666D01*
X56380952Y-96816666D02*
X56333333Y-96769047D01*
X56285714Y-96673809D01*
X56285714Y-96530952D01*
X56333333Y-96435714D01*
X56428571Y-96388095D01*
X56952380Y-96388095D01*
X56904761Y-95530952D02*
X56952380Y-95626190D01*
X56952380Y-95816666D01*
X56904761Y-95911904D01*
X56809523Y-95959523D01*
X56428571Y-95959523D01*
X56333333Y-95911904D01*
X56285714Y-95816666D01*
X56285714Y-95626190D01*
X56333333Y-95530952D01*
X56428571Y-95483333D01*
X56523809Y-95483333D01*
X56619047Y-95959523D01*
X56952380Y-95054761D02*
X56285714Y-95054761D01*
X56476190Y-95054761D02*
X56380952Y-95007142D01*
X56333333Y-94959523D01*
X56285714Y-94864285D01*
X56285714Y-94769047D01*
X76935714Y-108752380D02*
X77507142Y-108752380D01*
X77221428Y-109752380D02*
X77221428Y-108752380D01*
X77840476Y-109752380D02*
X77840476Y-108752380D01*
X78221428Y-108752380D01*
X78316666Y-108800000D01*
X78364285Y-108847619D01*
X78411904Y-108942857D01*
X78411904Y-109085714D01*
X78364285Y-109180952D01*
X78316666Y-109228571D01*
X78221428Y-109276190D01*
X77840476Y-109276190D01*
X78602380Y-109847619D02*
X79364285Y-109847619D01*
X80269047Y-109847619D02*
X80173809Y-109800000D01*
X80078571Y-109704761D01*
X79935714Y-109561904D01*
X79840476Y-109514285D01*
X79745238Y-109514285D01*
X79792857Y-109752380D02*
X79697619Y-109704761D01*
X79602380Y-109609523D01*
X79554761Y-109419047D01*
X79554761Y-109085714D01*
X79602380Y-108895238D01*
X79697619Y-108800000D01*
X79792857Y-108752380D01*
X79983333Y-108752380D01*
X80078571Y-108800000D01*
X80173809Y-108895238D01*
X80221428Y-109085714D01*
X80221428Y-109419047D01*
X80173809Y-109609523D01*
X80078571Y-109704761D01*
X79983333Y-109752380D01*
X79792857Y-109752380D01*
X81173809Y-109752380D02*
X80602380Y-109752380D01*
X80888095Y-109752380D02*
X80888095Y-108752380D01*
X80792857Y-108895238D01*
X80697619Y-108990476D01*
X80602380Y-109038095D01*
X81364285Y-109847619D02*
X82126190Y-109847619D01*
X82888095Y-108800000D02*
X82792857Y-108752380D01*
X82650000Y-108752380D01*
X82507142Y-108800000D01*
X82411904Y-108895238D01*
X82364285Y-108990476D01*
X82316666Y-109180952D01*
X82316666Y-109323809D01*
X82364285Y-109514285D01*
X82411904Y-109609523D01*
X82507142Y-109704761D01*
X82650000Y-109752380D01*
X82745238Y-109752380D01*
X82888095Y-109704761D01*
X82935714Y-109657142D01*
X82935714Y-109323809D01*
X82745238Y-109323809D01*
X83792857Y-109752380D02*
X83792857Y-109228571D01*
X83745238Y-109133333D01*
X83650000Y-109085714D01*
X83459523Y-109085714D01*
X83364285Y-109133333D01*
X83792857Y-109704761D02*
X83697619Y-109752380D01*
X83459523Y-109752380D01*
X83364285Y-109704761D01*
X83316666Y-109609523D01*
X83316666Y-109514285D01*
X83364285Y-109419047D01*
X83459523Y-109371428D01*
X83697619Y-109371428D01*
X83792857Y-109323809D01*
X84126190Y-109085714D02*
X84507142Y-109085714D01*
X84269047Y-108752380D02*
X84269047Y-109609523D01*
X84316666Y-109704761D01*
X84411904Y-109752380D01*
X84507142Y-109752380D01*
X85221428Y-109704761D02*
X85126190Y-109752380D01*
X84935714Y-109752380D01*
X84840476Y-109704761D01*
X84792857Y-109609523D01*
X84792857Y-109228571D01*
X84840476Y-109133333D01*
X84935714Y-109085714D01*
X85126190Y-109085714D01*
X85221428Y-109133333D01*
X85269047Y-109228571D01*
X85269047Y-109323809D01*
X84792857Y-109419047D01*
X96450000Y-25997380D02*
X96116666Y-25521190D01*
X95878571Y-25997380D02*
X95878571Y-24997380D01*
X96259523Y-24997380D01*
X96354761Y-25045000D01*
X96402380Y-25092619D01*
X96450000Y-25187857D01*
X96450000Y-25330714D01*
X96402380Y-25425952D01*
X96354761Y-25473571D01*
X96259523Y-25521190D01*
X95878571Y-25521190D01*
X97259523Y-25949761D02*
X97164285Y-25997380D01*
X96973809Y-25997380D01*
X96878571Y-25949761D01*
X96830952Y-25854523D01*
X96830952Y-25473571D01*
X96878571Y-25378333D01*
X96973809Y-25330714D01*
X97164285Y-25330714D01*
X97259523Y-25378333D01*
X97307142Y-25473571D01*
X97307142Y-25568809D01*
X96830952Y-25664047D01*
X98164285Y-25949761D02*
X98069047Y-25997380D01*
X97878571Y-25997380D01*
X97783333Y-25949761D01*
X97735714Y-25902142D01*
X97688095Y-25806904D01*
X97688095Y-25521190D01*
X97735714Y-25425952D01*
X97783333Y-25378333D01*
X97878571Y-25330714D01*
X98069047Y-25330714D01*
X98164285Y-25378333D01*
X98450000Y-25330714D02*
X98830952Y-25330714D01*
X98592857Y-24997380D02*
X98592857Y-25854523D01*
X98640476Y-25949761D01*
X98735714Y-25997380D01*
X98830952Y-25997380D01*
X99164285Y-25997380D02*
X99164285Y-25330714D01*
X99164285Y-24997380D02*
X99116666Y-25045000D01*
X99164285Y-25092619D01*
X99211904Y-25045000D01*
X99164285Y-24997380D01*
X99164285Y-25092619D01*
X99497619Y-25330714D02*
X99878571Y-25330714D01*
X99640476Y-25997380D02*
X99640476Y-25140238D01*
X99688095Y-25045000D01*
X99783333Y-24997380D01*
X99878571Y-24997380D01*
X100211904Y-25997380D02*
X100211904Y-25330714D01*
X100211904Y-24997380D02*
X100164285Y-25045000D01*
X100211904Y-25092619D01*
X100259523Y-25045000D01*
X100211904Y-24997380D01*
X100211904Y-25092619D01*
X101069047Y-25949761D02*
X100973809Y-25997380D01*
X100783333Y-25997380D01*
X100688095Y-25949761D01*
X100640476Y-25854523D01*
X100640476Y-25473571D01*
X100688095Y-25378333D01*
X100783333Y-25330714D01*
X100973809Y-25330714D01*
X101069047Y-25378333D01*
X101116666Y-25473571D01*
X101116666Y-25568809D01*
X100640476Y-25664047D01*
X101545238Y-25997380D02*
X101545238Y-25330714D01*
X101545238Y-25521190D02*
X101592857Y-25425952D01*
X101640476Y-25378333D01*
X101735714Y-25330714D01*
X101830952Y-25330714D01*
X101926190Y-26092619D02*
X102688095Y-26092619D01*
X102926190Y-25997380D02*
X102926190Y-24997380D01*
X103164285Y-24997380D01*
X103307142Y-25045000D01*
X103402380Y-25140238D01*
X103450000Y-25235476D01*
X103497619Y-25425952D01*
X103497619Y-25568809D01*
X103450000Y-25759285D01*
X103402380Y-25854523D01*
X103307142Y-25949761D01*
X103164285Y-25997380D01*
X102926190Y-25997380D01*
X104497619Y-25902142D02*
X104450000Y-25949761D01*
X104307142Y-25997380D01*
X104211904Y-25997380D01*
X104069047Y-25949761D01*
X103973809Y-25854523D01*
X103926190Y-25759285D01*
X103878571Y-25568809D01*
X103878571Y-25425952D01*
X103926190Y-25235476D01*
X103973809Y-25140238D01*
X104069047Y-25045000D01*
X104211904Y-24997380D01*
X104307142Y-24997380D01*
X104450000Y-25045000D01*
X104497619Y-25092619D01*
X105211904Y-26378333D02*
X105164285Y-26330714D01*
X105069047Y-26187857D01*
X105021428Y-26092619D01*
X104973809Y-25949761D01*
X104926190Y-25711666D01*
X104926190Y-25521190D01*
X104973809Y-25283095D01*
X105021428Y-25140238D01*
X105069047Y-25045000D01*
X105164285Y-24902142D01*
X105211904Y-24854523D01*
X105592857Y-25616428D02*
X106354761Y-25616428D01*
X105973809Y-25997380D02*
X105973809Y-25235476D01*
X106735714Y-26378333D02*
X106783333Y-26330714D01*
X106878571Y-26187857D01*
X106926190Y-26092619D01*
X106973809Y-25949761D01*
X107021428Y-25711666D01*
X107021428Y-25521190D01*
X106973809Y-25283095D01*
X106926190Y-25140238D01*
X106878571Y-25045000D01*
X106783333Y-24902142D01*
X106735714Y-24854523D01*
X44135714Y-109502380D02*
X44707142Y-109502380D01*
X44421428Y-110502380D02*
X44421428Y-109502380D01*
X45040476Y-110502380D02*
X45040476Y-109502380D01*
X45421428Y-109502380D01*
X45516666Y-109550000D01*
X45564285Y-109597619D01*
X45611904Y-109692857D01*
X45611904Y-109835714D01*
X45564285Y-109930952D01*
X45516666Y-109978571D01*
X45421428Y-110026190D01*
X45040476Y-110026190D01*
X45802380Y-110597619D02*
X46564285Y-110597619D01*
X47469047Y-110597619D02*
X47373809Y-110550000D01*
X47278571Y-110454761D01*
X47135714Y-110311904D01*
X47040476Y-110264285D01*
X46945238Y-110264285D01*
X46992857Y-110502380D02*
X46897619Y-110454761D01*
X46802380Y-110359523D01*
X46754761Y-110169047D01*
X46754761Y-109835714D01*
X46802380Y-109645238D01*
X46897619Y-109550000D01*
X46992857Y-109502380D01*
X47183333Y-109502380D01*
X47278571Y-109550000D01*
X47373809Y-109645238D01*
X47421428Y-109835714D01*
X47421428Y-110169047D01*
X47373809Y-110359523D01*
X47278571Y-110454761D01*
X47183333Y-110502380D01*
X46992857Y-110502380D01*
X47802380Y-109597619D02*
X47850000Y-109550000D01*
X47945238Y-109502380D01*
X48183333Y-109502380D01*
X48278571Y-109550000D01*
X48326190Y-109597619D01*
X48373809Y-109692857D01*
X48373809Y-109788095D01*
X48326190Y-109930952D01*
X47754761Y-110502380D01*
X48373809Y-110502380D01*
X48564285Y-110597619D02*
X49326190Y-110597619D01*
X50088095Y-109550000D02*
X49992857Y-109502380D01*
X49850000Y-109502380D01*
X49707142Y-109550000D01*
X49611904Y-109645238D01*
X49564285Y-109740476D01*
X49516666Y-109930952D01*
X49516666Y-110073809D01*
X49564285Y-110264285D01*
X49611904Y-110359523D01*
X49707142Y-110454761D01*
X49850000Y-110502380D01*
X49945238Y-110502380D01*
X50088095Y-110454761D01*
X50135714Y-110407142D01*
X50135714Y-110073809D01*
X49945238Y-110073809D01*
X50992857Y-110502380D02*
X50992857Y-109978571D01*
X50945238Y-109883333D01*
X50850000Y-109835714D01*
X50659523Y-109835714D01*
X50564285Y-109883333D01*
X50992857Y-110454761D02*
X50897619Y-110502380D01*
X50659523Y-110502380D01*
X50564285Y-110454761D01*
X50516666Y-110359523D01*
X50516666Y-110264285D01*
X50564285Y-110169047D01*
X50659523Y-110121428D01*
X50897619Y-110121428D01*
X50992857Y-110073809D01*
X51326190Y-109835714D02*
X51707142Y-109835714D01*
X51469047Y-109502380D02*
X51469047Y-110359523D01*
X51516666Y-110454761D01*
X51611904Y-110502380D01*
X51707142Y-110502380D01*
X52421428Y-110454761D02*
X52326190Y-110502380D01*
X52135714Y-110502380D01*
X52040476Y-110454761D01*
X51992857Y-110359523D01*
X51992857Y-109978571D01*
X52040476Y-109883333D01*
X52135714Y-109835714D01*
X52326190Y-109835714D01*
X52421428Y-109883333D01*
X52469047Y-109978571D01*
X52469047Y-110073809D01*
X51992857Y-110169047D01*
X134271428Y-91257142D02*
X134223809Y-91304761D01*
X134080952Y-91352380D01*
X133985714Y-91352380D01*
X133842857Y-91304761D01*
X133747619Y-91209523D01*
X133700000Y-91114285D01*
X133652380Y-90923809D01*
X133652380Y-90780952D01*
X133700000Y-90590476D01*
X133747619Y-90495238D01*
X133842857Y-90400000D01*
X133985714Y-90352380D01*
X134080952Y-90352380D01*
X134223809Y-90400000D01*
X134271428Y-90447619D01*
X135985714Y-91352380D02*
X135414285Y-91352380D01*
X135700000Y-91352380D02*
X135700000Y-90352380D01*
X135604761Y-90495238D01*
X135509523Y-90590476D01*
X135414285Y-90638095D01*
X136842857Y-90685714D02*
X136842857Y-91352380D01*
X136414285Y-90685714D02*
X136414285Y-91209523D01*
X136461904Y-91304761D01*
X136557142Y-91352380D01*
X136700000Y-91352380D01*
X136795238Y-91304761D01*
X136842857Y-91257142D01*
X137652380Y-90828571D02*
X137319047Y-90828571D01*
X137319047Y-91352380D02*
X137319047Y-90352380D01*
X137795238Y-90352380D01*
X55069047Y-58821428D02*
X55830952Y-58821428D01*
X82361904Y-73152380D02*
X82361904Y-72152380D01*
X82933333Y-73152380D01*
X82933333Y-72152380D01*
X83409523Y-72771428D02*
X84171428Y-72771428D01*
X84647619Y-73152380D02*
X84647619Y-72152380D01*
X84980952Y-72866666D01*
X85314285Y-72152380D01*
X85314285Y-73152380D01*
X85980952Y-72152380D02*
X86171428Y-72152380D01*
X86266666Y-72200000D01*
X86361904Y-72295238D01*
X86409523Y-72485714D01*
X86409523Y-72819047D01*
X86361904Y-73009523D01*
X86266666Y-73104761D01*
X86171428Y-73152380D01*
X85980952Y-73152380D01*
X85885714Y-73104761D01*
X85790476Y-73009523D01*
X85742857Y-72819047D01*
X85742857Y-72485714D01*
X85790476Y-72295238D01*
X85885714Y-72200000D01*
X85980952Y-72152380D01*
X86790476Y-73104761D02*
X86933333Y-73152380D01*
X87171428Y-73152380D01*
X87266666Y-73104761D01*
X87314285Y-73057142D01*
X87361904Y-72961904D01*
X87361904Y-72866666D01*
X87314285Y-72771428D01*
X87266666Y-72723809D01*
X87171428Y-72676190D01*
X86980952Y-72628571D01*
X86885714Y-72580952D01*
X86838095Y-72533333D01*
X86790476Y-72438095D01*
X86790476Y-72342857D01*
X86838095Y-72247619D01*
X86885714Y-72200000D01*
X86980952Y-72152380D01*
X87219047Y-72152380D01*
X87361904Y-72200000D01*
X88123809Y-72628571D02*
X87790476Y-72628571D01*
X87790476Y-73152380D02*
X87790476Y-72152380D01*
X88266666Y-72152380D01*
X88647619Y-72628571D02*
X88980952Y-72628571D01*
X89123809Y-73152380D02*
X88647619Y-73152380D01*
X88647619Y-72152380D01*
X89123809Y-72152380D01*
X89409523Y-72152380D02*
X89980952Y-72152380D01*
X89695238Y-73152380D02*
X89695238Y-72152380D01*
X144069047Y-115866428D02*
X144830952Y-115866428D01*
X144450000Y-116247380D02*
X144450000Y-115485476D01*
X143402380Y-118238333D02*
X143354761Y-118190714D01*
X143259523Y-118047857D01*
X143211904Y-117952619D01*
X143164285Y-117809761D01*
X143116666Y-117571666D01*
X143116666Y-117381190D01*
X143164285Y-117143095D01*
X143211904Y-117000238D01*
X143259523Y-116905000D01*
X143354761Y-116762142D01*
X143402380Y-116714523D01*
X144259523Y-116857380D02*
X143783333Y-116857380D01*
X143735714Y-117333571D01*
X143783333Y-117285952D01*
X143878571Y-117238333D01*
X144116666Y-117238333D01*
X144211904Y-117285952D01*
X144259523Y-117333571D01*
X144307142Y-117428809D01*
X144307142Y-117666904D01*
X144259523Y-117762142D01*
X144211904Y-117809761D01*
X144116666Y-117857380D01*
X143878571Y-117857380D01*
X143783333Y-117809761D01*
X143735714Y-117762142D01*
X144592857Y-116857380D02*
X144926190Y-117857380D01*
X145259523Y-116857380D01*
X145497619Y-118238333D02*
X145545238Y-118190714D01*
X145640476Y-118047857D01*
X145688095Y-117952619D01*
X145735714Y-117809761D01*
X145783333Y-117571666D01*
X145783333Y-117381190D01*
X145735714Y-117143095D01*
X145688095Y-117000238D01*
X145640476Y-116905000D01*
X145545238Y-116762142D01*
X145497619Y-116714523D01*
X191569047Y-52821428D02*
X192330952Y-52821428D01*
X87140476Y-64102380D02*
X87140476Y-63102380D01*
X87378571Y-63102380D01*
X87521428Y-63150000D01*
X87616666Y-63245238D01*
X87664285Y-63340476D01*
X87711904Y-63530952D01*
X87711904Y-63673809D01*
X87664285Y-63864285D01*
X87616666Y-63959523D01*
X87521428Y-64054761D01*
X87378571Y-64102380D01*
X87140476Y-64102380D01*
X88140476Y-64102380D02*
X88140476Y-63435714D01*
X88140476Y-63102380D02*
X88092857Y-63150000D01*
X88140476Y-63197619D01*
X88188095Y-63150000D01*
X88140476Y-63102380D01*
X88140476Y-63197619D01*
X88759523Y-64102380D02*
X88664285Y-64054761D01*
X88616666Y-64007142D01*
X88569047Y-63911904D01*
X88569047Y-63626190D01*
X88616666Y-63530952D01*
X88664285Y-63483333D01*
X88759523Y-63435714D01*
X88902380Y-63435714D01*
X88997619Y-63483333D01*
X89045238Y-63530952D01*
X89092857Y-63626190D01*
X89092857Y-63911904D01*
X89045238Y-64007142D01*
X88997619Y-64054761D01*
X88902380Y-64102380D01*
X88759523Y-64102380D01*
X89950000Y-64102380D02*
X89950000Y-63102380D01*
X89950000Y-64054761D02*
X89854761Y-64102380D01*
X89664285Y-64102380D01*
X89569047Y-64054761D01*
X89521428Y-64007142D01*
X89473809Y-63911904D01*
X89473809Y-63626190D01*
X89521428Y-63530952D01*
X89569047Y-63483333D01*
X89664285Y-63435714D01*
X89854761Y-63435714D01*
X89950000Y-63483333D01*
X90807142Y-64054761D02*
X90711904Y-64102380D01*
X90521428Y-64102380D01*
X90426190Y-64054761D01*
X90378571Y-63959523D01*
X90378571Y-63578571D01*
X90426190Y-63483333D01*
X90521428Y-63435714D01*
X90711904Y-63435714D01*
X90807142Y-63483333D01*
X90854761Y-63578571D01*
X90854761Y-63673809D01*
X90378571Y-63769047D01*
X91235714Y-63197619D02*
X91283333Y-63150000D01*
X91378571Y-63102380D01*
X91616666Y-63102380D01*
X91711904Y-63150000D01*
X91759523Y-63197619D01*
X91807142Y-63292857D01*
X91807142Y-63388095D01*
X91759523Y-63530952D01*
X91188095Y-64102380D01*
X91807142Y-64102380D01*
X36454761Y-108352380D02*
X36454761Y-107352380D01*
X36835714Y-107352380D01*
X36930952Y-107400000D01*
X36978571Y-107447619D01*
X37026190Y-107542857D01*
X37026190Y-107685714D01*
X36978571Y-107780952D01*
X36930952Y-107828571D01*
X36835714Y-107876190D01*
X36454761Y-107876190D01*
X37359523Y-107352380D02*
X37597619Y-108352380D01*
X37788095Y-107638095D01*
X37978571Y-108352380D01*
X38216666Y-107352380D01*
X38597619Y-108352380D02*
X38597619Y-107352380D01*
X38930952Y-108066666D01*
X39264285Y-107352380D01*
X39264285Y-108352380D01*
X39502380Y-108447619D02*
X40264285Y-108447619D01*
X40692857Y-107352380D02*
X40883333Y-107352380D01*
X40978571Y-107400000D01*
X41073809Y-107495238D01*
X41121428Y-107685714D01*
X41121428Y-108019047D01*
X41073809Y-108209523D01*
X40978571Y-108304761D01*
X40883333Y-108352380D01*
X40692857Y-108352380D01*
X40597619Y-108304761D01*
X40502380Y-108209523D01*
X40454761Y-108019047D01*
X40454761Y-107685714D01*
X40502380Y-107495238D01*
X40597619Y-107400000D01*
X40692857Y-107352380D01*
X41550000Y-107352380D02*
X41550000Y-108161904D01*
X41597619Y-108257142D01*
X41645238Y-108304761D01*
X41740476Y-108352380D01*
X41930952Y-108352380D01*
X42026190Y-108304761D01*
X42073809Y-108257142D01*
X42121428Y-108161904D01*
X42121428Y-107352380D01*
X42454761Y-107352380D02*
X43026190Y-107352380D01*
X42740476Y-108352380D02*
X42740476Y-107352380D01*
X43121428Y-108447619D02*
X43883333Y-108447619D01*
X44454761Y-107828571D02*
X44597619Y-107876190D01*
X44645238Y-107923809D01*
X44692857Y-108019047D01*
X44692857Y-108161904D01*
X44645238Y-108257142D01*
X44597619Y-108304761D01*
X44502380Y-108352380D01*
X44121428Y-108352380D01*
X44121428Y-107352380D01*
X44454761Y-107352380D01*
X44550000Y-107400000D01*
X44597619Y-107447619D01*
X44645238Y-107542857D01*
X44645238Y-107638095D01*
X44597619Y-107733333D01*
X44550000Y-107780952D01*
X44454761Y-107828571D01*
X44121428Y-107828571D01*
X58971428Y-92580952D02*
X58971428Y-91819047D01*
X236152380Y-24007142D02*
X236104761Y-24054761D01*
X235961904Y-24102380D01*
X235866666Y-24102380D01*
X235723809Y-24054761D01*
X235628571Y-23959523D01*
X235580952Y-23864285D01*
X235533333Y-23673809D01*
X235533333Y-23530952D01*
X235580952Y-23340476D01*
X235628571Y-23245238D01*
X235723809Y-23150000D01*
X235866666Y-23102380D01*
X235961904Y-23102380D01*
X236104761Y-23150000D01*
X236152380Y-23197619D01*
X236723809Y-24102380D02*
X236628571Y-24054761D01*
X236580952Y-24007142D01*
X236533333Y-23911904D01*
X236533333Y-23626190D01*
X236580952Y-23530952D01*
X236628571Y-23483333D01*
X236723809Y-23435714D01*
X236866666Y-23435714D01*
X236961904Y-23483333D01*
X237009523Y-23530952D01*
X237057142Y-23626190D01*
X237057142Y-23911904D01*
X237009523Y-24007142D01*
X236961904Y-24054761D01*
X236866666Y-24102380D01*
X236723809Y-24102380D01*
X237485714Y-23435714D02*
X237485714Y-24102380D01*
X237485714Y-23530952D02*
X237533333Y-23483333D01*
X237628571Y-23435714D01*
X237771428Y-23435714D01*
X237866666Y-23483333D01*
X237914285Y-23578571D01*
X237914285Y-24102380D01*
X238295238Y-23435714D02*
X238533333Y-24102380D01*
X238771428Y-23435714D01*
X239533333Y-24054761D02*
X239438095Y-24102380D01*
X239247619Y-24102380D01*
X239152380Y-24054761D01*
X239104761Y-23959523D01*
X239104761Y-23578571D01*
X239152380Y-23483333D01*
X239247619Y-23435714D01*
X239438095Y-23435714D01*
X239533333Y-23483333D01*
X239580952Y-23578571D01*
X239580952Y-23673809D01*
X239104761Y-23769047D01*
X240009523Y-24102380D02*
X240009523Y-23435714D01*
X240009523Y-23626190D02*
X240057142Y-23530952D01*
X240104761Y-23483333D01*
X240200000Y-23435714D01*
X240295238Y-23435714D01*
X240485714Y-23435714D02*
X240866666Y-23435714D01*
X240628571Y-23102380D02*
X240628571Y-23959523D01*
X240676190Y-24054761D01*
X240771428Y-24102380D01*
X240866666Y-24102380D01*
X241580952Y-24054761D02*
X241485714Y-24102380D01*
X241295238Y-24102380D01*
X241200000Y-24054761D01*
X241152380Y-23959523D01*
X241152380Y-23578571D01*
X241200000Y-23483333D01*
X241295238Y-23435714D01*
X241485714Y-23435714D01*
X241580952Y-23483333D01*
X241628571Y-23578571D01*
X241628571Y-23673809D01*
X241152380Y-23769047D01*
X242057142Y-24102380D02*
X242057142Y-23435714D01*
X242057142Y-23626190D02*
X242104761Y-23530952D01*
X242152380Y-23483333D01*
X242247619Y-23435714D01*
X242342857Y-23435714D01*
X242438095Y-24197619D02*
X243200000Y-24197619D01*
X243628571Y-23102380D02*
X243819047Y-23102380D01*
X243914285Y-23150000D01*
X244009523Y-23245238D01*
X244057142Y-23435714D01*
X244057142Y-23769047D01*
X244009523Y-23959523D01*
X243914285Y-24054761D01*
X243819047Y-24102380D01*
X243628571Y-24102380D01*
X243533333Y-24054761D01*
X243438095Y-23959523D01*
X243390476Y-23769047D01*
X243390476Y-23435714D01*
X243438095Y-23245238D01*
X243533333Y-23150000D01*
X243628571Y-23102380D01*
X244485714Y-23102380D02*
X244485714Y-23911904D01*
X244533333Y-24007142D01*
X244580952Y-24054761D01*
X244676190Y-24102380D01*
X244866666Y-24102380D01*
X244961904Y-24054761D01*
X245009523Y-24007142D01*
X245057142Y-23911904D01*
X245057142Y-23102380D01*
X245390476Y-23102380D02*
X245961904Y-23102380D01*
X245676190Y-24102380D02*
X245676190Y-23102380D01*
X89552380Y-101188095D02*
X88552380Y-101188095D01*
X88552380Y-100950000D01*
X88600000Y-100807142D01*
X88695238Y-100711904D01*
X88790476Y-100664285D01*
X88980952Y-100616666D01*
X89123809Y-100616666D01*
X89314285Y-100664285D01*
X89409523Y-100711904D01*
X89504761Y-100807142D01*
X89552380Y-100950000D01*
X89552380Y-101188095D01*
X89647619Y-100426190D02*
X89647619Y-99664285D01*
X88552380Y-99521428D02*
X88552380Y-98854761D01*
X89552380Y-99521428D01*
X89552380Y-98854761D01*
X89504761Y-98092857D02*
X89552380Y-98188095D01*
X89552380Y-98378571D01*
X89504761Y-98473809D01*
X89409523Y-98521428D01*
X89028571Y-98521428D01*
X88933333Y-98473809D01*
X88885714Y-98378571D01*
X88885714Y-98188095D01*
X88933333Y-98092857D01*
X89028571Y-98045238D01*
X89123809Y-98045238D01*
X89219047Y-98521428D01*
X88885714Y-97616666D02*
X89552380Y-97616666D01*
X88980952Y-97616666D02*
X88933333Y-97569047D01*
X88885714Y-97473809D01*
X88885714Y-97330952D01*
X88933333Y-97235714D01*
X89028571Y-97188095D01*
X89552380Y-97188095D01*
X89504761Y-96330952D02*
X89552380Y-96426190D01*
X89552380Y-96616666D01*
X89504761Y-96711904D01*
X89409523Y-96759523D01*
X89028571Y-96759523D01*
X88933333Y-96711904D01*
X88885714Y-96616666D01*
X88885714Y-96426190D01*
X88933333Y-96330952D01*
X89028571Y-96283333D01*
X89123809Y-96283333D01*
X89219047Y-96759523D01*
X89552380Y-95854761D02*
X88885714Y-95854761D01*
X89076190Y-95854761D02*
X88980952Y-95807142D01*
X88933333Y-95759523D01*
X88885714Y-95664285D01*
X88885714Y-95569047D01*
X99409523Y-97607142D02*
X99361904Y-97654761D01*
X99219047Y-97702380D01*
X99123809Y-97702380D01*
X98980952Y-97654761D01*
X98885714Y-97559523D01*
X98838095Y-97464285D01*
X98790476Y-97273809D01*
X98790476Y-97130952D01*
X98838095Y-96940476D01*
X98885714Y-96845238D01*
X98980952Y-96750000D01*
X99123809Y-96702380D01*
X99219047Y-96702380D01*
X99361904Y-96750000D01*
X99409523Y-96797619D01*
X69676190Y-107652380D02*
X69676190Y-106652380D01*
X70057142Y-106652380D01*
X70152380Y-106700000D01*
X70200000Y-106747619D01*
X70247619Y-106842857D01*
X70247619Y-106985714D01*
X70200000Y-107080952D01*
X70152380Y-107128571D01*
X70057142Y-107176190D01*
X69676190Y-107176190D01*
X70580952Y-106652380D02*
X70819047Y-107652380D01*
X71009523Y-106938095D01*
X71200000Y-107652380D01*
X71438095Y-106652380D01*
X71819047Y-107652380D02*
X71819047Y-106652380D01*
X72152380Y-107366666D01*
X72485714Y-106652380D01*
X72485714Y-107652380D01*
X72723809Y-107747619D02*
X73485714Y-107747619D01*
X73914285Y-106652380D02*
X74104761Y-106652380D01*
X74200000Y-106700000D01*
X74295238Y-106795238D01*
X74342857Y-106985714D01*
X74342857Y-107319047D01*
X74295238Y-107509523D01*
X74200000Y-107604761D01*
X74104761Y-107652380D01*
X73914285Y-107652380D01*
X73819047Y-107604761D01*
X73723809Y-107509523D01*
X73676190Y-107319047D01*
X73676190Y-106985714D01*
X73723809Y-106795238D01*
X73819047Y-106700000D01*
X73914285Y-106652380D01*
X74771428Y-106652380D02*
X74771428Y-107461904D01*
X74819047Y-107557142D01*
X74866666Y-107604761D01*
X74961904Y-107652380D01*
X75152380Y-107652380D01*
X75247619Y-107604761D01*
X75295238Y-107557142D01*
X75342857Y-107461904D01*
X75342857Y-106652380D01*
X75676190Y-106652380D02*
X76247619Y-106652380D01*
X75961904Y-107652380D02*
X75961904Y-106652380D01*
X76342857Y-107747619D02*
X77104761Y-107747619D01*
X77295238Y-107366666D02*
X77771428Y-107366666D01*
X77200000Y-107652380D02*
X77533333Y-106652380D01*
X77866666Y-107652380D01*
X158180952Y-118871428D02*
X157419047Y-118871428D01*
X157800000Y-119252380D02*
X157800000Y-118490476D01*
X150080952Y-120252380D02*
X150652380Y-120252380D01*
X150366666Y-121252380D02*
X150366666Y-120252380D01*
X150985714Y-121252380D02*
X150985714Y-120252380D01*
X151366666Y-120252380D01*
X151461904Y-120300000D01*
X151509523Y-120347619D01*
X151557142Y-120442857D01*
X151557142Y-120585714D01*
X151509523Y-120680952D01*
X151461904Y-120728571D01*
X151366666Y-120776190D01*
X150985714Y-120776190D01*
X151747619Y-121347619D02*
X152509523Y-121347619D01*
X152747619Y-121252380D02*
X152747619Y-120252380D01*
X153128571Y-120252380D01*
X153223809Y-120300000D01*
X153271428Y-120347619D01*
X153319047Y-120442857D01*
X153319047Y-120585714D01*
X153271428Y-120680952D01*
X153223809Y-120728571D01*
X153128571Y-120776190D01*
X152747619Y-120776190D01*
X153652380Y-120252380D02*
X153890476Y-121252380D01*
X154080952Y-120538095D01*
X154271428Y-121252380D01*
X154509523Y-120252380D01*
X154890476Y-121252380D02*
X154890476Y-120252380D01*
X155223809Y-120966666D01*
X155557142Y-120252380D01*
X155557142Y-121252380D01*
X155795238Y-121347619D02*
X156557142Y-121347619D01*
X156985714Y-120252380D02*
X157176190Y-120252380D01*
X157271428Y-120300000D01*
X157366666Y-120395238D01*
X157414285Y-120585714D01*
X157414285Y-120919047D01*
X157366666Y-121109523D01*
X157271428Y-121204761D01*
X157176190Y-121252380D01*
X156985714Y-121252380D01*
X156890476Y-121204761D01*
X156795238Y-121109523D01*
X156747619Y-120919047D01*
X156747619Y-120585714D01*
X156795238Y-120395238D01*
X156890476Y-120300000D01*
X156985714Y-120252380D01*
X157842857Y-120252380D02*
X157842857Y-121061904D01*
X157890476Y-121157142D01*
X157938095Y-121204761D01*
X158033333Y-121252380D01*
X158223809Y-121252380D01*
X158319047Y-121204761D01*
X158366666Y-121157142D01*
X158414285Y-121061904D01*
X158414285Y-120252380D01*
X158747619Y-120252380D02*
X159319047Y-120252380D01*
X159033333Y-121252380D02*
X159033333Y-120252380D01*
X182740476Y-80802380D02*
X182740476Y-79802380D01*
X182978571Y-79802380D01*
X183121428Y-79850000D01*
X183216666Y-79945238D01*
X183264285Y-80040476D01*
X183311904Y-80230952D01*
X183311904Y-80373809D01*
X183264285Y-80564285D01*
X183216666Y-80659523D01*
X183121428Y-80754761D01*
X182978571Y-80802380D01*
X182740476Y-80802380D01*
X183740476Y-80802380D02*
X183740476Y-80135714D01*
X183740476Y-79802380D02*
X183692857Y-79850000D01*
X183740476Y-79897619D01*
X183788095Y-79850000D01*
X183740476Y-79802380D01*
X183740476Y-79897619D01*
X184359523Y-80802380D02*
X184264285Y-80754761D01*
X184216666Y-80707142D01*
X184169047Y-80611904D01*
X184169047Y-80326190D01*
X184216666Y-80230952D01*
X184264285Y-80183333D01*
X184359523Y-80135714D01*
X184502380Y-80135714D01*
X184597619Y-80183333D01*
X184645238Y-80230952D01*
X184692857Y-80326190D01*
X184692857Y-80611904D01*
X184645238Y-80707142D01*
X184597619Y-80754761D01*
X184502380Y-80802380D01*
X184359523Y-80802380D01*
X185550000Y-80802380D02*
X185550000Y-79802380D01*
X185550000Y-80754761D02*
X185454761Y-80802380D01*
X185264285Y-80802380D01*
X185169047Y-80754761D01*
X185121428Y-80707142D01*
X185073809Y-80611904D01*
X185073809Y-80326190D01*
X185121428Y-80230952D01*
X185169047Y-80183333D01*
X185264285Y-80135714D01*
X185454761Y-80135714D01*
X185550000Y-80183333D01*
X186407142Y-80754761D02*
X186311904Y-80802380D01*
X186121428Y-80802380D01*
X186026190Y-80754761D01*
X185978571Y-80659523D01*
X185978571Y-80278571D01*
X186026190Y-80183333D01*
X186121428Y-80135714D01*
X186311904Y-80135714D01*
X186407142Y-80183333D01*
X186454761Y-80278571D01*
X186454761Y-80373809D01*
X185978571Y-80469047D01*
X186788095Y-79802380D02*
X187407142Y-79802380D01*
X187073809Y-80183333D01*
X187216666Y-80183333D01*
X187311904Y-80230952D01*
X187359523Y-80278571D01*
X187407142Y-80373809D01*
X187407142Y-80611904D01*
X187359523Y-80707142D01*
X187311904Y-80754761D01*
X187216666Y-80802380D01*
X186930952Y-80802380D01*
X186835714Y-80754761D01*
X186788095Y-80707142D01*
X48661904Y-73752380D02*
X48661904Y-72752380D01*
X49233333Y-73752380D01*
X49233333Y-72752380D01*
X49709523Y-73371428D02*
X50471428Y-73371428D01*
X50947619Y-73752380D02*
X50947619Y-72752380D01*
X51280952Y-73466666D01*
X51614285Y-72752380D01*
X51614285Y-73752380D01*
X52280952Y-72752380D02*
X52471428Y-72752380D01*
X52566666Y-72800000D01*
X52661904Y-72895238D01*
X52709523Y-73085714D01*
X52709523Y-73419047D01*
X52661904Y-73609523D01*
X52566666Y-73704761D01*
X52471428Y-73752380D01*
X52280952Y-73752380D01*
X52185714Y-73704761D01*
X52090476Y-73609523D01*
X52042857Y-73419047D01*
X52042857Y-73085714D01*
X52090476Y-72895238D01*
X52185714Y-72800000D01*
X52280952Y-72752380D01*
X53090476Y-73704761D02*
X53233333Y-73752380D01*
X53471428Y-73752380D01*
X53566666Y-73704761D01*
X53614285Y-73657142D01*
X53661904Y-73561904D01*
X53661904Y-73466666D01*
X53614285Y-73371428D01*
X53566666Y-73323809D01*
X53471428Y-73276190D01*
X53280952Y-73228571D01*
X53185714Y-73180952D01*
X53138095Y-73133333D01*
X53090476Y-73038095D01*
X53090476Y-72942857D01*
X53138095Y-72847619D01*
X53185714Y-72800000D01*
X53280952Y-72752380D01*
X53519047Y-72752380D01*
X53661904Y-72800000D01*
X54423809Y-73228571D02*
X54090476Y-73228571D01*
X54090476Y-73752380D02*
X54090476Y-72752380D01*
X54566666Y-72752380D01*
X54947619Y-73228571D02*
X55280952Y-73228571D01*
X55423809Y-73752380D02*
X54947619Y-73752380D01*
X54947619Y-72752380D01*
X55423809Y-72752380D01*
X55709523Y-72752380D02*
X56280952Y-72752380D01*
X55995238Y-73752380D02*
X55995238Y-72752380D01*
X167450000Y-122152380D02*
X167450000Y-121152380D01*
X167830952Y-121152380D01*
X167926190Y-121200000D01*
X167973809Y-121247619D01*
X168021428Y-121342857D01*
X168021428Y-121485714D01*
X167973809Y-121580952D01*
X167926190Y-121628571D01*
X167830952Y-121676190D01*
X167450000Y-121676190D01*
X168354761Y-121152380D02*
X168592857Y-122152380D01*
X168783333Y-121438095D01*
X168973809Y-122152380D01*
X169211904Y-121152380D01*
X169592857Y-122152380D02*
X169592857Y-121152380D01*
X169926190Y-121866666D01*
X170259523Y-121152380D01*
X170259523Y-122152380D01*
X171497619Y-122152380D02*
X171497619Y-121152380D01*
X171878571Y-121152380D01*
X171973809Y-121200000D01*
X172021428Y-121247619D01*
X172069047Y-121342857D01*
X172069047Y-121485714D01*
X172021428Y-121580952D01*
X171973809Y-121628571D01*
X171878571Y-121676190D01*
X171497619Y-121676190D01*
X172640476Y-122152380D02*
X172545238Y-122104761D01*
X172497619Y-122057142D01*
X172450000Y-121961904D01*
X172450000Y-121676190D01*
X172497619Y-121580952D01*
X172545238Y-121533333D01*
X172640476Y-121485714D01*
X172783333Y-121485714D01*
X172878571Y-121533333D01*
X172926190Y-121580952D01*
X172973809Y-121676190D01*
X172973809Y-121961904D01*
X172926190Y-122057142D01*
X172878571Y-122104761D01*
X172783333Y-122152380D01*
X172640476Y-122152380D01*
X173307142Y-121485714D02*
X173497619Y-122152380D01*
X173688095Y-121676190D01*
X173878571Y-122152380D01*
X174069047Y-121485714D01*
X174830952Y-122104761D02*
X174735714Y-122152380D01*
X174545238Y-122152380D01*
X174450000Y-122104761D01*
X174402380Y-122009523D01*
X174402380Y-121628571D01*
X174450000Y-121533333D01*
X174545238Y-121485714D01*
X174735714Y-121485714D01*
X174830952Y-121533333D01*
X174878571Y-121628571D01*
X174878571Y-121723809D01*
X174402380Y-121819047D01*
X175307142Y-122152380D02*
X175307142Y-121485714D01*
X175307142Y-121676190D02*
X175354761Y-121580952D01*
X175402380Y-121533333D01*
X175497619Y-121485714D01*
X175592857Y-121485714D01*
X132133333Y-121052380D02*
X132133333Y-120052380D01*
X132514285Y-120052380D01*
X132609523Y-120100000D01*
X132657142Y-120147619D01*
X132704761Y-120242857D01*
X132704761Y-120385714D01*
X132657142Y-120480952D01*
X132609523Y-120528571D01*
X132514285Y-120576190D01*
X132133333Y-120576190D01*
X133038095Y-120052380D02*
X133276190Y-121052380D01*
X133466666Y-120338095D01*
X133657142Y-121052380D01*
X133895238Y-120052380D01*
X134276190Y-121052380D02*
X134276190Y-120052380D01*
X134609523Y-120766666D01*
X134942857Y-120052380D01*
X134942857Y-121052380D01*
X135180952Y-121147619D02*
X135942857Y-121147619D01*
X136180952Y-121052380D02*
X136180952Y-120052380D01*
X136657142Y-120385714D02*
X136657142Y-121052380D01*
X136657142Y-120480952D02*
X136704761Y-120433333D01*
X136800000Y-120385714D01*
X136942857Y-120385714D01*
X137038095Y-120433333D01*
X137085714Y-120528571D01*
X137085714Y-121052380D01*
X137561904Y-120385714D02*
X137561904Y-121385714D01*
X137561904Y-120433333D02*
X137657142Y-120385714D01*
X137847619Y-120385714D01*
X137942857Y-120433333D01*
X137990476Y-120480952D01*
X138038095Y-120576190D01*
X138038095Y-120861904D01*
X137990476Y-120957142D01*
X137942857Y-121004761D01*
X137847619Y-121052380D01*
X137657142Y-121052380D01*
X137561904Y-121004761D01*
X138895238Y-120385714D02*
X138895238Y-121052380D01*
X138466666Y-120385714D02*
X138466666Y-120909523D01*
X138514285Y-121004761D01*
X138609523Y-121052380D01*
X138752380Y-121052380D01*
X138847619Y-121004761D01*
X138895238Y-120957142D01*
X139228571Y-120385714D02*
X139609523Y-120385714D01*
X139371428Y-120052380D02*
X139371428Y-120909523D01*
X139419047Y-121004761D01*
X139514285Y-121052380D01*
X139609523Y-121052380D01*
X37404761Y-56023809D02*
X37452380Y-55880952D01*
X37452380Y-55642857D01*
X37404761Y-55547619D01*
X37357142Y-55500000D01*
X37261904Y-55452380D01*
X37166666Y-55452380D01*
X37071428Y-55500000D01*
X37023809Y-55547619D01*
X36976190Y-55642857D01*
X36928571Y-55833333D01*
X36880952Y-55928571D01*
X36833333Y-55976190D01*
X36738095Y-56023809D01*
X36642857Y-56023809D01*
X36547619Y-55976190D01*
X36500000Y-55928571D01*
X36452380Y-55833333D01*
X36452380Y-55595238D01*
X36500000Y-55452380D01*
X37452380Y-55023809D02*
X36785714Y-55023809D01*
X36452380Y-55023809D02*
X36500000Y-55071428D01*
X36547619Y-55023809D01*
X36500000Y-54976190D01*
X36452380Y-55023809D01*
X36547619Y-55023809D01*
X36785714Y-54547619D02*
X37452380Y-54547619D01*
X36880952Y-54547619D02*
X36833333Y-54500000D01*
X36785714Y-54404761D01*
X36785714Y-54261904D01*
X36833333Y-54166666D01*
X36928571Y-54119047D01*
X37452380Y-54119047D01*
X36785714Y-53214285D02*
X37595238Y-53214285D01*
X37690476Y-53261904D01*
X37738095Y-53309523D01*
X37785714Y-53404761D01*
X37785714Y-53547619D01*
X37738095Y-53642857D01*
X37404761Y-53214285D02*
X37452380Y-53309523D01*
X37452380Y-53500000D01*
X37404761Y-53595238D01*
X37357142Y-53642857D01*
X37261904Y-53690476D01*
X36976190Y-53690476D01*
X36880952Y-53642857D01*
X36833333Y-53595238D01*
X36785714Y-53500000D01*
X36785714Y-53309523D01*
X36833333Y-53214285D01*
X37452380Y-52595238D02*
X37404761Y-52690476D01*
X37309523Y-52738095D01*
X36452380Y-52738095D01*
X37404761Y-51833333D02*
X37452380Y-51928571D01*
X37452380Y-52119047D01*
X37404761Y-52214285D01*
X37309523Y-52261904D01*
X36928571Y-52261904D01*
X36833333Y-52214285D01*
X36785714Y-52119047D01*
X36785714Y-51928571D01*
X36833333Y-51833333D01*
X36928571Y-51785714D01*
X37023809Y-51785714D01*
X37119047Y-52261904D01*
X37452380Y-50595238D02*
X36452380Y-50595238D01*
X36452380Y-50214285D01*
X36500000Y-50119047D01*
X36547619Y-50071428D01*
X36642857Y-50023809D01*
X36785714Y-50023809D01*
X36880952Y-50071428D01*
X36928571Y-50119047D01*
X36976190Y-50214285D01*
X36976190Y-50595238D01*
X37452380Y-49595238D02*
X36452380Y-49595238D01*
X37452380Y-49166666D02*
X36928571Y-49166666D01*
X36833333Y-49214285D01*
X36785714Y-49309523D01*
X36785714Y-49452380D01*
X36833333Y-49547619D01*
X36880952Y-49595238D01*
X37452380Y-48261904D02*
X36928571Y-48261904D01*
X36833333Y-48309523D01*
X36785714Y-48404761D01*
X36785714Y-48595238D01*
X36833333Y-48690476D01*
X37404761Y-48261904D02*
X37452380Y-48357142D01*
X37452380Y-48595238D01*
X37404761Y-48690476D01*
X37309523Y-48738095D01*
X37214285Y-48738095D01*
X37119047Y-48690476D01*
X37071428Y-48595238D01*
X37071428Y-48357142D01*
X37023809Y-48261904D01*
X37404761Y-47833333D02*
X37452380Y-47738095D01*
X37452380Y-47547619D01*
X37404761Y-47452380D01*
X37309523Y-47404761D01*
X37261904Y-47404761D01*
X37166666Y-47452380D01*
X37119047Y-47547619D01*
X37119047Y-47690476D01*
X37071428Y-47785714D01*
X36976190Y-47833333D01*
X36928571Y-47833333D01*
X36833333Y-47785714D01*
X36785714Y-47690476D01*
X36785714Y-47547619D01*
X36833333Y-47452380D01*
X37404761Y-46595238D02*
X37452380Y-46690476D01*
X37452380Y-46880952D01*
X37404761Y-46976190D01*
X37309523Y-47023809D01*
X36928571Y-47023809D01*
X36833333Y-46976190D01*
X36785714Y-46880952D01*
X36785714Y-46690476D01*
X36833333Y-46595238D01*
X36928571Y-46547619D01*
X37023809Y-46547619D01*
X37119047Y-47023809D01*
X37452380Y-44785714D02*
X36976190Y-45119047D01*
X37452380Y-45357142D02*
X36452380Y-45357142D01*
X36452380Y-44976190D01*
X36500000Y-44880952D01*
X36547619Y-44833333D01*
X36642857Y-44785714D01*
X36785714Y-44785714D01*
X36880952Y-44833333D01*
X36928571Y-44880952D01*
X36976190Y-44976190D01*
X36976190Y-45357142D01*
X37404761Y-43976190D02*
X37452380Y-44071428D01*
X37452380Y-44261904D01*
X37404761Y-44357142D01*
X37309523Y-44404761D01*
X36928571Y-44404761D01*
X36833333Y-44357142D01*
X36785714Y-44261904D01*
X36785714Y-44071428D01*
X36833333Y-43976190D01*
X36928571Y-43928571D01*
X37023809Y-43928571D01*
X37119047Y-44404761D01*
X37404761Y-43071428D02*
X37452380Y-43166666D01*
X37452380Y-43357142D01*
X37404761Y-43452380D01*
X37357142Y-43500000D01*
X37261904Y-43547619D01*
X36976190Y-43547619D01*
X36880952Y-43500000D01*
X36833333Y-43452380D01*
X36785714Y-43357142D01*
X36785714Y-43166666D01*
X36833333Y-43071428D01*
X36785714Y-42785714D02*
X36785714Y-42404761D01*
X36452380Y-42642857D02*
X37309523Y-42642857D01*
X37404761Y-42595238D01*
X37452380Y-42500000D01*
X37452380Y-42404761D01*
X37452380Y-42071428D02*
X36785714Y-42071428D01*
X36452380Y-42071428D02*
X36500000Y-42119047D01*
X36547619Y-42071428D01*
X36500000Y-42023809D01*
X36452380Y-42071428D01*
X36547619Y-42071428D01*
X36785714Y-41738095D02*
X36785714Y-41357142D01*
X37452380Y-41595238D02*
X36595238Y-41595238D01*
X36500000Y-41547619D01*
X36452380Y-41452380D01*
X36452380Y-41357142D01*
X37452380Y-41023809D02*
X36785714Y-41023809D01*
X36452380Y-41023809D02*
X36500000Y-41071428D01*
X36547619Y-41023809D01*
X36500000Y-40976190D01*
X36452380Y-41023809D01*
X36547619Y-41023809D01*
X37404761Y-40166666D02*
X37452380Y-40261904D01*
X37452380Y-40452380D01*
X37404761Y-40547619D01*
X37309523Y-40595238D01*
X36928571Y-40595238D01*
X36833333Y-40547619D01*
X36785714Y-40452380D01*
X36785714Y-40261904D01*
X36833333Y-40166666D01*
X36928571Y-40119047D01*
X37023809Y-40119047D01*
X37119047Y-40595238D01*
X37452380Y-39690476D02*
X36785714Y-39690476D01*
X36976190Y-39690476D02*
X36880952Y-39642857D01*
X36833333Y-39595238D01*
X36785714Y-39500000D01*
X36785714Y-39404761D01*
X36928571Y-37976190D02*
X36976190Y-37833333D01*
X37023809Y-37785714D01*
X37119047Y-37738095D01*
X37261904Y-37738095D01*
X37357142Y-37785714D01*
X37404761Y-37833333D01*
X37452380Y-37928571D01*
X37452380Y-38309523D01*
X36452380Y-38309523D01*
X36452380Y-37976190D01*
X36500000Y-37880952D01*
X36547619Y-37833333D01*
X36642857Y-37785714D01*
X36738095Y-37785714D01*
X36833333Y-37833333D01*
X36880952Y-37880952D01*
X36928571Y-37976190D01*
X36928571Y-38309523D01*
X37452380Y-37309523D02*
X36785714Y-37309523D01*
X36976190Y-37309523D02*
X36880952Y-37261904D01*
X36833333Y-37214285D01*
X36785714Y-37119047D01*
X36785714Y-37023809D01*
X37452380Y-36690476D02*
X36785714Y-36690476D01*
X36452380Y-36690476D02*
X36500000Y-36738095D01*
X36547619Y-36690476D01*
X36500000Y-36642857D01*
X36452380Y-36690476D01*
X36547619Y-36690476D01*
X37452380Y-35785714D02*
X36452380Y-35785714D01*
X37404761Y-35785714D02*
X37452380Y-35880952D01*
X37452380Y-36071428D01*
X37404761Y-36166666D01*
X37357142Y-36214285D01*
X37261904Y-36261904D01*
X36976190Y-36261904D01*
X36880952Y-36214285D01*
X36833333Y-36166666D01*
X36785714Y-36071428D01*
X36785714Y-35880952D01*
X36833333Y-35785714D01*
X36785714Y-34880952D02*
X37595238Y-34880952D01*
X37690476Y-34928571D01*
X37738095Y-34976190D01*
X37785714Y-35071428D01*
X37785714Y-35214285D01*
X37738095Y-35309523D01*
X37404761Y-34880952D02*
X37452380Y-34976190D01*
X37452380Y-35166666D01*
X37404761Y-35261904D01*
X37357142Y-35309523D01*
X37261904Y-35357142D01*
X36976190Y-35357142D01*
X36880952Y-35309523D01*
X36833333Y-35261904D01*
X36785714Y-35166666D01*
X36785714Y-34976190D01*
X36833333Y-34880952D01*
X37404761Y-34023809D02*
X37452380Y-34119047D01*
X37452380Y-34309523D01*
X37404761Y-34404761D01*
X37309523Y-34452380D01*
X36928571Y-34452380D01*
X36833333Y-34404761D01*
X36785714Y-34309523D01*
X36785714Y-34119047D01*
X36833333Y-34023809D01*
X36928571Y-33976190D01*
X37023809Y-33976190D01*
X37119047Y-34452380D01*
X150669047Y-118921428D02*
X151430952Y-118921428D01*
X177480952Y-116471428D02*
X176719047Y-116471428D01*
X234269047Y-28971428D02*
X235030952Y-28971428D01*
X217702380Y-24207142D02*
X217654761Y-24254761D01*
X217511904Y-24302380D01*
X217416666Y-24302380D01*
X217273809Y-24254761D01*
X217178571Y-24159523D01*
X217130952Y-24064285D01*
X217083333Y-23873809D01*
X217083333Y-23730952D01*
X217130952Y-23540476D01*
X217178571Y-23445238D01*
X217273809Y-23350000D01*
X217416666Y-23302380D01*
X217511904Y-23302380D01*
X217654761Y-23350000D01*
X217702380Y-23397619D01*
X218273809Y-24302380D02*
X218178571Y-24254761D01*
X218130952Y-24207142D01*
X218083333Y-24111904D01*
X218083333Y-23826190D01*
X218130952Y-23730952D01*
X218178571Y-23683333D01*
X218273809Y-23635714D01*
X218416666Y-23635714D01*
X218511904Y-23683333D01*
X218559523Y-23730952D01*
X218607142Y-23826190D01*
X218607142Y-24111904D01*
X218559523Y-24207142D01*
X218511904Y-24254761D01*
X218416666Y-24302380D01*
X218273809Y-24302380D01*
X219035714Y-23635714D02*
X219035714Y-24302380D01*
X219035714Y-23730952D02*
X219083333Y-23683333D01*
X219178571Y-23635714D01*
X219321428Y-23635714D01*
X219416666Y-23683333D01*
X219464285Y-23778571D01*
X219464285Y-24302380D01*
X219845238Y-23635714D02*
X220083333Y-24302380D01*
X220321428Y-23635714D01*
X221083333Y-24254761D02*
X220988095Y-24302380D01*
X220797619Y-24302380D01*
X220702380Y-24254761D01*
X220654761Y-24159523D01*
X220654761Y-23778571D01*
X220702380Y-23683333D01*
X220797619Y-23635714D01*
X220988095Y-23635714D01*
X221083333Y-23683333D01*
X221130952Y-23778571D01*
X221130952Y-23873809D01*
X220654761Y-23969047D01*
X221559523Y-24302380D02*
X221559523Y-23635714D01*
X221559523Y-23826190D02*
X221607142Y-23730952D01*
X221654761Y-23683333D01*
X221750000Y-23635714D01*
X221845238Y-23635714D01*
X222035714Y-23635714D02*
X222416666Y-23635714D01*
X222178571Y-23302380D02*
X222178571Y-24159523D01*
X222226190Y-24254761D01*
X222321428Y-24302380D01*
X222416666Y-24302380D01*
X223130952Y-24254761D02*
X223035714Y-24302380D01*
X222845238Y-24302380D01*
X222750000Y-24254761D01*
X222702380Y-24159523D01*
X222702380Y-23778571D01*
X222750000Y-23683333D01*
X222845238Y-23635714D01*
X223035714Y-23635714D01*
X223130952Y-23683333D01*
X223178571Y-23778571D01*
X223178571Y-23873809D01*
X222702380Y-23969047D01*
X223607142Y-24302380D02*
X223607142Y-23635714D01*
X223607142Y-23826190D02*
X223654761Y-23730952D01*
X223702380Y-23683333D01*
X223797619Y-23635714D01*
X223892857Y-23635714D01*
X223988095Y-24397619D02*
X224750000Y-24397619D01*
X225178571Y-23302380D02*
X225369047Y-23302380D01*
X225464285Y-23350000D01*
X225559523Y-23445238D01*
X225607142Y-23635714D01*
X225607142Y-23969047D01*
X225559523Y-24159523D01*
X225464285Y-24254761D01*
X225369047Y-24302380D01*
X225178571Y-24302380D01*
X225083333Y-24254761D01*
X224988095Y-24159523D01*
X224940476Y-23969047D01*
X224940476Y-23635714D01*
X224988095Y-23445238D01*
X225083333Y-23350000D01*
X225178571Y-23302380D01*
X226035714Y-23302380D02*
X226035714Y-24111904D01*
X226083333Y-24207142D01*
X226130952Y-24254761D01*
X226226190Y-24302380D01*
X226416666Y-24302380D01*
X226511904Y-24254761D01*
X226559523Y-24207142D01*
X226607142Y-24111904D01*
X226607142Y-23302380D01*
X226940476Y-23302380D02*
X227511904Y-23302380D01*
X227226190Y-24302380D02*
X227226190Y-23302380D01*
X51188095Y-108302380D02*
X51188095Y-107302380D01*
X51569047Y-107302380D01*
X51664285Y-107350000D01*
X51711904Y-107397619D01*
X51759523Y-107492857D01*
X51759523Y-107635714D01*
X51711904Y-107730952D01*
X51664285Y-107778571D01*
X51569047Y-107826190D01*
X51188095Y-107826190D01*
X52092857Y-107302380D02*
X52330952Y-108302380D01*
X52521428Y-107588095D01*
X52711904Y-108302380D01*
X52950000Y-107302380D01*
X53330952Y-108302380D02*
X53330952Y-107302380D01*
X53664285Y-108016666D01*
X53997619Y-107302380D01*
X53997619Y-108302380D01*
X54235714Y-108397619D02*
X54997619Y-108397619D01*
X55807142Y-108207142D02*
X55759523Y-108254761D01*
X55616666Y-108302380D01*
X55521428Y-108302380D01*
X55378571Y-108254761D01*
X55283333Y-108159523D01*
X55235714Y-108064285D01*
X55188095Y-107873809D01*
X55188095Y-107730952D01*
X55235714Y-107540476D01*
X55283333Y-107445238D01*
X55378571Y-107350000D01*
X55521428Y-107302380D01*
X55616666Y-107302380D01*
X55759523Y-107350000D01*
X55807142Y-107397619D01*
X56426190Y-107302380D02*
X56616666Y-107302380D01*
X56711904Y-107350000D01*
X56807142Y-107445238D01*
X56854761Y-107635714D01*
X56854761Y-107969047D01*
X56807142Y-108159523D01*
X56711904Y-108254761D01*
X56616666Y-108302380D01*
X56426190Y-108302380D01*
X56330952Y-108254761D01*
X56235714Y-108159523D01*
X56188095Y-107969047D01*
X56188095Y-107635714D01*
X56235714Y-107445238D01*
X56330952Y-107350000D01*
X56426190Y-107302380D01*
X57283333Y-108302380D02*
X57283333Y-107302380D01*
X57616666Y-108016666D01*
X57950000Y-107302380D01*
X57950000Y-108302380D01*
X58188095Y-108397619D02*
X58950000Y-108397619D01*
X59521428Y-107778571D02*
X59664285Y-107826190D01*
X59711904Y-107873809D01*
X59759523Y-107969047D01*
X59759523Y-108111904D01*
X59711904Y-108207142D01*
X59664285Y-108254761D01*
X59569047Y-108302380D01*
X59188095Y-108302380D01*
X59188095Y-107302380D01*
X59521428Y-107302380D01*
X59616666Y-107350000D01*
X59664285Y-107397619D01*
X59711904Y-107492857D01*
X59711904Y-107588095D01*
X59664285Y-107683333D01*
X59616666Y-107730952D01*
X59521428Y-107778571D01*
X59188095Y-107778571D01*
D12*
X224038292Y-115916863D02*
X224038292Y-113916863D01*
X225181149Y-115916863D01*
X225181149Y-113916863D01*
X226990673Y-115916863D02*
X226990673Y-114869244D01*
X226895435Y-114678768D01*
X226704959Y-114583530D01*
X226324006Y-114583530D01*
X226133530Y-114678768D01*
X226990673Y-115821625D02*
X226800197Y-115916863D01*
X226324006Y-115916863D01*
X226133530Y-115821625D01*
X226038292Y-115631149D01*
X226038292Y-115440673D01*
X226133530Y-115250197D01*
X226324006Y-115154959D01*
X226800197Y-115154959D01*
X226990673Y-115059721D01*
X227943054Y-115916863D02*
X227943054Y-114583530D01*
X227943054Y-114774006D02*
X228038292Y-114678768D01*
X228228768Y-114583530D01*
X228514482Y-114583530D01*
X228704959Y-114678768D01*
X228800197Y-114869244D01*
X228800197Y-115916863D01*
X228800197Y-114869244D02*
X228895435Y-114678768D01*
X229085911Y-114583530D01*
X229371625Y-114583530D01*
X229562102Y-114678768D01*
X229657340Y-114869244D01*
X229657340Y-115916863D01*
X231371625Y-115821625D02*
X231181149Y-115916863D01*
X230800197Y-115916863D01*
X230609721Y-115821625D01*
X230514482Y-115631149D01*
X230514482Y-114869244D01*
X230609721Y-114678768D01*
X230800197Y-114583530D01*
X231181149Y-114583530D01*
X231371625Y-114678768D01*
X231466863Y-114869244D01*
X231466863Y-115059721D01*
X230514482Y-115250197D01*
X232324006Y-115726387D02*
X232419244Y-115821625D01*
X232324006Y-115916863D01*
X232228768Y-115821625D01*
X232324006Y-115726387D01*
X232324006Y-115916863D01*
X232324006Y-114678768D02*
X232419244Y-114774006D01*
X232324006Y-114869244D01*
X232228768Y-114774006D01*
X232324006Y-114678768D01*
X232324006Y-114869244D01*
X234800197Y-115916863D02*
X234800197Y-113916863D01*
X235943054Y-115916863D02*
X235085911Y-114774006D01*
X235943054Y-113916863D02*
X234800197Y-115059721D01*
X237562102Y-115821625D02*
X237371625Y-115916863D01*
X236990673Y-115916863D01*
X236800197Y-115821625D01*
X236704959Y-115631149D01*
X236704959Y-114869244D01*
X236800197Y-114678768D01*
X236990673Y-114583530D01*
X237371625Y-114583530D01*
X237562102Y-114678768D01*
X237657340Y-114869244D01*
X237657340Y-115059721D01*
X236704959Y-115250197D01*
X238324006Y-115916863D02*
X239371625Y-114583530D01*
X238324006Y-114583530D02*
X239371625Y-115916863D01*
X240133530Y-115916863D02*
X240133530Y-114583530D01*
X240133530Y-113916863D02*
X240038292Y-114012102D01*
X240133530Y-114107340D01*
X240228768Y-114012102D01*
X240133530Y-113916863D01*
X240133530Y-114107340D01*
X241085911Y-114583530D02*
X241085911Y-115916863D01*
X241085911Y-114774006D02*
X241181149Y-114678768D01*
X241371625Y-114583530D01*
X241657340Y-114583530D01*
X241847816Y-114678768D01*
X241943054Y-114869244D01*
X241943054Y-115916863D01*
X244800197Y-114964482D02*
X244800197Y-115916863D01*
X244133530Y-113916863D02*
X244800197Y-114964482D01*
X245466863Y-113916863D01*
X246990673Y-114583530D02*
X246990673Y-115916863D01*
X246133530Y-114583530D02*
X246133530Y-115631149D01*
X246228768Y-115821625D01*
X246419244Y-115916863D01*
X246704959Y-115916863D01*
X246895435Y-115821625D01*
X246990673Y-115726387D01*
X224038292Y-119136863D02*
X224038292Y-117136863D01*
X224514482Y-117136863D01*
X224800197Y-117232102D01*
X224990673Y-117422578D01*
X225085911Y-117613054D01*
X225181149Y-117994006D01*
X225181149Y-118279721D01*
X225085911Y-118660673D01*
X224990673Y-118851149D01*
X224800197Y-119041625D01*
X224514482Y-119136863D01*
X224038292Y-119136863D01*
X226895435Y-119136863D02*
X226895435Y-118089244D01*
X226800197Y-117898768D01*
X226609721Y-117803530D01*
X226228768Y-117803530D01*
X226038292Y-117898768D01*
X226895435Y-119041625D02*
X226704959Y-119136863D01*
X226228768Y-119136863D01*
X226038292Y-119041625D01*
X225943054Y-118851149D01*
X225943054Y-118660673D01*
X226038292Y-118470197D01*
X226228768Y-118374959D01*
X226704959Y-118374959D01*
X226895435Y-118279721D01*
X227562102Y-117803530D02*
X228324006Y-117803530D01*
X227847816Y-117136863D02*
X227847816Y-118851149D01*
X227943054Y-119041625D01*
X228133530Y-119136863D01*
X228324006Y-119136863D01*
X229752578Y-119041625D02*
X229562102Y-119136863D01*
X229181149Y-119136863D01*
X228990673Y-119041625D01*
X228895435Y-118851149D01*
X228895435Y-118089244D01*
X228990673Y-117898768D01*
X229181149Y-117803530D01*
X229562102Y-117803530D01*
X229752578Y-117898768D01*
X229847816Y-118089244D01*
X229847816Y-118279721D01*
X228895435Y-118470197D01*
X230704959Y-118946387D02*
X230800197Y-119041625D01*
X230704959Y-119136863D01*
X230609721Y-119041625D01*
X230704959Y-118946387D01*
X230704959Y-119136863D01*
X230704959Y-117898768D02*
X230800197Y-117994006D01*
X230704959Y-118089244D01*
X230609721Y-117994006D01*
X230704959Y-117898768D01*
X230704959Y-118089244D01*
X233562102Y-117136863D02*
X233752578Y-117136863D01*
X233943054Y-117232102D01*
X234038292Y-117327340D01*
X234133530Y-117517816D01*
X234228768Y-117898768D01*
X234228768Y-118374959D01*
X234133530Y-118755911D01*
X234038292Y-118946387D01*
X233943054Y-119041625D01*
X233752578Y-119136863D01*
X233562102Y-119136863D01*
X233371625Y-119041625D01*
X233276387Y-118946387D01*
X233181149Y-118755911D01*
X233085911Y-118374959D01*
X233085911Y-117898768D01*
X233181149Y-117517816D01*
X233276387Y-117327340D01*
X233371625Y-117232102D01*
X233562102Y-117136863D01*
X235371625Y-117994006D02*
X235181149Y-117898768D01*
X235085911Y-117803530D01*
X234990673Y-117613054D01*
X234990673Y-117517816D01*
X235085911Y-117327340D01*
X235181149Y-117232102D01*
X235371625Y-117136863D01*
X235752578Y-117136863D01*
X235943054Y-117232102D01*
X236038292Y-117327340D01*
X236133530Y-117517816D01*
X236133530Y-117613054D01*
X236038292Y-117803530D01*
X235943054Y-117898768D01*
X235752578Y-117994006D01*
X235371625Y-117994006D01*
X235181149Y-118089244D01*
X235085911Y-118184482D01*
X234990673Y-118374959D01*
X234990673Y-118755911D01*
X235085911Y-118946387D01*
X235181149Y-119041625D01*
X235371625Y-119136863D01*
X235752578Y-119136863D01*
X235943054Y-119041625D01*
X236038292Y-118946387D01*
X236133530Y-118755911D01*
X236133530Y-118374959D01*
X236038292Y-118184482D01*
X235943054Y-118089244D01*
X235752578Y-117994006D01*
X238419244Y-117041625D02*
X236704959Y-119613054D01*
X239466863Y-117136863D02*
X239657340Y-117136863D01*
X239847816Y-117232102D01*
X239943054Y-117327340D01*
X240038292Y-117517816D01*
X240133530Y-117898768D01*
X240133530Y-118374959D01*
X240038292Y-118755911D01*
X239943054Y-118946387D01*
X239847816Y-119041625D01*
X239657340Y-119136863D01*
X239466863Y-119136863D01*
X239276387Y-119041625D01*
X239181149Y-118946387D01*
X239085911Y-118755911D01*
X238990673Y-118374959D01*
X238990673Y-117898768D01*
X239085911Y-117517816D01*
X239181149Y-117327340D01*
X239276387Y-117232102D01*
X239466863Y-117136863D01*
X240895435Y-117327340D02*
X240990673Y-117232102D01*
X241181149Y-117136863D01*
X241657340Y-117136863D01*
X241847816Y-117232102D01*
X241943054Y-117327340D01*
X242038292Y-117517816D01*
X242038292Y-117708292D01*
X241943054Y-117994006D01*
X240800197Y-119136863D01*
X242038292Y-119136863D01*
X244324006Y-117041625D02*
X242609721Y-119613054D01*
X244895435Y-117327340D02*
X244990673Y-117232102D01*
X245181149Y-117136863D01*
X245657340Y-117136863D01*
X245847816Y-117232102D01*
X245943054Y-117327340D01*
X246038292Y-117517816D01*
X246038292Y-117708292D01*
X245943054Y-117994006D01*
X244800197Y-119136863D01*
X246038292Y-119136863D01*
X247276387Y-117136863D02*
X247466863Y-117136863D01*
X247657340Y-117232102D01*
X247752578Y-117327340D01*
X247847816Y-117517816D01*
X247943054Y-117898768D01*
X247943054Y-118374959D01*
X247847816Y-118755911D01*
X247752578Y-118946387D01*
X247657340Y-119041625D01*
X247466863Y-119136863D01*
X247276387Y-119136863D01*
X247085911Y-119041625D01*
X246990673Y-118946387D01*
X246895435Y-118755911D01*
X246800197Y-118374959D01*
X246800197Y-117898768D01*
X246895435Y-117517816D01*
X246990673Y-117327340D01*
X247085911Y-117232102D01*
X247276387Y-117136863D01*
X248704959Y-117327340D02*
X248800197Y-117232102D01*
X248990673Y-117136863D01*
X249466863Y-117136863D01*
X249657340Y-117232102D01*
X249752578Y-117327340D01*
X249847816Y-117517816D01*
X249847816Y-117708292D01*
X249752578Y-117994006D01*
X248609721Y-119136863D01*
X249847816Y-119136863D01*
X250514482Y-117136863D02*
X251752578Y-117136863D01*
X251085911Y-117898768D01*
X251371625Y-117898768D01*
X251562102Y-117994006D01*
X251657340Y-118089244D01*
X251752578Y-118279721D01*
X251752578Y-118755911D01*
X251657340Y-118946387D01*
X251562102Y-119041625D01*
X251371625Y-119136863D01*
X250800197Y-119136863D01*
X250609721Y-119041625D01*
X250514482Y-118946387D01*
D11*
X59819047Y-26252380D02*
X60152380Y-27252380D01*
X60485714Y-26252380D01*
X60771428Y-26966666D02*
X61247619Y-26966666D01*
X60676190Y-27252380D02*
X61009523Y-26252380D01*
X61342857Y-27252380D01*
X62247619Y-27157142D02*
X62200000Y-27204761D01*
X62057142Y-27252380D01*
X61961904Y-27252380D01*
X61819047Y-27204761D01*
X61723809Y-27109523D01*
X61676190Y-27014285D01*
X61628571Y-26823809D01*
X61628571Y-26680952D01*
X61676190Y-26490476D01*
X61723809Y-26395238D01*
X61819047Y-26300000D01*
X61961904Y-26252380D01*
X62057142Y-26252380D01*
X62200000Y-26300000D01*
X62247619Y-26347619D01*
X62676190Y-26871428D02*
X63438095Y-26871428D01*
X91321428Y-92080952D02*
X91321428Y-91319047D01*
X152971428Y-111197380D02*
X152971428Y-110197380D01*
X153209523Y-110197380D01*
X153352380Y-110245000D01*
X153447619Y-110340238D01*
X153495238Y-110435476D01*
X153542857Y-110625952D01*
X153542857Y-110768809D01*
X153495238Y-110959285D01*
X153447619Y-111054523D01*
X153352380Y-111149761D01*
X153209523Y-111197380D01*
X152971428Y-111197380D01*
X153971428Y-111197380D02*
X153971428Y-110530714D01*
X153971428Y-110721190D02*
X154019047Y-110625952D01*
X154066666Y-110578333D01*
X154161904Y-110530714D01*
X154257142Y-110530714D01*
X154590476Y-111197380D02*
X154590476Y-110530714D01*
X154590476Y-110197380D02*
X154542857Y-110245000D01*
X154590476Y-110292619D01*
X154638095Y-110245000D01*
X154590476Y-110197380D01*
X154590476Y-110292619D01*
X154971428Y-110530714D02*
X155209523Y-111197380D01*
X155447619Y-110530714D01*
X156209523Y-111149761D02*
X156114285Y-111197380D01*
X155923809Y-111197380D01*
X155828571Y-111149761D01*
X155780952Y-111054523D01*
X155780952Y-110673571D01*
X155828571Y-110578333D01*
X155923809Y-110530714D01*
X156114285Y-110530714D01*
X156209523Y-110578333D01*
X156257142Y-110673571D01*
X156257142Y-110768809D01*
X155780952Y-110864047D01*
X156685714Y-111197380D02*
X156685714Y-110530714D01*
X156685714Y-110721190D02*
X156733333Y-110625952D01*
X156780952Y-110578333D01*
X156876190Y-110530714D01*
X156971428Y-110530714D01*
X228180952Y-29021428D02*
X227419047Y-29021428D01*
X227800000Y-29402380D02*
X227800000Y-28640476D01*
X135169047Y-109971428D02*
X135930952Y-109971428D01*
X183490476Y-56752380D02*
X183490476Y-55752380D01*
X183728571Y-55752380D01*
X183871428Y-55800000D01*
X183966666Y-55895238D01*
X184014285Y-55990476D01*
X184061904Y-56180952D01*
X184061904Y-56323809D01*
X184014285Y-56514285D01*
X183966666Y-56609523D01*
X183871428Y-56704761D01*
X183728571Y-56752380D01*
X183490476Y-56752380D01*
X184490476Y-56752380D02*
X184490476Y-56085714D01*
X184490476Y-55752380D02*
X184442857Y-55800000D01*
X184490476Y-55847619D01*
X184538095Y-55800000D01*
X184490476Y-55752380D01*
X184490476Y-55847619D01*
X185109523Y-56752380D02*
X185014285Y-56704761D01*
X184966666Y-56657142D01*
X184919047Y-56561904D01*
X184919047Y-56276190D01*
X184966666Y-56180952D01*
X185014285Y-56133333D01*
X185109523Y-56085714D01*
X185252380Y-56085714D01*
X185347619Y-56133333D01*
X185395238Y-56180952D01*
X185442857Y-56276190D01*
X185442857Y-56561904D01*
X185395238Y-56657142D01*
X185347619Y-56704761D01*
X185252380Y-56752380D01*
X185109523Y-56752380D01*
X186300000Y-56752380D02*
X186300000Y-55752380D01*
X186300000Y-56704761D02*
X186204761Y-56752380D01*
X186014285Y-56752380D01*
X185919047Y-56704761D01*
X185871428Y-56657142D01*
X185823809Y-56561904D01*
X185823809Y-56276190D01*
X185871428Y-56180952D01*
X185919047Y-56133333D01*
X186014285Y-56085714D01*
X186204761Y-56085714D01*
X186300000Y-56133333D01*
X187157142Y-56704761D02*
X187061904Y-56752380D01*
X186871428Y-56752380D01*
X186776190Y-56704761D01*
X186728571Y-56609523D01*
X186728571Y-56228571D01*
X186776190Y-56133333D01*
X186871428Y-56085714D01*
X187061904Y-56085714D01*
X187157142Y-56133333D01*
X187204761Y-56228571D01*
X187204761Y-56323809D01*
X186728571Y-56419047D01*
X188061904Y-56085714D02*
X188061904Y-56752380D01*
X187823809Y-55704761D02*
X187585714Y-56419047D01*
X188204761Y-56419047D01*
%TO.C,U15*%
X122807380Y-85898095D02*
X123616904Y-85898095D01*
X123712142Y-85850476D01*
X123759761Y-85802857D01*
X123807380Y-85707619D01*
X123807380Y-85517142D01*
X123759761Y-85421904D01*
X123712142Y-85374285D01*
X123616904Y-85326666D01*
X122807380Y-85326666D01*
X123807380Y-84326666D02*
X123807380Y-84898095D01*
X123807380Y-84612380D02*
X122807380Y-84612380D01*
X122950238Y-84707619D01*
X123045476Y-84802857D01*
X123093095Y-84898095D01*
X122807380Y-83421904D02*
X122807380Y-83898095D01*
X123283571Y-83945714D01*
X123235952Y-83898095D01*
X123188333Y-83802857D01*
X123188333Y-83564761D01*
X123235952Y-83469523D01*
X123283571Y-83421904D01*
X123378809Y-83374285D01*
X123616904Y-83374285D01*
X123712142Y-83421904D01*
X123759761Y-83469523D01*
X123807380Y-83564761D01*
X123807380Y-83802857D01*
X123759761Y-83898095D01*
X123712142Y-83945714D01*
X119362380Y-102519047D02*
X118362380Y-102519047D01*
X118362380Y-102138095D01*
X118410000Y-102042857D01*
X118457619Y-101995238D01*
X118552857Y-101947619D01*
X118695714Y-101947619D01*
X118790952Y-101995238D01*
X118838571Y-102042857D01*
X118886190Y-102138095D01*
X118886190Y-102519047D01*
X119362380Y-101519047D02*
X118695714Y-101519047D01*
X118886190Y-101519047D02*
X118790952Y-101471428D01*
X118743333Y-101423809D01*
X118695714Y-101328571D01*
X118695714Y-101233333D01*
X119362380Y-100900000D02*
X118695714Y-100900000D01*
X118362380Y-100900000D02*
X118410000Y-100947619D01*
X118457619Y-100900000D01*
X118410000Y-100852380D01*
X118362380Y-100900000D01*
X118457619Y-100900000D01*
X119362380Y-100423809D02*
X118695714Y-100423809D01*
X118790952Y-100423809D02*
X118743333Y-100376190D01*
X118695714Y-100280952D01*
X118695714Y-100138095D01*
X118743333Y-100042857D01*
X118838571Y-99995238D01*
X119362380Y-99995238D01*
X118838571Y-99995238D02*
X118743333Y-99947619D01*
X118695714Y-99852380D01*
X118695714Y-99709523D01*
X118743333Y-99614285D01*
X118838571Y-99566666D01*
X119362380Y-99566666D01*
X119362380Y-98661904D02*
X118838571Y-98661904D01*
X118743333Y-98709523D01*
X118695714Y-98804761D01*
X118695714Y-98995238D01*
X118743333Y-99090476D01*
X119314761Y-98661904D02*
X119362380Y-98757142D01*
X119362380Y-98995238D01*
X119314761Y-99090476D01*
X119219523Y-99138095D01*
X119124285Y-99138095D01*
X119029047Y-99090476D01*
X118981428Y-98995238D01*
X118981428Y-98757142D01*
X118933809Y-98661904D01*
X119362380Y-98185714D02*
X118695714Y-98185714D01*
X118886190Y-98185714D02*
X118790952Y-98138095D01*
X118743333Y-98090476D01*
X118695714Y-97995238D01*
X118695714Y-97900000D01*
X118695714Y-97661904D02*
X119362380Y-97423809D01*
X118695714Y-97185714D02*
X119362380Y-97423809D01*
X119600476Y-97519047D01*
X119648095Y-97566666D01*
X119695714Y-97661904D01*
X112964761Y-113702857D02*
X113012380Y-113560000D01*
X113012380Y-113321904D01*
X112964761Y-113226666D01*
X112917142Y-113179047D01*
X112821904Y-113131428D01*
X112726666Y-113131428D01*
X112631428Y-113179047D01*
X112583809Y-113226666D01*
X112536190Y-113321904D01*
X112488571Y-113512380D01*
X112440952Y-113607619D01*
X112393333Y-113655238D01*
X112298095Y-113702857D01*
X112202857Y-113702857D01*
X112107619Y-113655238D01*
X112060000Y-113607619D01*
X112012380Y-113512380D01*
X112012380Y-113274285D01*
X112060000Y-113131428D01*
X112964761Y-112321904D02*
X113012380Y-112417142D01*
X113012380Y-112607619D01*
X112964761Y-112702857D01*
X112869523Y-112750476D01*
X112488571Y-112750476D01*
X112393333Y-112702857D01*
X112345714Y-112607619D01*
X112345714Y-112417142D01*
X112393333Y-112321904D01*
X112488571Y-112274285D01*
X112583809Y-112274285D01*
X112679047Y-112750476D01*
X112964761Y-111417142D02*
X113012380Y-111512380D01*
X113012380Y-111702857D01*
X112964761Y-111798095D01*
X112917142Y-111845714D01*
X112821904Y-111893333D01*
X112536190Y-111893333D01*
X112440952Y-111845714D01*
X112393333Y-111798095D01*
X112345714Y-111702857D01*
X112345714Y-111512380D01*
X112393333Y-111417142D01*
X113012380Y-110845714D02*
X112964761Y-110940952D01*
X112917142Y-110988571D01*
X112821904Y-111036190D01*
X112536190Y-111036190D01*
X112440952Y-110988571D01*
X112393333Y-110940952D01*
X112345714Y-110845714D01*
X112345714Y-110702857D01*
X112393333Y-110607619D01*
X112440952Y-110560000D01*
X112536190Y-110512380D01*
X112821904Y-110512380D01*
X112917142Y-110560000D01*
X112964761Y-110607619D01*
X113012380Y-110702857D01*
X113012380Y-110845714D01*
X112345714Y-110083809D02*
X113012380Y-110083809D01*
X112440952Y-110083809D02*
X112393333Y-110036190D01*
X112345714Y-109940952D01*
X112345714Y-109798095D01*
X112393333Y-109702857D01*
X112488571Y-109655238D01*
X113012380Y-109655238D01*
X113012380Y-108750476D02*
X112012380Y-108750476D01*
X112964761Y-108750476D02*
X113012380Y-108845714D01*
X113012380Y-109036190D01*
X112964761Y-109131428D01*
X112917142Y-109179047D01*
X112821904Y-109226666D01*
X112536190Y-109226666D01*
X112440952Y-109179047D01*
X112393333Y-109131428D01*
X112345714Y-109036190D01*
X112345714Y-108845714D01*
X112393333Y-108750476D01*
X113012380Y-107845714D02*
X112488571Y-107845714D01*
X112393333Y-107893333D01*
X112345714Y-107988571D01*
X112345714Y-108179047D01*
X112393333Y-108274285D01*
X112964761Y-107845714D02*
X113012380Y-107940952D01*
X113012380Y-108179047D01*
X112964761Y-108274285D01*
X112869523Y-108321904D01*
X112774285Y-108321904D01*
X112679047Y-108274285D01*
X112631428Y-108179047D01*
X112631428Y-107940952D01*
X112583809Y-107845714D01*
X113012380Y-107369523D02*
X112345714Y-107369523D01*
X112536190Y-107369523D02*
X112440952Y-107321904D01*
X112393333Y-107274285D01*
X112345714Y-107179047D01*
X112345714Y-107083809D01*
X112345714Y-106845714D02*
X113012380Y-106607619D01*
X112345714Y-106369523D02*
X113012380Y-106607619D01*
X113250476Y-106702857D01*
X113298095Y-106750476D01*
X113345714Y-106845714D01*
X112964761Y-93382857D02*
X113012380Y-93240000D01*
X113012380Y-93001904D01*
X112964761Y-92906666D01*
X112917142Y-92859047D01*
X112821904Y-92811428D01*
X112726666Y-92811428D01*
X112631428Y-92859047D01*
X112583809Y-92906666D01*
X112536190Y-93001904D01*
X112488571Y-93192380D01*
X112440952Y-93287619D01*
X112393333Y-93335238D01*
X112298095Y-93382857D01*
X112202857Y-93382857D01*
X112107619Y-93335238D01*
X112060000Y-93287619D01*
X112012380Y-93192380D01*
X112012380Y-92954285D01*
X112060000Y-92811428D01*
X112964761Y-92001904D02*
X113012380Y-92097142D01*
X113012380Y-92287619D01*
X112964761Y-92382857D01*
X112869523Y-92430476D01*
X112488571Y-92430476D01*
X112393333Y-92382857D01*
X112345714Y-92287619D01*
X112345714Y-92097142D01*
X112393333Y-92001904D01*
X112488571Y-91954285D01*
X112583809Y-91954285D01*
X112679047Y-92430476D01*
X112964761Y-91097142D02*
X113012380Y-91192380D01*
X113012380Y-91382857D01*
X112964761Y-91478095D01*
X112917142Y-91525714D01*
X112821904Y-91573333D01*
X112536190Y-91573333D01*
X112440952Y-91525714D01*
X112393333Y-91478095D01*
X112345714Y-91382857D01*
X112345714Y-91192380D01*
X112393333Y-91097142D01*
X113012380Y-90525714D02*
X112964761Y-90620952D01*
X112917142Y-90668571D01*
X112821904Y-90716190D01*
X112536190Y-90716190D01*
X112440952Y-90668571D01*
X112393333Y-90620952D01*
X112345714Y-90525714D01*
X112345714Y-90382857D01*
X112393333Y-90287619D01*
X112440952Y-90240000D01*
X112536190Y-90192380D01*
X112821904Y-90192380D01*
X112917142Y-90240000D01*
X112964761Y-90287619D01*
X113012380Y-90382857D01*
X113012380Y-90525714D01*
X112345714Y-89763809D02*
X113012380Y-89763809D01*
X112440952Y-89763809D02*
X112393333Y-89716190D01*
X112345714Y-89620952D01*
X112345714Y-89478095D01*
X112393333Y-89382857D01*
X112488571Y-89335238D01*
X113012380Y-89335238D01*
X113012380Y-88430476D02*
X112012380Y-88430476D01*
X112964761Y-88430476D02*
X113012380Y-88525714D01*
X113012380Y-88716190D01*
X112964761Y-88811428D01*
X112917142Y-88859047D01*
X112821904Y-88906666D01*
X112536190Y-88906666D01*
X112440952Y-88859047D01*
X112393333Y-88811428D01*
X112345714Y-88716190D01*
X112345714Y-88525714D01*
X112393333Y-88430476D01*
X113012380Y-87525714D02*
X112488571Y-87525714D01*
X112393333Y-87573333D01*
X112345714Y-87668571D01*
X112345714Y-87859047D01*
X112393333Y-87954285D01*
X112964761Y-87525714D02*
X113012380Y-87620952D01*
X113012380Y-87859047D01*
X112964761Y-87954285D01*
X112869523Y-88001904D01*
X112774285Y-88001904D01*
X112679047Y-87954285D01*
X112631428Y-87859047D01*
X112631428Y-87620952D01*
X112583809Y-87525714D01*
X113012380Y-87049523D02*
X112345714Y-87049523D01*
X112536190Y-87049523D02*
X112440952Y-87001904D01*
X112393333Y-86954285D01*
X112345714Y-86859047D01*
X112345714Y-86763809D01*
X112345714Y-86525714D02*
X113012380Y-86287619D01*
X112345714Y-86049523D02*
X113012380Y-86287619D01*
X113250476Y-86382857D01*
X113298095Y-86430476D01*
X113345714Y-86525714D01*
%TO.C,U26*%
X112061904Y-23512380D02*
X112061904Y-24321904D01*
X112109523Y-24417142D01*
X112157142Y-24464761D01*
X112252380Y-24512380D01*
X112442857Y-24512380D01*
X112538095Y-24464761D01*
X112585714Y-24417142D01*
X112633333Y-24321904D01*
X112633333Y-23512380D01*
X113061904Y-23607619D02*
X113109523Y-23560000D01*
X113204761Y-23512380D01*
X113442857Y-23512380D01*
X113538095Y-23560000D01*
X113585714Y-23607619D01*
X113633333Y-23702857D01*
X113633333Y-23798095D01*
X113585714Y-23940952D01*
X113014285Y-24512380D01*
X113633333Y-24512380D01*
X114490476Y-23512380D02*
X114300000Y-23512380D01*
X114204761Y-23560000D01*
X114157142Y-23607619D01*
X114061904Y-23750476D01*
X114014285Y-23940952D01*
X114014285Y-24321904D01*
X114061904Y-24417142D01*
X114109523Y-24464761D01*
X114204761Y-24512380D01*
X114395238Y-24512380D01*
X114490476Y-24464761D01*
X114538095Y-24417142D01*
X114585714Y-24321904D01*
X114585714Y-24083809D01*
X114538095Y-23988571D01*
X114490476Y-23940952D01*
X114395238Y-23893333D01*
X114204761Y-23893333D01*
X114109523Y-23940952D01*
X114061904Y-23988571D01*
X114014285Y-24083809D01*
D13*
X138327142Y-52404285D02*
X141327142Y-50404285D01*
X138327142Y-50404285D02*
X141327142Y-52404285D01*
X141327142Y-49261428D02*
X138327142Y-49261428D01*
X140470000Y-48261428D01*
X138327142Y-47261428D01*
X141327142Y-47261428D01*
X141327142Y-44118571D02*
X139898571Y-45118571D01*
X141327142Y-45832857D02*
X138327142Y-45832857D01*
X138327142Y-44690000D01*
X138470000Y-44404285D01*
X138612857Y-44261428D01*
X138898571Y-44118571D01*
X139327142Y-44118571D01*
X139612857Y-44261428D01*
X139755714Y-44404285D01*
X139898571Y-44690000D01*
X139898571Y-45832857D01*
D11*
%TO.C,U28*%
X47092104Y-102856980D02*
X47092104Y-103666504D01*
X47139723Y-103761742D01*
X47187342Y-103809361D01*
X47282580Y-103856980D01*
X47473057Y-103856980D01*
X47568295Y-103809361D01*
X47615914Y-103761742D01*
X47663533Y-103666504D01*
X47663533Y-102856980D01*
X48092104Y-102952219D02*
X48139723Y-102904600D01*
X48234961Y-102856980D01*
X48473057Y-102856980D01*
X48568295Y-102904600D01*
X48615914Y-102952219D01*
X48663533Y-103047457D01*
X48663533Y-103142695D01*
X48615914Y-103285552D01*
X48044485Y-103856980D01*
X48663533Y-103856980D01*
X49234961Y-103285552D02*
X49139723Y-103237933D01*
X49092104Y-103190314D01*
X49044485Y-103095076D01*
X49044485Y-103047457D01*
X49092104Y-102952219D01*
X49139723Y-102904600D01*
X49234961Y-102856980D01*
X49425438Y-102856980D01*
X49520676Y-102904600D01*
X49568295Y-102952219D01*
X49615914Y-103047457D01*
X49615914Y-103095076D01*
X49568295Y-103190314D01*
X49520676Y-103237933D01*
X49425438Y-103285552D01*
X49234961Y-103285552D01*
X49139723Y-103333171D01*
X49092104Y-103380790D01*
X49044485Y-103476028D01*
X49044485Y-103666504D01*
X49092104Y-103761742D01*
X49139723Y-103809361D01*
X49234961Y-103856980D01*
X49425438Y-103856980D01*
X49520676Y-103809361D01*
X49568295Y-103761742D01*
X49615914Y-103666504D01*
X49615914Y-103476028D01*
X49568295Y-103380790D01*
X49520676Y-103333171D01*
X49425438Y-103285552D01*
%TO.C,U45*%
X221011904Y-34252380D02*
X221011904Y-35061904D01*
X221059523Y-35157142D01*
X221107142Y-35204761D01*
X221202380Y-35252380D01*
X221392857Y-35252380D01*
X221488095Y-35204761D01*
X221535714Y-35157142D01*
X221583333Y-35061904D01*
X221583333Y-34252380D01*
X222488095Y-34585714D02*
X222488095Y-35252380D01*
X222250000Y-34204761D02*
X222011904Y-34919047D01*
X222630952Y-34919047D01*
X223488095Y-34252380D02*
X223011904Y-34252380D01*
X222964285Y-34728571D01*
X223011904Y-34680952D01*
X223107142Y-34633333D01*
X223345238Y-34633333D01*
X223440476Y-34680952D01*
X223488095Y-34728571D01*
X223535714Y-34823809D01*
X223535714Y-35061904D01*
X223488095Y-35157142D01*
X223440476Y-35204761D01*
X223345238Y-35252380D01*
X223107142Y-35252380D01*
X223011904Y-35204761D01*
X222964285Y-35157142D01*
%TO.C,U41*%
X170061904Y-109902380D02*
X170061904Y-110711904D01*
X170109523Y-110807142D01*
X170157142Y-110854761D01*
X170252380Y-110902380D01*
X170442857Y-110902380D01*
X170538095Y-110854761D01*
X170585714Y-110807142D01*
X170633333Y-110711904D01*
X170633333Y-109902380D01*
X171538095Y-110235714D02*
X171538095Y-110902380D01*
X171300000Y-109854761D02*
X171061904Y-110569047D01*
X171680952Y-110569047D01*
X172585714Y-110902380D02*
X172014285Y-110902380D01*
X172300000Y-110902380D02*
X172300000Y-109902380D01*
X172204761Y-110045238D01*
X172109523Y-110140476D01*
X172014285Y-110188095D01*
%TO.C,U3*%
X80358895Y-104684580D02*
X80358895Y-105494104D01*
X80406514Y-105589342D01*
X80454133Y-105636961D01*
X80549371Y-105684580D01*
X80739847Y-105684580D01*
X80835085Y-105636961D01*
X80882704Y-105589342D01*
X80930323Y-105494104D01*
X80930323Y-104684580D01*
X81311276Y-104684580D02*
X81930323Y-104684580D01*
X81596990Y-105065533D01*
X81739847Y-105065533D01*
X81835085Y-105113152D01*
X81882704Y-105160771D01*
X81930323Y-105256009D01*
X81930323Y-105494104D01*
X81882704Y-105589342D01*
X81835085Y-105636961D01*
X81739847Y-105684580D01*
X81454133Y-105684580D01*
X81358895Y-105636961D01*
X81311276Y-105589342D01*
%TO.C,U33*%
X184421904Y-46704380D02*
X184421904Y-47513904D01*
X184469523Y-47609142D01*
X184517142Y-47656761D01*
X184612380Y-47704380D01*
X184802857Y-47704380D01*
X184898095Y-47656761D01*
X184945714Y-47609142D01*
X184993333Y-47513904D01*
X184993333Y-46704380D01*
X185374285Y-46704380D02*
X185993333Y-46704380D01*
X185660000Y-47085333D01*
X185802857Y-47085333D01*
X185898095Y-47132952D01*
X185945714Y-47180571D01*
X185993333Y-47275809D01*
X185993333Y-47513904D01*
X185945714Y-47609142D01*
X185898095Y-47656761D01*
X185802857Y-47704380D01*
X185517142Y-47704380D01*
X185421904Y-47656761D01*
X185374285Y-47609142D01*
X186326666Y-46704380D02*
X186945714Y-46704380D01*
X186612380Y-47085333D01*
X186755238Y-47085333D01*
X186850476Y-47132952D01*
X186898095Y-47180571D01*
X186945714Y-47275809D01*
X186945714Y-47513904D01*
X186898095Y-47609142D01*
X186850476Y-47656761D01*
X186755238Y-47704380D01*
X186469523Y-47704380D01*
X186374285Y-47656761D01*
X186326666Y-47609142D01*
%TO.C,U34*%
X203941904Y-46022380D02*
X203941904Y-46831904D01*
X203989523Y-46927142D01*
X204037142Y-46974761D01*
X204132380Y-47022380D01*
X204322857Y-47022380D01*
X204418095Y-46974761D01*
X204465714Y-46927142D01*
X204513333Y-46831904D01*
X204513333Y-46022380D01*
X204894285Y-46022380D02*
X205513333Y-46022380D01*
X205180000Y-46403333D01*
X205322857Y-46403333D01*
X205418095Y-46450952D01*
X205465714Y-46498571D01*
X205513333Y-46593809D01*
X205513333Y-46831904D01*
X205465714Y-46927142D01*
X205418095Y-46974761D01*
X205322857Y-47022380D01*
X205037142Y-47022380D01*
X204941904Y-46974761D01*
X204894285Y-46927142D01*
X206370476Y-46355714D02*
X206370476Y-47022380D01*
X206132380Y-45974761D02*
X205894285Y-46689047D01*
X206513333Y-46689047D01*
D13*
X223888571Y-72057142D02*
X222460000Y-72057142D01*
X222460000Y-69057142D01*
D11*
%TO.C,U24*%
X79961904Y-90382380D02*
X79961904Y-91191904D01*
X80009523Y-91287142D01*
X80057142Y-91334761D01*
X80152380Y-91382380D01*
X80342857Y-91382380D01*
X80438095Y-91334761D01*
X80485714Y-91287142D01*
X80533333Y-91191904D01*
X80533333Y-90382380D01*
X80961904Y-90477619D02*
X81009523Y-90430000D01*
X81104761Y-90382380D01*
X81342857Y-90382380D01*
X81438095Y-90430000D01*
X81485714Y-90477619D01*
X81533333Y-90572857D01*
X81533333Y-90668095D01*
X81485714Y-90810952D01*
X80914285Y-91382380D01*
X81533333Y-91382380D01*
X82390476Y-90715714D02*
X82390476Y-91382380D01*
X82152380Y-90334761D02*
X81914285Y-91049047D01*
X82533333Y-91049047D01*
%TO.C,U5*%
X154048095Y-97822380D02*
X154048095Y-98631904D01*
X154095714Y-98727142D01*
X154143333Y-98774761D01*
X154238571Y-98822380D01*
X154429047Y-98822380D01*
X154524285Y-98774761D01*
X154571904Y-98727142D01*
X154619523Y-98631904D01*
X154619523Y-97822380D01*
X155571904Y-97822380D02*
X155095714Y-97822380D01*
X155048095Y-98298571D01*
X155095714Y-98250952D01*
X155190952Y-98203333D01*
X155429047Y-98203333D01*
X155524285Y-98250952D01*
X155571904Y-98298571D01*
X155619523Y-98393809D01*
X155619523Y-98631904D01*
X155571904Y-98727142D01*
X155524285Y-98774761D01*
X155429047Y-98822380D01*
X155190952Y-98822380D01*
X155095714Y-98774761D01*
X155048095Y-98727142D01*
%TO.C,U40*%
X202032612Y-35502380D02*
X202032612Y-36311904D01*
X202080231Y-36407142D01*
X202127850Y-36454761D01*
X202223088Y-36502380D01*
X202413565Y-36502380D01*
X202508803Y-36454761D01*
X202556422Y-36407142D01*
X202604041Y-36311904D01*
X202604041Y-35502380D01*
X203508803Y-35835714D02*
X203508803Y-36502380D01*
X203270708Y-35454761D02*
X203032612Y-36169047D01*
X203651660Y-36169047D01*
X204223088Y-35502380D02*
X204318327Y-35502380D01*
X204413565Y-35550000D01*
X204461184Y-35597619D01*
X204508803Y-35692857D01*
X204556422Y-35883333D01*
X204556422Y-36121428D01*
X204508803Y-36311904D01*
X204461184Y-36407142D01*
X204413565Y-36454761D01*
X204318327Y-36502380D01*
X204223088Y-36502380D01*
X204127850Y-36454761D01*
X204080231Y-36407142D01*
X204032612Y-36311904D01*
X203984993Y-36121428D01*
X203984993Y-35883333D01*
X204032612Y-35692857D01*
X204080231Y-35597619D01*
X204127850Y-35550000D01*
X204223088Y-35502380D01*
%TO.C,U11*%
X57147380Y-44780875D02*
X57956904Y-44780875D01*
X58052142Y-44733256D01*
X58099761Y-44685637D01*
X58147380Y-44590399D01*
X58147380Y-44399922D01*
X58099761Y-44304684D01*
X58052142Y-44257065D01*
X57956904Y-44209446D01*
X57147380Y-44209446D01*
X58147380Y-43209446D02*
X58147380Y-43780875D01*
X58147380Y-43495160D02*
X57147380Y-43495160D01*
X57290238Y-43590399D01*
X57385476Y-43685637D01*
X57433095Y-43780875D01*
X58147380Y-42257065D02*
X58147380Y-42828494D01*
X58147380Y-42542780D02*
X57147380Y-42542780D01*
X57290238Y-42638018D01*
X57385476Y-42733256D01*
X57433095Y-42828494D01*
%TO.C,U39*%
X134611904Y-87452380D02*
X134611904Y-88261904D01*
X134659523Y-88357142D01*
X134707142Y-88404761D01*
X134802380Y-88452380D01*
X134992857Y-88452380D01*
X135088095Y-88404761D01*
X135135714Y-88357142D01*
X135183333Y-88261904D01*
X135183333Y-87452380D01*
X135564285Y-87452380D02*
X136183333Y-87452380D01*
X135850000Y-87833333D01*
X135992857Y-87833333D01*
X136088095Y-87880952D01*
X136135714Y-87928571D01*
X136183333Y-88023809D01*
X136183333Y-88261904D01*
X136135714Y-88357142D01*
X136088095Y-88404761D01*
X135992857Y-88452380D01*
X135707142Y-88452380D01*
X135611904Y-88404761D01*
X135564285Y-88357142D01*
X136659523Y-88452380D02*
X136850000Y-88452380D01*
X136945238Y-88404761D01*
X136992857Y-88357142D01*
X137088095Y-88214285D01*
X137135714Y-88023809D01*
X137135714Y-87642857D01*
X137088095Y-87547619D01*
X137040476Y-87500000D01*
X136945238Y-87452380D01*
X136754761Y-87452380D01*
X136659523Y-87500000D01*
X136611904Y-87547619D01*
X136564285Y-87642857D01*
X136564285Y-87880952D01*
X136611904Y-87976190D01*
X136659523Y-88023809D01*
X136754761Y-88071428D01*
X136945238Y-88071428D01*
X137040476Y-88023809D01*
X137088095Y-87976190D01*
X137135714Y-87880952D01*
%TO.C,U31*%
X183461904Y-70953880D02*
X183461904Y-71763404D01*
X183509523Y-71858642D01*
X183557142Y-71906261D01*
X183652380Y-71953880D01*
X183842857Y-71953880D01*
X183938095Y-71906261D01*
X183985714Y-71858642D01*
X184033333Y-71763404D01*
X184033333Y-70953880D01*
X184414285Y-70953880D02*
X185033333Y-70953880D01*
X184700000Y-71334833D01*
X184842857Y-71334833D01*
X184938095Y-71382452D01*
X184985714Y-71430071D01*
X185033333Y-71525309D01*
X185033333Y-71763404D01*
X184985714Y-71858642D01*
X184938095Y-71906261D01*
X184842857Y-71953880D01*
X184557142Y-71953880D01*
X184461904Y-71906261D01*
X184414285Y-71858642D01*
X185985714Y-71953880D02*
X185414285Y-71953880D01*
X185700000Y-71953880D02*
X185700000Y-70953880D01*
X185604761Y-71096738D01*
X185509523Y-71191976D01*
X185414285Y-71239595D01*
%TO.C,U25*%
X47061904Y-90982380D02*
X47061904Y-91791904D01*
X47109523Y-91887142D01*
X47157142Y-91934761D01*
X47252380Y-91982380D01*
X47442857Y-91982380D01*
X47538095Y-91934761D01*
X47585714Y-91887142D01*
X47633333Y-91791904D01*
X47633333Y-90982380D01*
X48061904Y-91077619D02*
X48109523Y-91030000D01*
X48204761Y-90982380D01*
X48442857Y-90982380D01*
X48538095Y-91030000D01*
X48585714Y-91077619D01*
X48633333Y-91172857D01*
X48633333Y-91268095D01*
X48585714Y-91410952D01*
X48014285Y-91982380D01*
X48633333Y-91982380D01*
X49538095Y-90982380D02*
X49061904Y-90982380D01*
X49014285Y-91458571D01*
X49061904Y-91410952D01*
X49157142Y-91363333D01*
X49395238Y-91363333D01*
X49490476Y-91410952D01*
X49538095Y-91458571D01*
X49585714Y-91553809D01*
X49585714Y-91791904D01*
X49538095Y-91887142D01*
X49490476Y-91934761D01*
X49395238Y-91982380D01*
X49157142Y-91982380D01*
X49061904Y-91934761D01*
X49014285Y-91887142D01*
%TO.C,U21*%
X93072380Y-99338095D02*
X93881904Y-99338095D01*
X93977142Y-99290476D01*
X94024761Y-99242857D01*
X94072380Y-99147619D01*
X94072380Y-98957142D01*
X94024761Y-98861904D01*
X93977142Y-98814285D01*
X93881904Y-98766666D01*
X93072380Y-98766666D01*
X93167619Y-98338095D02*
X93120000Y-98290476D01*
X93072380Y-98195238D01*
X93072380Y-97957142D01*
X93120000Y-97861904D01*
X93167619Y-97814285D01*
X93262857Y-97766666D01*
X93358095Y-97766666D01*
X93500952Y-97814285D01*
X94072380Y-98385714D01*
X94072380Y-97766666D01*
X94072380Y-96814285D02*
X94072380Y-97385714D01*
X94072380Y-97100000D02*
X93072380Y-97100000D01*
X93215238Y-97195238D01*
X93310476Y-97290476D01*
X93358095Y-97385714D01*
X93752380Y-94551904D02*
X92752380Y-94551904D01*
X93752380Y-93980476D02*
X93180952Y-94409047D01*
X92752380Y-93980476D02*
X93323809Y-94551904D01*
%TO.C,U12*%
X80439180Y-44628475D02*
X81248704Y-44628475D01*
X81343942Y-44580856D01*
X81391561Y-44533237D01*
X81439180Y-44437999D01*
X81439180Y-44247522D01*
X81391561Y-44152284D01*
X81343942Y-44104665D01*
X81248704Y-44057046D01*
X80439180Y-44057046D01*
X81439180Y-43057046D02*
X81439180Y-43628475D01*
X81439180Y-43342760D02*
X80439180Y-43342760D01*
X80582038Y-43437999D01*
X80677276Y-43533237D01*
X80724895Y-43628475D01*
X80534419Y-42676094D02*
X80486800Y-42628475D01*
X80439180Y-42533237D01*
X80439180Y-42295141D01*
X80486800Y-42199903D01*
X80534419Y-42152284D01*
X80629657Y-42104665D01*
X80724895Y-42104665D01*
X80867752Y-42152284D01*
X81439180Y-42723713D01*
X81439180Y-42104665D01*
%TO.C,U36*%
X189411904Y-35102380D02*
X189411904Y-35911904D01*
X189459523Y-36007142D01*
X189507142Y-36054761D01*
X189602380Y-36102380D01*
X189792857Y-36102380D01*
X189888095Y-36054761D01*
X189935714Y-36007142D01*
X189983333Y-35911904D01*
X189983333Y-35102380D01*
X190364285Y-35102380D02*
X190983333Y-35102380D01*
X190650000Y-35483333D01*
X190792857Y-35483333D01*
X190888095Y-35530952D01*
X190935714Y-35578571D01*
X190983333Y-35673809D01*
X190983333Y-35911904D01*
X190935714Y-36007142D01*
X190888095Y-36054761D01*
X190792857Y-36102380D01*
X190507142Y-36102380D01*
X190411904Y-36054761D01*
X190364285Y-36007142D01*
X191840476Y-35102380D02*
X191650000Y-35102380D01*
X191554761Y-35150000D01*
X191507142Y-35197619D01*
X191411904Y-35340476D01*
X191364285Y-35530952D01*
X191364285Y-35911904D01*
X191411904Y-36007142D01*
X191459523Y-36054761D01*
X191554761Y-36102380D01*
X191745238Y-36102380D01*
X191840476Y-36054761D01*
X191888095Y-36007142D01*
X191935714Y-35911904D01*
X191935714Y-35673809D01*
X191888095Y-35578571D01*
X191840476Y-35530952D01*
X191745238Y-35483333D01*
X191554761Y-35483333D01*
X191459523Y-35530952D01*
X191411904Y-35578571D01*
X191364285Y-35673809D01*
%TO.C,U7*%
X47491295Y-105344980D02*
X47491295Y-106154504D01*
X47538914Y-106249742D01*
X47586533Y-106297361D01*
X47681771Y-106344980D01*
X47872247Y-106344980D01*
X47967485Y-106297361D01*
X48015104Y-106249742D01*
X48062723Y-106154504D01*
X48062723Y-105344980D01*
X48443676Y-105344980D02*
X49110342Y-105344980D01*
X48681771Y-106344980D01*
%TO.C,U38*%
X176811904Y-35402380D02*
X176811904Y-36211904D01*
X176859523Y-36307142D01*
X176907142Y-36354761D01*
X177002380Y-36402380D01*
X177192857Y-36402380D01*
X177288095Y-36354761D01*
X177335714Y-36307142D01*
X177383333Y-36211904D01*
X177383333Y-35402380D01*
X177764285Y-35402380D02*
X178383333Y-35402380D01*
X178050000Y-35783333D01*
X178192857Y-35783333D01*
X178288095Y-35830952D01*
X178335714Y-35878571D01*
X178383333Y-35973809D01*
X178383333Y-36211904D01*
X178335714Y-36307142D01*
X178288095Y-36354761D01*
X178192857Y-36402380D01*
X177907142Y-36402380D01*
X177811904Y-36354761D01*
X177764285Y-36307142D01*
X178954761Y-35830952D02*
X178859523Y-35783333D01*
X178811904Y-35735714D01*
X178764285Y-35640476D01*
X178764285Y-35592857D01*
X178811904Y-35497619D01*
X178859523Y-35450000D01*
X178954761Y-35402380D01*
X179145238Y-35402380D01*
X179240476Y-35450000D01*
X179288095Y-35497619D01*
X179335714Y-35592857D01*
X179335714Y-35640476D01*
X179288095Y-35735714D01*
X179240476Y-35783333D01*
X179145238Y-35830952D01*
X178954761Y-35830952D01*
X178859523Y-35878571D01*
X178811904Y-35926190D01*
X178764285Y-36021428D01*
X178764285Y-36211904D01*
X178811904Y-36307142D01*
X178859523Y-36354761D01*
X178954761Y-36402380D01*
X179145238Y-36402380D01*
X179240476Y-36354761D01*
X179288095Y-36307142D01*
X179335714Y-36211904D01*
X179335714Y-36021428D01*
X179288095Y-35926190D01*
X179240476Y-35878571D01*
X179145238Y-35830952D01*
%TO.C,U14*%
X154461904Y-89152380D02*
X154461904Y-89961904D01*
X154509523Y-90057142D01*
X154557142Y-90104761D01*
X154652380Y-90152380D01*
X154842857Y-90152380D01*
X154938095Y-90104761D01*
X154985714Y-90057142D01*
X155033333Y-89961904D01*
X155033333Y-89152380D01*
X156033333Y-90152380D02*
X155461904Y-90152380D01*
X155747619Y-90152380D02*
X155747619Y-89152380D01*
X155652380Y-89295238D01*
X155557142Y-89390476D01*
X155461904Y-89438095D01*
X156890476Y-89485714D02*
X156890476Y-90152380D01*
X156652380Y-89104761D02*
X156414285Y-89819047D01*
X157033333Y-89819047D01*
%TO.C,U16*%
X50978304Y-81909780D02*
X50978304Y-82719304D01*
X51025923Y-82814542D01*
X51073542Y-82862161D01*
X51168780Y-82909780D01*
X51359257Y-82909780D01*
X51454495Y-82862161D01*
X51502114Y-82814542D01*
X51549733Y-82719304D01*
X51549733Y-81909780D01*
X52549733Y-82909780D02*
X51978304Y-82909780D01*
X52264019Y-82909780D02*
X52264019Y-81909780D01*
X52168780Y-82052638D01*
X52073542Y-82147876D01*
X51978304Y-82195495D01*
X53406876Y-81909780D02*
X53216400Y-81909780D01*
X53121161Y-81957400D01*
X53073542Y-82005019D01*
X52978304Y-82147876D01*
X52930685Y-82338352D01*
X52930685Y-82719304D01*
X52978304Y-82814542D01*
X53025923Y-82862161D01*
X53121161Y-82909780D01*
X53311638Y-82909780D01*
X53406876Y-82862161D01*
X53454495Y-82814542D01*
X53502114Y-82719304D01*
X53502114Y-82481209D01*
X53454495Y-82385971D01*
X53406876Y-82338352D01*
X53311638Y-82290733D01*
X53121161Y-82290733D01*
X53025923Y-82338352D01*
X52978304Y-82385971D01*
X52930685Y-82481209D01*
%TO.C,U44*%
X239311904Y-34252380D02*
X239311904Y-35061904D01*
X239359523Y-35157142D01*
X239407142Y-35204761D01*
X239502380Y-35252380D01*
X239692857Y-35252380D01*
X239788095Y-35204761D01*
X239835714Y-35157142D01*
X239883333Y-35061904D01*
X239883333Y-34252380D01*
X240788095Y-34585714D02*
X240788095Y-35252380D01*
X240550000Y-34204761D02*
X240311904Y-34919047D01*
X240930952Y-34919047D01*
X241740476Y-34585714D02*
X241740476Y-35252380D01*
X241502380Y-34204761D02*
X241264285Y-34919047D01*
X241883333Y-34919047D01*
%TO.C,U43*%
X59711904Y-28902380D02*
X59711904Y-29711904D01*
X59759523Y-29807142D01*
X59807142Y-29854761D01*
X59902380Y-29902380D01*
X60092857Y-29902380D01*
X60188095Y-29854761D01*
X60235714Y-29807142D01*
X60283333Y-29711904D01*
X60283333Y-28902380D01*
X61188095Y-29235714D02*
X61188095Y-29902380D01*
X60950000Y-28854761D02*
X60711904Y-29569047D01*
X61330952Y-29569047D01*
X61616666Y-28902380D02*
X62235714Y-28902380D01*
X61902380Y-29283333D01*
X62045238Y-29283333D01*
X62140476Y-29330952D01*
X62188095Y-29378571D01*
X62235714Y-29473809D01*
X62235714Y-29711904D01*
X62188095Y-29807142D01*
X62140476Y-29854761D01*
X62045238Y-29902380D01*
X61759523Y-29902380D01*
X61664285Y-29854761D01*
X61616666Y-29807142D01*
%TO.C,U22*%
X60545180Y-99300895D02*
X61354704Y-99300895D01*
X61449942Y-99253276D01*
X61497561Y-99205657D01*
X61545180Y-99110419D01*
X61545180Y-98919942D01*
X61497561Y-98824704D01*
X61449942Y-98777085D01*
X61354704Y-98729466D01*
X60545180Y-98729466D01*
X60640419Y-98300895D02*
X60592800Y-98253276D01*
X60545180Y-98158038D01*
X60545180Y-97919942D01*
X60592800Y-97824704D01*
X60640419Y-97777085D01*
X60735657Y-97729466D01*
X60830895Y-97729466D01*
X60973752Y-97777085D01*
X61545180Y-98348514D01*
X61545180Y-97729466D01*
X60640419Y-97348514D02*
X60592800Y-97300895D01*
X60545180Y-97205657D01*
X60545180Y-96967561D01*
X60592800Y-96872323D01*
X60640419Y-96824704D01*
X60735657Y-96777085D01*
X60830895Y-96777085D01*
X60973752Y-96824704D01*
X61545180Y-97396133D01*
X61545180Y-96777085D01*
X61225180Y-94514704D02*
X60225180Y-94514704D01*
X61225180Y-93943276D02*
X60653752Y-94371847D01*
X60225180Y-93943276D02*
X60796609Y-94514704D01*
%TO.C,U37*%
X134711904Y-96352380D02*
X134711904Y-97161904D01*
X134759523Y-97257142D01*
X134807142Y-97304761D01*
X134902380Y-97352380D01*
X135092857Y-97352380D01*
X135188095Y-97304761D01*
X135235714Y-97257142D01*
X135283333Y-97161904D01*
X135283333Y-96352380D01*
X135664285Y-96352380D02*
X136283333Y-96352380D01*
X135950000Y-96733333D01*
X136092857Y-96733333D01*
X136188095Y-96780952D01*
X136235714Y-96828571D01*
X136283333Y-96923809D01*
X136283333Y-97161904D01*
X136235714Y-97257142D01*
X136188095Y-97304761D01*
X136092857Y-97352380D01*
X135807142Y-97352380D01*
X135711904Y-97304761D01*
X135664285Y-97257142D01*
X136616666Y-96352380D02*
X137283333Y-96352380D01*
X136854761Y-97352380D01*
%TO.C,U1*%
X153638095Y-116202380D02*
X153638095Y-117011904D01*
X153685714Y-117107142D01*
X153733333Y-117154761D01*
X153828571Y-117202380D01*
X154019047Y-117202380D01*
X154114285Y-117154761D01*
X154161904Y-117107142D01*
X154209523Y-117011904D01*
X154209523Y-116202380D01*
X155209523Y-117202380D02*
X154638095Y-117202380D01*
X154923809Y-117202380D02*
X154923809Y-116202380D01*
X154828571Y-116345238D01*
X154733333Y-116440476D01*
X154638095Y-116488095D01*
%TO.C,U42*%
X142711904Y-108902380D02*
X142711904Y-109711904D01*
X142759523Y-109807142D01*
X142807142Y-109854761D01*
X142902380Y-109902380D01*
X143092857Y-109902380D01*
X143188095Y-109854761D01*
X143235714Y-109807142D01*
X143283333Y-109711904D01*
X143283333Y-108902380D01*
X144188095Y-109235714D02*
X144188095Y-109902380D01*
X143950000Y-108854761D02*
X143711904Y-109569047D01*
X144330952Y-109569047D01*
X144664285Y-108997619D02*
X144711904Y-108950000D01*
X144807142Y-108902380D01*
X145045238Y-108902380D01*
X145140476Y-108950000D01*
X145188095Y-108997619D01*
X145235714Y-109092857D01*
X145235714Y-109188095D01*
X145188095Y-109330952D01*
X144616666Y-109902380D01*
X145235714Y-109902380D01*
%TO.C,U23*%
X47921904Y-54718380D02*
X47921904Y-55527904D01*
X47969523Y-55623142D01*
X48017142Y-55670761D01*
X48112380Y-55718380D01*
X48302857Y-55718380D01*
X48398095Y-55670761D01*
X48445714Y-55623142D01*
X48493333Y-55527904D01*
X48493333Y-54718380D01*
X48921904Y-54813619D02*
X48969523Y-54766000D01*
X49064761Y-54718380D01*
X49302857Y-54718380D01*
X49398095Y-54766000D01*
X49445714Y-54813619D01*
X49493333Y-54908857D01*
X49493333Y-55004095D01*
X49445714Y-55146952D01*
X48874285Y-55718380D01*
X49493333Y-55718380D01*
X49826666Y-54718380D02*
X50445714Y-54718380D01*
X50112380Y-55099333D01*
X50255238Y-55099333D01*
X50350476Y-55146952D01*
X50398095Y-55194571D01*
X50445714Y-55289809D01*
X50445714Y-55527904D01*
X50398095Y-55623142D01*
X50350476Y-55670761D01*
X50255238Y-55718380D01*
X49969523Y-55718380D01*
X49874285Y-55670761D01*
X49826666Y-55623142D01*
%TO.C,U6*%
X54902380Y-39061904D02*
X55711904Y-39061904D01*
X55807142Y-39014285D01*
X55854761Y-38966666D01*
X55902380Y-38871428D01*
X55902380Y-38680952D01*
X55854761Y-38585714D01*
X55807142Y-38538095D01*
X55711904Y-38490476D01*
X54902380Y-38490476D01*
X54902380Y-37585714D02*
X54902380Y-37776190D01*
X54950000Y-37871428D01*
X54997619Y-37919047D01*
X55140476Y-38014285D01*
X55330952Y-38061904D01*
X55711904Y-38061904D01*
X55807142Y-38014285D01*
X55854761Y-37966666D01*
X55902380Y-37871428D01*
X55902380Y-37680952D01*
X55854761Y-37585714D01*
X55807142Y-37538095D01*
X55711904Y-37490476D01*
X55473809Y-37490476D01*
X55378571Y-37538095D01*
X55330952Y-37585714D01*
X55283333Y-37680952D01*
X55283333Y-37871428D01*
X55330952Y-37966666D01*
X55378571Y-38014285D01*
X55473809Y-38061904D01*
%TO.C,U27*%
X79861904Y-101922380D02*
X79861904Y-102731904D01*
X79909523Y-102827142D01*
X79957142Y-102874761D01*
X80052380Y-102922380D01*
X80242857Y-102922380D01*
X80338095Y-102874761D01*
X80385714Y-102827142D01*
X80433333Y-102731904D01*
X80433333Y-101922380D01*
X80861904Y-102017619D02*
X80909523Y-101970000D01*
X81004761Y-101922380D01*
X81242857Y-101922380D01*
X81338095Y-101970000D01*
X81385714Y-102017619D01*
X81433333Y-102112857D01*
X81433333Y-102208095D01*
X81385714Y-102350952D01*
X80814285Y-102922380D01*
X81433333Y-102922380D01*
X81766666Y-101922380D02*
X82433333Y-101922380D01*
X82004761Y-102922380D01*
%TO.C,U17*%
X88221904Y-54268380D02*
X88221904Y-55077904D01*
X88269523Y-55173142D01*
X88317142Y-55220761D01*
X88412380Y-55268380D01*
X88602857Y-55268380D01*
X88698095Y-55220761D01*
X88745714Y-55173142D01*
X88793333Y-55077904D01*
X88793333Y-54268380D01*
X89793333Y-55268380D02*
X89221904Y-55268380D01*
X89507619Y-55268380D02*
X89507619Y-54268380D01*
X89412380Y-54411238D01*
X89317142Y-54506476D01*
X89221904Y-54554095D01*
X90126666Y-54268380D02*
X90793333Y-54268380D01*
X90364761Y-55268380D01*
%TO.C,U20*%
X85171904Y-81190380D02*
X85171904Y-81999904D01*
X85219523Y-82095142D01*
X85267142Y-82142761D01*
X85362380Y-82190380D01*
X85552857Y-82190380D01*
X85648095Y-82142761D01*
X85695714Y-82095142D01*
X85743333Y-81999904D01*
X85743333Y-81190380D01*
X86171904Y-81285619D02*
X86219523Y-81238000D01*
X86314761Y-81190380D01*
X86552857Y-81190380D01*
X86648095Y-81238000D01*
X86695714Y-81285619D01*
X86743333Y-81380857D01*
X86743333Y-81476095D01*
X86695714Y-81618952D01*
X86124285Y-82190380D01*
X86743333Y-82190380D01*
X87362380Y-81190380D02*
X87457619Y-81190380D01*
X87552857Y-81238000D01*
X87600476Y-81285619D01*
X87648095Y-81380857D01*
X87695714Y-81571333D01*
X87695714Y-81809428D01*
X87648095Y-81999904D01*
X87600476Y-82095142D01*
X87552857Y-82142761D01*
X87457619Y-82190380D01*
X87362380Y-82190380D01*
X87267142Y-82142761D01*
X87219523Y-82095142D01*
X87171904Y-81999904D01*
X87124285Y-81809428D01*
X87124285Y-81571333D01*
X87171904Y-81380857D01*
X87219523Y-81285619D01*
X87267142Y-81238000D01*
X87362380Y-81190380D01*
%TO.C,U9*%
X91772895Y-27083380D02*
X91772895Y-27892904D01*
X91820514Y-27988142D01*
X91868133Y-28035761D01*
X91963371Y-28083380D01*
X92153847Y-28083380D01*
X92249085Y-28035761D01*
X92296704Y-27988142D01*
X92344323Y-27892904D01*
X92344323Y-27083380D01*
X92868133Y-28083380D02*
X93058609Y-28083380D01*
X93153847Y-28035761D01*
X93201466Y-27988142D01*
X93296704Y-27845285D01*
X93344323Y-27654809D01*
X93344323Y-27273857D01*
X93296704Y-27178619D01*
X93249085Y-27131000D01*
X93153847Y-27083380D01*
X92963371Y-27083380D01*
X92868133Y-27131000D01*
X92820514Y-27178619D01*
X92772895Y-27273857D01*
X92772895Y-27511952D01*
X92820514Y-27607190D01*
X92868133Y-27654809D01*
X92963371Y-27702428D01*
X93153847Y-27702428D01*
X93249085Y-27654809D01*
X93296704Y-27607190D01*
X93344323Y-27511952D01*
%TO.C,U18*%
X97612704Y-90781380D02*
X97612704Y-91590904D01*
X97660323Y-91686142D01*
X97707942Y-91733761D01*
X97803180Y-91781380D01*
X97993657Y-91781380D01*
X98088895Y-91733761D01*
X98136514Y-91686142D01*
X98184133Y-91590904D01*
X98184133Y-90781380D01*
X99184133Y-91781380D02*
X98612704Y-91781380D01*
X98898419Y-91781380D02*
X98898419Y-90781380D01*
X98803180Y-90924238D01*
X98707942Y-91019476D01*
X98612704Y-91067095D01*
X99755561Y-91209952D02*
X99660323Y-91162333D01*
X99612704Y-91114714D01*
X99565085Y-91019476D01*
X99565085Y-90971857D01*
X99612704Y-90876619D01*
X99660323Y-90829000D01*
X99755561Y-90781380D01*
X99946038Y-90781380D01*
X100041276Y-90829000D01*
X100088895Y-90876619D01*
X100136514Y-90971857D01*
X100136514Y-91019476D01*
X100088895Y-91114714D01*
X100041276Y-91162333D01*
X99946038Y-91209952D01*
X99755561Y-91209952D01*
X99660323Y-91257571D01*
X99612704Y-91305190D01*
X99565085Y-91400428D01*
X99565085Y-91590904D01*
X99612704Y-91686142D01*
X99660323Y-91733761D01*
X99755561Y-91781380D01*
X99946038Y-91781380D01*
X100041276Y-91733761D01*
X100088895Y-91686142D01*
X100136514Y-91590904D01*
X100136514Y-91400428D01*
X100088895Y-91305190D01*
X100041276Y-91257571D01*
X99946038Y-91209952D01*
%TO.C,U19*%
X66761904Y-95052380D02*
X66761904Y-95861904D01*
X66809523Y-95957142D01*
X66857142Y-96004761D01*
X66952380Y-96052380D01*
X67142857Y-96052380D01*
X67238095Y-96004761D01*
X67285714Y-95957142D01*
X67333333Y-95861904D01*
X67333333Y-95052380D01*
X68333333Y-96052380D02*
X67761904Y-96052380D01*
X68047619Y-96052380D02*
X68047619Y-95052380D01*
X67952380Y-95195238D01*
X67857142Y-95290476D01*
X67761904Y-95338095D01*
X68809523Y-96052380D02*
X69000000Y-96052380D01*
X69095238Y-96004761D01*
X69142857Y-95957142D01*
X69238095Y-95814285D01*
X69285714Y-95623809D01*
X69285714Y-95242857D01*
X69238095Y-95147619D01*
X69190476Y-95100000D01*
X69095238Y-95052380D01*
X68904761Y-95052380D01*
X68809523Y-95100000D01*
X68761904Y-95147619D01*
X68714285Y-95242857D01*
X68714285Y-95480952D01*
X68761904Y-95576190D01*
X68809523Y-95623809D01*
X68904761Y-95671428D01*
X69095238Y-95671428D01*
X69190476Y-95623809D01*
X69238095Y-95576190D01*
X69285714Y-95480952D01*
%TO.C,U15*%
X120180000Y-102440000D02*
X120180000Y-115775000D01*
X104940000Y-117680000D02*
X104940000Y-82120000D01*
X110020000Y-115140000D02*
X109385000Y-115140000D01*
X120180000Y-97360000D02*
X120180000Y-84025000D01*
X107480000Y-79580000D02*
X122720000Y-79580000D01*
X115100000Y-115140000D02*
X115735000Y-115140000D01*
X115100000Y-84660000D02*
X115735000Y-84660000D01*
X122720000Y-120220000D02*
X107480000Y-120220000D01*
X110020000Y-84660000D02*
X109385000Y-84660000D01*
X125260000Y-82120000D02*
X125260000Y-117680000D01*
X104940000Y-117680000D02*
G75*
G03*
X107480000Y-120220000I2540000J0D01*
G01*
X120180000Y-102440000D02*
G75*
G03*
X120180000Y-101170000I0J635000D01*
G01*
X120180000Y-99900000D02*
G75*
G03*
X120180000Y-98630000I0J635000D01*
G01*
X120180000Y-101170000D02*
G75*
G03*
X120180000Y-99900000I0J635000D01*
G01*
X112560000Y-84660000D02*
G75*
G03*
X113830000Y-84660000I635000J0D01*
G01*
X115100000Y-115140000D02*
G75*
G03*
X113830000Y-115140000I-635000J0D01*
G01*
X120180000Y-98630000D02*
G75*
G03*
X120180000Y-97360000I0J635000D01*
G01*
X112560000Y-115140000D02*
G75*
G03*
X111290000Y-115140000I-635000J0D01*
G01*
X111290000Y-84660000D02*
G75*
G03*
X112560000Y-84660000I635000J0D01*
G01*
X110020000Y-84660000D02*
G75*
G03*
X111290000Y-84660000I635000J0D01*
G01*
X125260000Y-82120000D02*
G75*
G03*
X122720000Y-79580000I-2540000J0D01*
G01*
X107480000Y-79580000D02*
G75*
G03*
X104940000Y-82120000I0J-2540000D01*
G01*
X113830000Y-84660000D02*
G75*
G03*
X115100000Y-84660000I635000J0D01*
G01*
X122720000Y-120220000D02*
G75*
G03*
X125260000Y-117680000I0J2540000D01*
G01*
X113830000Y-115140000D02*
G75*
G03*
X112560000Y-115140000I-635000J0D01*
G01*
X111290000Y-115140000D02*
G75*
G03*
X110020000Y-115140000I-635000J0D01*
G01*
%TO.C,U26*%
X109490000Y-26600000D02*
X109490000Y-69780000D01*
X166640000Y-22790000D02*
X113300000Y-22790000D01*
X112030000Y-30410000D02*
X112030000Y-25330000D01*
D14*
X123460000Y-32950000D02*
X123460000Y-30410000D01*
D11*
X167910000Y-25330000D02*
X167910000Y-30410000D01*
X167910000Y-71050000D02*
X162830000Y-71050000D01*
D14*
X145050000Y-31680000D02*
X145050000Y-64700000D01*
X123460000Y-63430000D02*
X123460000Y-65970000D01*
D11*
X117110000Y-65970000D02*
X117110000Y-71050000D01*
X167910000Y-30410000D02*
X162830000Y-30410000D01*
D14*
X134890000Y-31680000D02*
X134890000Y-64700000D01*
D11*
X162830000Y-71050000D02*
X162830000Y-65970000D01*
X170450000Y-69780000D02*
X170450000Y-26600000D01*
X112030000Y-25330000D02*
X117110000Y-25330000D01*
X162830000Y-65970000D02*
X167910000Y-65970000D01*
D14*
X156480000Y-63430000D02*
X156480000Y-65970000D01*
D11*
X162830000Y-25330000D02*
X167910000Y-25330000D01*
X112030000Y-65970000D02*
X117110000Y-65970000D01*
X113300000Y-73590000D02*
X166640000Y-73590000D01*
X117110000Y-25330000D02*
X117110000Y-30410000D01*
X162830000Y-30410000D02*
X162830000Y-25330000D01*
X112030000Y-71050000D02*
X112030000Y-65970000D01*
X117110000Y-30410000D02*
X112030000Y-30410000D01*
X167910000Y-65970000D02*
X167910000Y-71050000D01*
X117110000Y-71050000D02*
X112030000Y-71050000D01*
D14*
X156480000Y-32950000D02*
X156480000Y-30410000D01*
D11*
X109490000Y-69780000D02*
G75*
G03*
X113300000Y-73590000I3809999J-1D01*
G01*
D14*
X123460000Y-63430000D02*
G75*
G03*
X123460000Y-55810000I0J3810000D01*
G01*
D11*
X113300000Y-22790000D02*
G75*
G03*
X109490000Y-26600000I-1J-3809999D01*
G01*
X166640000Y-73590000D02*
G75*
G03*
X170450000Y-69780000I0J3810000D01*
G01*
D14*
X156480000Y-32950000D02*
G75*
G03*
X156480000Y-40570000I0J-3810000D01*
G01*
X156480000Y-40570000D02*
G75*
G03*
X156480000Y-48190000I0J-3810000D01*
G01*
X123460000Y-55810000D02*
G75*
G03*
X123460000Y-48190000I0J3810000D01*
G01*
X123460000Y-40570000D02*
G75*
G03*
X123460000Y-32950000I0J3810000D01*
G01*
D11*
X170450000Y-26600000D02*
G75*
G03*
X166640000Y-22790000I-3810000J0D01*
G01*
D14*
X123460000Y-48190000D02*
G75*
G03*
X123460000Y-40570000I0J3810000D01*
G01*
X156480000Y-48190000D02*
G75*
G03*
X156480000Y-55810000I0J-3810000D01*
G01*
X156480000Y-55810000D02*
G75*
G03*
X156480000Y-63430000I0J-3810000D01*
G01*
D15*
%TO.C,U28*%
X51600200Y-99664600D02*
X45060200Y-99664600D01*
X45060200Y-102404600D02*
X51600200Y-102404600D01*
X52370200Y-101034600D02*
X51600200Y-101034600D01*
X45060200Y-99664600D02*
X45060200Y-102404600D01*
X51600200Y-102404600D02*
X51600200Y-99664600D01*
X44290200Y-101034600D02*
X45060200Y-101034600D01*
D11*
%TO.C,U45*%
X217100000Y-33850000D02*
X217100000Y-24850000D01*
X227100000Y-25850000D02*
X217100000Y-25850000D01*
X217100000Y-24850000D02*
X227100000Y-24850000D01*
X227100000Y-24850000D02*
X227100000Y-33850000D01*
X227100000Y-33850000D02*
X217100000Y-33850000D01*
X225100000Y-32350000D02*
G75*
G03*
X225100000Y-32350000I-500000J0D01*
G01*
X220100000Y-32350000D02*
G75*
G03*
X220100000Y-32350000I-500000J0D01*
G01*
%TO.C,U41*%
X176200000Y-111500000D02*
X176200000Y-120500000D01*
X166200000Y-119500000D02*
X176200000Y-119500000D01*
X166200000Y-111500000D02*
X176200000Y-111500000D01*
X166200000Y-120500000D02*
X166200000Y-111500000D01*
X176200000Y-120500000D02*
X166200000Y-120500000D01*
X169200000Y-113000000D02*
G75*
G03*
X169200000Y-113000000I-500000J0D01*
G01*
X174200000Y-113000000D02*
G75*
G03*
X174200000Y-113000000I-500000J0D01*
G01*
%TO.C,U3*%
X78790800Y-106832200D02*
X79290800Y-106332200D01*
X83390800Y-106832200D02*
X83390800Y-107632200D01*
X83390800Y-107632200D02*
X82890800Y-108132200D01*
X79290800Y-106332200D02*
X82890800Y-106332200D01*
X78790800Y-107632200D02*
X78790800Y-106832200D01*
X79290800Y-108132200D02*
X78790800Y-107632200D01*
X82890800Y-106332200D02*
X83390800Y-106832200D01*
X82890800Y-108132200D02*
X79290800Y-108132200D01*
D15*
%TO.C,U33*%
X190780000Y-52920000D02*
X180540000Y-52920000D01*
X190780000Y-55206000D02*
X190780000Y-50565000D01*
X190780000Y-48279000D02*
X180540000Y-48279000D01*
X180540000Y-52920000D02*
X180540000Y-48279000D01*
X187510000Y-52920000D02*
X187510000Y-51410000D01*
X183809000Y-52920000D02*
X183809000Y-51410000D01*
X190780000Y-51410000D02*
X180540000Y-51410000D01*
X190780000Y-52920000D02*
X190780000Y-48279000D01*
X190780000Y-53696000D02*
X180540000Y-53696000D01*
X180540000Y-55206000D02*
X180540000Y-50565000D01*
X190780000Y-55206000D02*
X180540000Y-55206000D01*
D11*
%TO.C,U34*%
X259790000Y-93560000D02*
X254710000Y-93560000D01*
X254710000Y-52920000D02*
X254710000Y-47840000D01*
X203910000Y-93560000D02*
X203910000Y-88480000D01*
X203910000Y-52920000D02*
X203910000Y-47840000D01*
X205180000Y-96100000D02*
X258520000Y-96100000D01*
X254710000Y-47840000D02*
X259790000Y-47840000D01*
X259790000Y-47840000D02*
X259790000Y-52920000D01*
X208990000Y-88480000D02*
X208990000Y-93560000D01*
X259790000Y-52920000D02*
X254710000Y-52920000D01*
X262330000Y-92290000D02*
X262330000Y-49110000D01*
X254710000Y-93560000D02*
X254710000Y-88480000D01*
X259790000Y-88480000D02*
X259790000Y-93560000D01*
D14*
X215340000Y-55460000D02*
X215340000Y-52920000D01*
D11*
X208990000Y-47840000D02*
X208990000Y-52920000D01*
X208990000Y-52920000D02*
X203910000Y-52920000D01*
D14*
X215340000Y-85940000D02*
X215340000Y-88480000D01*
D11*
X201370000Y-49110000D02*
X201370000Y-92290000D01*
X203910000Y-88480000D02*
X208990000Y-88480000D01*
X258520000Y-45300000D02*
X205180000Y-45300000D01*
X203910000Y-47840000D02*
X208990000Y-47840000D01*
X208990000Y-93560000D02*
X203910000Y-93560000D01*
X254710000Y-88480000D02*
X259790000Y-88480000D01*
D14*
X215340000Y-78320000D02*
G75*
G03*
X215340000Y-70700000I0J3810000D01*
G01*
D11*
X205180000Y-45300000D02*
G75*
G03*
X201370000Y-49110000I-1J-3809999D01*
G01*
D14*
X215340000Y-70700000D02*
G75*
G03*
X215340000Y-63080000I0J3810000D01*
G01*
D11*
X201370000Y-92290000D02*
G75*
G03*
X205180000Y-96100000I3809999J-1D01*
G01*
X262330000Y-49110000D02*
G75*
G03*
X258520000Y-45300000I-3810000J0D01*
G01*
D14*
X215340000Y-63080000D02*
G75*
G03*
X215340000Y-55460000I0J3810000D01*
G01*
X215340000Y-85940000D02*
G75*
G03*
X215340000Y-78320000I0J3810000D01*
G01*
D11*
X258520000Y-96100000D02*
G75*
G03*
X262330000Y-92290000I0J3810000D01*
G01*
D15*
%TO.C,U24*%
X84470000Y-91930000D02*
X77930000Y-91930000D01*
X77930000Y-94670000D02*
X84470000Y-94670000D01*
X77930000Y-91930000D02*
X77930000Y-94670000D01*
X84470000Y-94670000D02*
X84470000Y-91930000D01*
X77160000Y-93300000D02*
X77930000Y-93300000D01*
X85240000Y-93300000D02*
X84470000Y-93300000D01*
%TO.C,U5*%
X152560000Y-109650000D02*
X157060000Y-109650000D01*
X157060000Y-109650000D02*
X157060000Y-99370000D01*
X152560000Y-99370000D02*
X152560000Y-109650000D01*
X149560000Y-109710000D02*
X160060000Y-109710000D01*
X157060000Y-99370000D02*
X155810000Y-99370000D01*
X153810000Y-99370000D02*
X152560000Y-99370000D01*
X149560000Y-99310000D02*
X149560000Y-109710000D01*
X160060000Y-109710000D02*
X160060000Y-99310000D01*
X160060000Y-99310000D02*
X149560000Y-99310000D01*
X153810000Y-99370000D02*
G75*
G03*
X155810000Y-99370000I1000000J0D01*
G01*
%TO.C,U40*%
X201829708Y-27160000D02*
X201829708Y-24926000D01*
X200149708Y-33820000D02*
X200149708Y-25780000D01*
X199349708Y-33054000D02*
X199349708Y-26546000D01*
X201469708Y-34554000D02*
X201469708Y-30840000D01*
X199189708Y-32854000D02*
X199189708Y-26746000D01*
X199429708Y-33147000D02*
X199429708Y-26453000D01*
X201989708Y-34718000D02*
X201989708Y-30840000D01*
X202469708Y-28760000D02*
X202469708Y-24782000D01*
X200069708Y-33757000D02*
X200069708Y-25843000D01*
X198989708Y-32570000D02*
X198989708Y-27030000D01*
X199869708Y-33589000D02*
X199869708Y-26011000D01*
X199589708Y-33320000D02*
X199589708Y-26280000D01*
X202670708Y-34845000D02*
X202670708Y-30840000D01*
X202710708Y-28760000D02*
X202710708Y-24750000D01*
X198589708Y-31837000D02*
X198589708Y-27763000D01*
X199989708Y-33692000D02*
X199989708Y-25908000D01*
X202389708Y-34804000D02*
X202389708Y-30840000D01*
X203190708Y-34880000D02*
X203190708Y-24720000D01*
X201789708Y-34662000D02*
X201789708Y-30840000D01*
X198509708Y-31646000D02*
X198509708Y-27954000D01*
X200789708Y-34240000D02*
X200789708Y-29240000D01*
X200029708Y-33725000D02*
X200029708Y-25875000D01*
X202630708Y-34840000D02*
X202630708Y-30840000D01*
X198389708Y-31310000D02*
X198389708Y-28290000D01*
X201869708Y-34685000D02*
X201869708Y-30840000D01*
X200309708Y-33938000D02*
X200309708Y-29240000D01*
X200269708Y-33910000D02*
X200269708Y-25690000D01*
X200349708Y-33966000D02*
X200349708Y-29240000D01*
X200869708Y-34283000D02*
X200869708Y-29240000D01*
X201349708Y-34507000D02*
X201349708Y-30840000D01*
X200349708Y-27160000D02*
X200349708Y-25634000D01*
X200749708Y-27160000D02*
X200749708Y-25383000D01*
X201909708Y-34697000D02*
X201909708Y-30840000D01*
X198669708Y-32009000D02*
X198669708Y-27591000D01*
X202309708Y-27160000D02*
X202309708Y-24810000D01*
X201069708Y-34384000D02*
X201069708Y-30840000D01*
X201149708Y-34421000D02*
X201149708Y-30840000D01*
X199229708Y-32906000D02*
X199229708Y-26694000D01*
X198429708Y-31430000D02*
X198429708Y-28170000D01*
X199709708Y-33440000D02*
X199709708Y-26160000D01*
X200989708Y-34345000D02*
X200989708Y-30840000D01*
X203110708Y-34878000D02*
X203110708Y-24722000D01*
X201269708Y-34474000D02*
X201269708Y-30840000D01*
X202549708Y-34830000D02*
X202549708Y-30840000D01*
X199149708Y-32800000D02*
X199149708Y-26800000D01*
X201029708Y-34364000D02*
X201029708Y-30840000D01*
X200909708Y-27160000D02*
X200909708Y-25296000D01*
X202149708Y-34756000D02*
X202149708Y-30840000D01*
X200229708Y-33880000D02*
X200229708Y-25720000D01*
X202830708Y-28760000D02*
X202830708Y-24738000D01*
X200309708Y-27160000D02*
X200309708Y-25662000D01*
X201389708Y-27160000D02*
X201389708Y-25077000D01*
X200469708Y-27160000D02*
X200469708Y-25553000D01*
X202990708Y-28760000D02*
X202990708Y-24727000D01*
X201589708Y-34597000D02*
X201589708Y-30840000D01*
X200629708Y-34147000D02*
X200629708Y-29240000D01*
X200949708Y-27160000D02*
X200949708Y-25275000D01*
X202710708Y-34850000D02*
X202710708Y-30840000D01*
X198749708Y-32165000D02*
X198749708Y-27435000D01*
X202830708Y-34862000D02*
X202830708Y-30840000D01*
X199309708Y-33006000D02*
X199309708Y-26594000D01*
X201709708Y-34637000D02*
X201709708Y-30840000D01*
X198829708Y-32310000D02*
X198829708Y-27290000D01*
X202910708Y-34868000D02*
X202910708Y-30840000D01*
X198309708Y-31030000D02*
X198309708Y-28570000D01*
X198789708Y-32239000D02*
X198789708Y-27361000D01*
X200829708Y-34262000D02*
X200829708Y-29240000D01*
X200949708Y-34325000D02*
X200949708Y-29240000D01*
X201749708Y-34650000D02*
X201749708Y-30840000D01*
X201469708Y-27160000D02*
X201469708Y-25046000D01*
X202950708Y-28760000D02*
X202950708Y-24730000D01*
X199469708Y-33192000D02*
X199469708Y-26408000D01*
X201109708Y-34403000D02*
X201109708Y-30840000D01*
X202509708Y-28760000D02*
X202509708Y-24776000D01*
X198229708Y-30662000D02*
X198229708Y-28938000D01*
X201309708Y-27160000D02*
X201309708Y-25110000D01*
X198709708Y-32089000D02*
X198709708Y-27511000D01*
X201829708Y-34674000D02*
X201829708Y-30840000D01*
X198469708Y-31542000D02*
X198469708Y-28058000D01*
X200469708Y-34047000D02*
X200469708Y-29240000D01*
X199509708Y-33236000D02*
X199509708Y-26364000D01*
X202069708Y-27160000D02*
X202069708Y-24862000D01*
X198549708Y-31744000D02*
X198549708Y-27856000D01*
X201909708Y-27160000D02*
X201909708Y-24903000D01*
X200789708Y-27160000D02*
X200789708Y-25360000D01*
X202790708Y-28760000D02*
X202790708Y-24742000D01*
X200549708Y-27160000D02*
X200549708Y-25502000D01*
X198349708Y-31178000D02*
X198349708Y-28422000D01*
X201309708Y-34490000D02*
X201309708Y-30840000D01*
X199669708Y-33401000D02*
X199669708Y-26199000D01*
X201189708Y-34439000D02*
X201189708Y-30840000D01*
X200429708Y-27160000D02*
X200429708Y-25579000D01*
X201949708Y-34707000D02*
X201949708Y-30840000D01*
X202349708Y-27160000D02*
X202349708Y-24803000D01*
X202509708Y-34824000D02*
X202509708Y-30840000D01*
X202429708Y-34811000D02*
X202429708Y-30840000D01*
X202950708Y-34870000D02*
X202950708Y-30840000D01*
X201069708Y-27160000D02*
X201069708Y-25216000D01*
X201709708Y-27160000D02*
X201709708Y-24963000D01*
X200709708Y-27160000D02*
X200709708Y-25405000D01*
X199069708Y-32689000D02*
X199069708Y-26911000D01*
X201429708Y-34538000D02*
X201429708Y-30840000D01*
X200389708Y-33994000D02*
X200389708Y-29240000D01*
X201629708Y-34611000D02*
X201629708Y-30840000D01*
X203270708Y-34880000D02*
X203270708Y-24720000D01*
X200189708Y-33850000D02*
X200189708Y-25750000D01*
X199549708Y-33278000D02*
X199549708Y-26322000D01*
X200829708Y-27160000D02*
X200829708Y-25338000D01*
X202750708Y-34854000D02*
X202750708Y-30840000D01*
X208750354Y-32675000D02*
X207750354Y-32675000D01*
X198629708Y-31925000D02*
X198629708Y-27675000D01*
X202189708Y-34765000D02*
X202189708Y-30840000D01*
X199789708Y-33516000D02*
X199789708Y-26084000D01*
X203030708Y-28760000D02*
X203030708Y-24725000D01*
X201509708Y-27160000D02*
X201509708Y-25032000D01*
X199949708Y-33658000D02*
X199949708Y-25942000D01*
X201189708Y-27160000D02*
X201189708Y-25161000D01*
X202109708Y-34747000D02*
X202109708Y-30840000D01*
X199029708Y-32630000D02*
X199029708Y-26970000D01*
X200389708Y-27160000D02*
X200389708Y-25606000D01*
X202670708Y-28760000D02*
X202670708Y-24755000D01*
X198949708Y-32509000D02*
X198949708Y-27091000D01*
X201669708Y-27160000D02*
X201669708Y-24976000D01*
X200509708Y-27160000D02*
X200509708Y-25527000D01*
X199749708Y-33479000D02*
X199749708Y-26121000D01*
X199829708Y-33553000D02*
X199829708Y-26047000D01*
X202189708Y-27160000D02*
X202189708Y-24835000D01*
X200869708Y-27160000D02*
X200869708Y-25317000D01*
X201749708Y-27160000D02*
X201749708Y-24950000D01*
X202029708Y-34728000D02*
X202029708Y-30840000D01*
X201549708Y-34583000D02*
X201549708Y-30840000D01*
X200709708Y-34195000D02*
X200709708Y-29240000D01*
X203230708Y-34880000D02*
X203230708Y-24720000D01*
X202790708Y-34858000D02*
X202790708Y-30840000D01*
X200749708Y-34217000D02*
X200749708Y-29240000D01*
X202990708Y-34873000D02*
X202990708Y-30840000D01*
X201669708Y-34624000D02*
X201669708Y-30840000D01*
X201509708Y-34568000D02*
X201509708Y-30840000D01*
X202229708Y-27160000D02*
X202229708Y-24826000D01*
X202910708Y-28760000D02*
X202910708Y-24732000D01*
X202429708Y-28760000D02*
X202429708Y-24789000D01*
X201389708Y-34523000D02*
X201389708Y-30840000D01*
X200589708Y-27160000D02*
X200589708Y-25477000D01*
X200669708Y-27160000D02*
X200669708Y-25429000D01*
X202630708Y-28760000D02*
X202630708Y-24760000D01*
X202590708Y-34835000D02*
X202590708Y-30840000D01*
X199269708Y-32956000D02*
X199269708Y-26644000D01*
X201349708Y-27160000D02*
X201349708Y-25093000D01*
X208250354Y-33175000D02*
X208250354Y-32175000D01*
X201429708Y-27160000D02*
X201429708Y-25062000D01*
X201549708Y-27160000D02*
X201549708Y-25017000D01*
X201869708Y-27160000D02*
X201869708Y-24915000D01*
X202269708Y-27160000D02*
X202269708Y-24818000D01*
X200549708Y-34098000D02*
X200549708Y-29240000D01*
X202870708Y-28760000D02*
X202870708Y-24735000D01*
X201109708Y-27160000D02*
X201109708Y-25197000D01*
X202269708Y-34782000D02*
X202269708Y-30840000D01*
X199109708Y-32745000D02*
X199109708Y-26855000D01*
X201029708Y-27160000D02*
X201029708Y-25236000D01*
X200989708Y-27160000D02*
X200989708Y-25255000D01*
X200589708Y-34123000D02*
X200589708Y-29240000D01*
X203030708Y-34875000D02*
X203030708Y-30840000D01*
X202389708Y-28760000D02*
X202389708Y-24796000D01*
X200509708Y-34073000D02*
X200509708Y-29240000D01*
X202109708Y-27160000D02*
X202109708Y-24853000D01*
X199909708Y-33624000D02*
X199909708Y-25976000D01*
X200629708Y-27160000D02*
X200629708Y-25453000D01*
X198269708Y-30862000D02*
X198269708Y-28738000D01*
X202029708Y-27160000D02*
X202029708Y-24872000D01*
X201229708Y-27160000D02*
X201229708Y-25143000D01*
X202069708Y-34738000D02*
X202069708Y-30840000D01*
X198909708Y-32445000D02*
X198909708Y-27155000D01*
X198869708Y-32379000D02*
X198869708Y-27221000D01*
X201149708Y-27160000D02*
X201149708Y-25179000D01*
X201949708Y-27160000D02*
X201949708Y-24893000D01*
X202870708Y-34865000D02*
X202870708Y-30840000D01*
X200109708Y-33789000D02*
X200109708Y-25811000D01*
X202349708Y-34797000D02*
X202349708Y-30840000D01*
X202309708Y-34790000D02*
X202309708Y-30840000D01*
X203070708Y-34877000D02*
X203070708Y-24723000D01*
X202750708Y-28760000D02*
X202750708Y-24746000D01*
X201629708Y-27160000D02*
X201629708Y-24989000D01*
X202469708Y-34818000D02*
X202469708Y-30840000D01*
X202590708Y-28760000D02*
X202590708Y-24765000D01*
X201229708Y-34457000D02*
X201229708Y-30840000D01*
X200909708Y-34304000D02*
X200909708Y-29240000D01*
X201589708Y-27160000D02*
X201589708Y-25003000D01*
X202549708Y-28760000D02*
X202549708Y-24770000D01*
X201989708Y-27160000D02*
X201989708Y-24882000D01*
X201789708Y-27160000D02*
X201789708Y-24938000D01*
X202149708Y-27160000D02*
X202149708Y-24844000D01*
X200669708Y-34171000D02*
X200669708Y-29240000D01*
X201269708Y-27160000D02*
X201269708Y-25126000D01*
X200429708Y-34021000D02*
X200429708Y-29240000D01*
X203150708Y-34879000D02*
X203150708Y-24721000D01*
X198189708Y-30399000D02*
X198189708Y-29201000D01*
X202229708Y-34774000D02*
X202229708Y-30840000D01*
X199389708Y-33101000D02*
X199389708Y-26499000D01*
X199629708Y-33361000D02*
X199629708Y-26239000D01*
X208390708Y-29800000D02*
G75*
G03*
X208390708Y-29800000I-5120000J0D01*
G01*
%TO.C,U11*%
X67131000Y-34462780D02*
X68759000Y-34462780D01*
X60914000Y-37781780D02*
X74976000Y-37781780D01*
X58966000Y-42181780D02*
X76924000Y-42181780D01*
X59769000Y-39581780D02*
X66505000Y-39581780D01*
X60577000Y-38221780D02*
X75313000Y-38221780D01*
X59571000Y-40021780D02*
X66505000Y-40021780D01*
X59640000Y-39861780D02*
X66505000Y-39861780D01*
X69385000Y-38981780D02*
X75804000Y-38981780D01*
X69385000Y-39701780D02*
X76178000Y-39701780D01*
X60665000Y-38101780D02*
X75225000Y-38101780D01*
X59078000Y-41581780D02*
X76812000Y-41581780D01*
X58879000Y-43022780D02*
X77011000Y-43022780D01*
X69385000Y-39261780D02*
X75959000Y-39261780D01*
X59676000Y-39781780D02*
X66505000Y-39781780D01*
X63129000Y-35821780D02*
X72761000Y-35821780D01*
X60157000Y-38861780D02*
X66505000Y-38861780D01*
X59444000Y-40341780D02*
X66505000Y-40341780D01*
X61691000Y-36941780D02*
X74199000Y-36941780D01*
X61527000Y-37101780D02*
X74363000Y-37101780D01*
X69385000Y-39181780D02*
X75916000Y-39181780D01*
X60786000Y-37941780D02*
X75104000Y-37941780D01*
X61649000Y-36981780D02*
X74241000Y-36981780D01*
X61819000Y-36821780D02*
X74071000Y-36821780D01*
X59114000Y-41421780D02*
X76776000Y-41421780D01*
X59372000Y-40541780D02*
X66505000Y-40541780D01*
X59331000Y-40661780D02*
X66505000Y-40661780D01*
X60110000Y-38941780D02*
X66505000Y-38941780D01*
X58875000Y-43102780D02*
X77015000Y-43102780D01*
X60635000Y-38141780D02*
X75255000Y-38141780D01*
X59889000Y-39341780D02*
X66505000Y-39341780D01*
X58903000Y-42701780D02*
X76987000Y-42701780D01*
X62439000Y-36301780D02*
X73451000Y-36301780D01*
X58985000Y-42061780D02*
X76905000Y-42061780D01*
X69385000Y-39061780D02*
X75849000Y-39061780D01*
X60818000Y-37901780D02*
X75072000Y-37901780D01*
X59267000Y-40861780D02*
X66505000Y-40861780D01*
X59605000Y-39941780D02*
X66505000Y-39941780D01*
X62654000Y-36141780D02*
X73236000Y-36141780D01*
X59052000Y-41701780D02*
X76838000Y-41701780D01*
X69385000Y-40301780D02*
X76431000Y-40301780D01*
X63066000Y-35861780D02*
X72824000Y-35861780D01*
X63606000Y-35541780D02*
X72284000Y-35541780D01*
X59953000Y-39221780D02*
X66505000Y-39221780D01*
X59186000Y-41141780D02*
X66505000Y-41141780D01*
X59006000Y-41941780D02*
X76884000Y-41941780D01*
X69385000Y-39661780D02*
X76159000Y-39661780D01*
X64731000Y-35022780D02*
X71159000Y-35022780D01*
X59060000Y-41661780D02*
X76830000Y-41661780D01*
X61081000Y-37581780D02*
X74809000Y-37581780D01*
X58934000Y-42421780D02*
X76956000Y-42421780D01*
X59622000Y-39901780D02*
X66505000Y-39901780D01*
X65313000Y-34822780D02*
X70577000Y-34822780D01*
X59305000Y-40741780D02*
X66505000Y-40741780D01*
X69385000Y-40381780D02*
X76461000Y-40381780D01*
X69385000Y-38741780D02*
X75660000Y-38741780D01*
X69385000Y-39861780D02*
X76250000Y-39861780D01*
X64433000Y-35142780D02*
X71457000Y-35142780D01*
X60492000Y-38341780D02*
X75398000Y-38341780D01*
X64076000Y-35302780D02*
X71814000Y-35302780D01*
X59220000Y-41021780D02*
X66505000Y-41021780D01*
X69385000Y-39301780D02*
X75980000Y-39301780D01*
X59869000Y-39381780D02*
X66505000Y-39381780D01*
X59910000Y-39301780D02*
X66505000Y-39301780D01*
X69385000Y-39981780D02*
X76302000Y-39981780D01*
X69385000Y-40421780D02*
X76475000Y-40421780D01*
X60018000Y-39101780D02*
X66505000Y-39101780D01*
X58949000Y-42301780D02*
X76941000Y-42301780D01*
X60695000Y-38061780D02*
X75195000Y-38061780D01*
X59490000Y-40221780D02*
X66505000Y-40221780D01*
X61733000Y-36901780D02*
X74157000Y-36901780D01*
X69385000Y-40861780D02*
X76623000Y-40861780D01*
X69385000Y-39781780D02*
X76214000Y-39781780D01*
X69385000Y-38861780D02*
X75733000Y-38861780D01*
X61487000Y-37141780D02*
X74403000Y-37141780D01*
X69385000Y-39741780D02*
X76196000Y-39741780D01*
X58973000Y-42141780D02*
X76917000Y-42141780D01*
X63832000Y-35421780D02*
X72058000Y-35421780D01*
X69385000Y-39101780D02*
X75872000Y-39101780D01*
X60465000Y-38381780D02*
X66505000Y-38381780D01*
X69385000Y-38421780D02*
X75453000Y-38421780D01*
X60410000Y-38461780D02*
X66505000Y-38461780D01*
X58865000Y-43462780D02*
X77025000Y-43462780D01*
X69385000Y-38461780D02*
X75480000Y-38461780D01*
X60357000Y-38541780D02*
X66505000Y-38541780D01*
X69385000Y-39461780D02*
X76062000Y-39461780D01*
X59345000Y-40621780D02*
X66505000Y-40621780D01*
X63993000Y-35342780D02*
X71897000Y-35342780D01*
X69385000Y-38581780D02*
X75559000Y-38581780D01*
X58887000Y-42902780D02*
X77003000Y-42902780D01*
X59175000Y-41181780D02*
X66505000Y-41181780D01*
X62545000Y-36221780D02*
X73345000Y-36221780D01*
X59021000Y-41861780D02*
X76869000Y-41861780D01*
X69385000Y-40581780D02*
X76532000Y-40581780D01*
X59243000Y-40941780D02*
X66505000Y-40941780D01*
X65742000Y-34702780D02*
X70148000Y-34702780D01*
X59358000Y-40581780D02*
X66505000Y-40581780D01*
X60133000Y-38901780D02*
X66505000Y-38901780D01*
X58911000Y-42621780D02*
X76979000Y-42621780D01*
X60205000Y-38781780D02*
X66505000Y-38781780D01*
X62285000Y-36421780D02*
X73605000Y-36421780D01*
X60230000Y-38741780D02*
X66505000Y-38741780D01*
X61567000Y-37061780D02*
X74323000Y-37061780D01*
X58870000Y-43222780D02*
X77020000Y-43222780D01*
X59134000Y-41341780D02*
X76756000Y-41341780D01*
X59750000Y-39621780D02*
X66505000Y-39621780D01*
X61116000Y-37541780D02*
X74774000Y-37541780D01*
X69385000Y-40741780D02*
X76585000Y-40741780D01*
X63259000Y-35741780D02*
X72631000Y-35741780D01*
X59124000Y-41381780D02*
X76766000Y-41381780D01*
X61223000Y-37421780D02*
X74667000Y-37421780D01*
X61952000Y-36701780D02*
X73938000Y-36701780D01*
X58872000Y-43182780D02*
X77018000Y-43182780D01*
X59522000Y-40141780D02*
X66505000Y-40141780D01*
X69385000Y-38541780D02*
X75533000Y-38541780D01*
X69385000Y-41021780D02*
X76670000Y-41021780D01*
X59506000Y-40181780D02*
X66505000Y-40181780D01*
X59400000Y-40461780D02*
X66505000Y-40461780D01*
X59069000Y-41621780D02*
X76821000Y-41621780D01*
X69385000Y-39581780D02*
X76121000Y-39581780D01*
X58882000Y-42982780D02*
X77008000Y-42982780D01*
X59588000Y-39981780D02*
X66505000Y-39981780D01*
X64949000Y-34942780D02*
X70941000Y-34942780D01*
X60755000Y-37981780D02*
X75135000Y-37981780D01*
X61296000Y-37341780D02*
X74594000Y-37341780D01*
X69385000Y-39501780D02*
X76082000Y-39501780D01*
X60881000Y-37821780D02*
X75009000Y-37821780D01*
X61775000Y-36861780D02*
X74115000Y-36861780D01*
X59044000Y-41741780D02*
X76846000Y-41741780D01*
X59197000Y-41101780D02*
X66505000Y-41101780D01*
X69385000Y-41181780D02*
X76715000Y-41181780D01*
X69385000Y-40221780D02*
X76400000Y-40221780D01*
X69385000Y-40661780D02*
X76559000Y-40661780D01*
X63680000Y-35501780D02*
X72210000Y-35501780D01*
X60063000Y-39021780D02*
X66505000Y-39021780D01*
X60980000Y-37701780D02*
X74910000Y-37701780D01*
X69385000Y-39381780D02*
X76021000Y-39381780D01*
X63004000Y-35901780D02*
X72886000Y-35901780D01*
X62710000Y-36101780D02*
X73180000Y-36101780D01*
X69385000Y-40501780D02*
X76504000Y-40501780D01*
X62830000Y-53302220D02*
X62830000Y-51502220D01*
X69385000Y-38381780D02*
X75425000Y-38381780D01*
X59165000Y-41221780D02*
X66505000Y-41221780D01*
X69385000Y-39621780D02*
X76140000Y-39621780D01*
X59280000Y-40821780D02*
X66505000Y-40821780D01*
X58992000Y-42021780D02*
X76898000Y-42021780D01*
X69385000Y-40181780D02*
X76384000Y-40181780D01*
X59789000Y-39541780D02*
X66505000Y-39541780D01*
X69385000Y-40781780D02*
X76598000Y-40781780D01*
X59712000Y-39701780D02*
X66505000Y-39701780D01*
X62139000Y-36541780D02*
X73751000Y-36541780D01*
X62767000Y-36061780D02*
X73123000Y-36061780D01*
X59208000Y-41061780D02*
X66505000Y-41061780D01*
X59255000Y-40901780D02*
X66505000Y-40901780D01*
X60181000Y-38821780D02*
X66505000Y-38821780D01*
X69385000Y-39901780D02*
X76268000Y-39901780D01*
X69385000Y-39141780D02*
X75894000Y-39141780D01*
X62943000Y-35941780D02*
X72947000Y-35941780D01*
X59658000Y-39821780D02*
X66505000Y-39821780D01*
X58924000Y-42501780D02*
X76966000Y-42501780D01*
X67905000Y-34422780D02*
X67985000Y-34422780D01*
X61013000Y-37661780D02*
X74877000Y-37661780D01*
X60548000Y-38261780D02*
X75342000Y-38261780D01*
X59996000Y-39141780D02*
X66505000Y-39141780D01*
X58900000Y-42741780D02*
X76990000Y-42741780D01*
X59105000Y-41461780D02*
X76785000Y-41461780D01*
X66779000Y-34502780D02*
X69111000Y-34502780D01*
X60086000Y-38981780D02*
X66505000Y-38981780D01*
X58955000Y-42261780D02*
X76935000Y-42261780D01*
X69385000Y-39341780D02*
X76001000Y-39341780D01*
X58884000Y-42942780D02*
X77006000Y-42942780D01*
X65590000Y-34742780D02*
X70300000Y-34742780D01*
X64340000Y-35182780D02*
X71550000Y-35182780D01*
X69385000Y-40941780D02*
X76647000Y-40941780D01*
X64529000Y-35102780D02*
X71361000Y-35102780D01*
X69385000Y-39941780D02*
X76285000Y-39941780D01*
X69385000Y-40141780D02*
X76368000Y-40141780D01*
X61187000Y-37461780D02*
X74703000Y-37461780D01*
X65906000Y-34662780D02*
X69984000Y-34662780D01*
X59154000Y-41261780D02*
X76736000Y-41261780D01*
X60725000Y-38021780D02*
X75165000Y-38021780D01*
X59974000Y-39181780D02*
X66505000Y-39181780D01*
X59415000Y-40421780D02*
X66505000Y-40421780D01*
X69385000Y-40621780D02*
X76545000Y-40621780D01*
X58907000Y-42661780D02*
X76983000Y-42661780D01*
X69385000Y-38701780D02*
X75635000Y-38701780D01*
X58865000Y-43502780D02*
X77025000Y-43502780D01*
X58873000Y-43142780D02*
X77017000Y-43142780D01*
X62491000Y-36261780D02*
X73399000Y-36261780D01*
X59292000Y-40781780D02*
X66505000Y-40781780D01*
X59731000Y-39661780D02*
X66505000Y-39661780D01*
X69385000Y-38901780D02*
X75757000Y-38901780D01*
X60849000Y-37861780D02*
X75041000Y-37861780D01*
X64161000Y-35262780D02*
X71729000Y-35262780D01*
X60331000Y-38581780D02*
X66505000Y-38581780D01*
X59475000Y-40261780D02*
X66505000Y-40261780D01*
X69385000Y-38621780D02*
X75585000Y-38621780D01*
X59318000Y-40701780D02*
X66505000Y-40701780D01*
X58893000Y-42821780D02*
X76997000Y-42821780D01*
X69385000Y-38941780D02*
X75780000Y-38941780D01*
X59808000Y-39501780D02*
X66505000Y-39501780D01*
X58999000Y-41981780D02*
X76891000Y-41981780D01*
X58865000Y-43422780D02*
X77025000Y-43422780D01*
X62187000Y-36501780D02*
X73703000Y-36501780D01*
X69385000Y-40061780D02*
X76335000Y-40061780D01*
X63193000Y-35781780D02*
X72697000Y-35781780D01*
X58896000Y-42781780D02*
X76994000Y-42781780D01*
X59386000Y-40501780D02*
X66505000Y-40501780D01*
X60041000Y-39061780D02*
X66505000Y-39061780D01*
X65065000Y-34902780D02*
X70825000Y-34902780D01*
X58939000Y-42381780D02*
X76951000Y-42381780D01*
X66510000Y-34542780D02*
X69380000Y-34542780D01*
X69385000Y-38501780D02*
X75506000Y-38501780D01*
X62091000Y-36581780D02*
X73799000Y-36581780D01*
X69385000Y-40981780D02*
X76659000Y-40981780D01*
X61448000Y-37181780D02*
X74442000Y-37181780D01*
X62044000Y-36621780D02*
X73846000Y-36621780D01*
X64838000Y-34982780D02*
X71052000Y-34982780D01*
X62387000Y-36341780D02*
X73503000Y-36341780D01*
X69385000Y-38821780D02*
X75709000Y-38821780D01*
X62883000Y-35981780D02*
X73007000Y-35981780D01*
X60305000Y-38621780D02*
X66505000Y-38621780D01*
X59931000Y-39261780D02*
X66505000Y-39261780D01*
X60520000Y-38301780D02*
X75370000Y-38301780D01*
X69385000Y-39421780D02*
X76042000Y-39421780D01*
X60437000Y-38421780D02*
X66505000Y-38421780D01*
X61047000Y-37621780D02*
X74843000Y-37621780D01*
X63463000Y-35621780D02*
X72427000Y-35621780D01*
X63393000Y-35661780D02*
X72497000Y-35661780D01*
X59429000Y-40381780D02*
X66505000Y-40381780D01*
X69385000Y-40901780D02*
X76635000Y-40901780D01*
X61863000Y-36781780D02*
X74027000Y-36781780D01*
X69385000Y-40701780D02*
X76572000Y-40701780D01*
X59848000Y-39421780D02*
X66505000Y-39421780D01*
X61998000Y-36661780D02*
X73892000Y-36661780D01*
X58869000Y-43262780D02*
X77021000Y-43262780D01*
X59087000Y-41541780D02*
X76803000Y-41541780D01*
X60384000Y-38501780D02*
X66505000Y-38501780D01*
X69385000Y-41141780D02*
X76704000Y-41141780D01*
X62336000Y-36381780D02*
X73554000Y-36381780D01*
X64249000Y-35222780D02*
X71641000Y-35222780D01*
X60606000Y-38181780D02*
X75284000Y-38181780D01*
X66085000Y-34622780D02*
X69805000Y-34622780D01*
X69385000Y-40021780D02*
X76319000Y-40021780D01*
X60946000Y-37741780D02*
X74944000Y-37741780D01*
X58929000Y-42461780D02*
X76961000Y-42461780D01*
X69385000Y-41061780D02*
X76682000Y-41061780D01*
X60280000Y-38661780D02*
X66505000Y-38661780D01*
X69385000Y-40341780D02*
X76446000Y-40341780D01*
X58961000Y-42221780D02*
X76929000Y-42221780D01*
X69385000Y-40261780D02*
X76415000Y-40261780D01*
X69385000Y-38781780D02*
X75685000Y-38781780D01*
X63325000Y-35701780D02*
X72565000Y-35701780D01*
X65186000Y-34862780D02*
X70704000Y-34862780D01*
X61259000Y-37381780D02*
X74631000Y-37381780D01*
X69385000Y-39541780D02*
X76101000Y-39541780D01*
X65447000Y-34782780D02*
X70443000Y-34782780D01*
X62599000Y-36181780D02*
X73291000Y-36181780D01*
X69385000Y-39821780D02*
X76232000Y-39821780D01*
X69385000Y-40541780D02*
X76518000Y-40541780D01*
X64628000Y-35062780D02*
X71262000Y-35062780D01*
X69385000Y-40101780D02*
X76352000Y-40101780D01*
X61151000Y-37501780D02*
X74739000Y-37501780D01*
X58866000Y-43382780D02*
X77024000Y-43382780D01*
X59694000Y-39741780D02*
X66505000Y-39741780D01*
X58890000Y-42862780D02*
X77000000Y-42862780D01*
X58868000Y-43302780D02*
X77022000Y-43302780D01*
X62825000Y-36021780D02*
X73065000Y-36021780D01*
X59555000Y-40061780D02*
X66505000Y-40061780D01*
X58864000Y-43542780D02*
X77026000Y-43542780D01*
X69385000Y-41221780D02*
X76725000Y-41221780D01*
X69385000Y-39021780D02*
X75827000Y-39021780D01*
X61930000Y-52402220D02*
X63730000Y-52402220D01*
X69385000Y-39221780D02*
X75937000Y-39221780D01*
X58979000Y-42101780D02*
X76911000Y-42101780D01*
X59028000Y-41821780D02*
X76862000Y-41821780D01*
X58867000Y-43342780D02*
X77023000Y-43342780D01*
X61371000Y-37261780D02*
X74519000Y-37261780D01*
X63755000Y-35461780D02*
X72135000Y-35461780D01*
X59828000Y-39461780D02*
X66505000Y-39461780D01*
X59096000Y-41501780D02*
X76794000Y-41501780D01*
X63912000Y-35381780D02*
X71978000Y-35381780D01*
X59231000Y-40981780D02*
X66505000Y-40981780D01*
X59144000Y-41301780D02*
X76746000Y-41301780D01*
X69385000Y-38661780D02*
X75610000Y-38661780D01*
X59036000Y-41781780D02*
X76854000Y-41781780D01*
X58877000Y-43062780D02*
X77013000Y-43062780D01*
X61608000Y-37021780D02*
X74282000Y-37021780D01*
X58919000Y-42541780D02*
X76971000Y-42541780D01*
X59459000Y-40301780D02*
X66505000Y-40301780D01*
X59013000Y-41901780D02*
X76877000Y-41901780D01*
X60255000Y-38701780D02*
X66505000Y-38701780D01*
X69385000Y-40821780D02*
X76610000Y-40821780D01*
X69385000Y-40461780D02*
X76490000Y-40461780D01*
X58915000Y-42581780D02*
X76975000Y-42581780D01*
X61409000Y-37221780D02*
X74481000Y-37221780D01*
X66284000Y-34582780D02*
X69606000Y-34582780D01*
X58944000Y-42341780D02*
X76946000Y-42341780D01*
X59538000Y-40101780D02*
X66505000Y-40101780D01*
X62236000Y-36461780D02*
X73654000Y-36461780D01*
X61333000Y-37301780D02*
X74557000Y-37301780D01*
X69385000Y-41101780D02*
X76693000Y-41101780D01*
X63533000Y-35581780D02*
X72357000Y-35581780D01*
X61907000Y-36741780D02*
X73983000Y-36741780D01*
X77065000Y-43542780D02*
G75*
G03*
X77065000Y-43542780I-9120000J0D01*
G01*
%TO.C,U39*%
X139470000Y-86870000D02*
X132230000Y-86870000D01*
X139470000Y-83130000D02*
X132230000Y-83130000D01*
X132230000Y-86870000D02*
X132230000Y-83130000D01*
X139470000Y-86870000D02*
X139470000Y-83130000D01*
%TO.C,U31*%
X189820000Y-75659500D02*
X179580000Y-75659500D01*
X179580000Y-79455500D02*
X179580000Y-74814500D01*
X189820000Y-79455500D02*
X179580000Y-79455500D01*
X189820000Y-77169500D02*
X179580000Y-77169500D01*
X182849000Y-77169500D02*
X182849000Y-75659500D01*
X179580000Y-77169500D02*
X179580000Y-72528500D01*
X189820000Y-79455500D02*
X189820000Y-74814500D01*
X186550000Y-77169500D02*
X186550000Y-75659500D01*
X189820000Y-77169500D02*
X189820000Y-72528500D01*
X189820000Y-77945500D02*
X179580000Y-77945500D01*
X189820000Y-72528500D02*
X179580000Y-72528500D01*
%TO.C,U25*%
X45030000Y-95270000D02*
X51570000Y-95270000D01*
X44260000Y-93900000D02*
X45030000Y-93900000D01*
X45030000Y-92530000D02*
X45030000Y-95270000D01*
X51570000Y-95270000D02*
X51570000Y-92530000D01*
X51570000Y-92530000D02*
X45030000Y-92530000D01*
X52340000Y-93900000D02*
X51570000Y-93900000D01*
%TO.C,U21*%
X91500000Y-100870000D02*
X91500000Y-100220000D01*
X92620000Y-96580000D02*
X90380000Y-96580000D01*
X90380000Y-100220000D02*
X92620000Y-100220000D01*
X92620000Y-100220000D02*
X92620000Y-95980000D01*
X91500000Y-95330000D02*
X91500000Y-95980000D01*
X92620000Y-96700000D02*
X90380000Y-96700000D01*
X92620000Y-96820000D02*
X90380000Y-96820000D01*
X92620000Y-95980000D02*
X90380000Y-95980000D01*
X90380000Y-95980000D02*
X90380000Y-100220000D01*
%TO.C,U12*%
X100356800Y-43390380D02*
G75*
G03*
X100356800Y-43390380I-9120000J0D01*
G01*
X87452800Y-35110380D02*
X95020800Y-35110380D01*
X83897800Y-38029380D02*
X98575800Y-38029380D01*
X92676800Y-38549380D02*
X98926800Y-38549380D01*
X82170800Y-42870380D02*
X100302800Y-42870380D01*
X82813800Y-39989380D02*
X89796800Y-39989380D01*
X92676800Y-40989380D02*
X99995800Y-40989380D01*
X92676800Y-40389380D02*
X99809800Y-40389380D01*
X87367800Y-35150380D02*
X95105800Y-35150380D01*
X82967800Y-39629380D02*
X89796800Y-39629380D01*
X82546800Y-40749380D02*
X89796800Y-40749380D01*
X92676800Y-38309380D02*
X98771800Y-38309380D01*
X85243800Y-36549380D02*
X97229800Y-36549380D01*
X82335800Y-41589380D02*
X100137800Y-41589380D01*
X84046800Y-37829380D02*
X98426800Y-37829380D01*
X92676800Y-40229380D02*
X99752800Y-40229380D01*
X92676800Y-39509380D02*
X99450800Y-39509380D01*
X82396800Y-41309380D02*
X100076800Y-41309380D01*
X87123800Y-35269380D02*
X95349800Y-35269380D01*
X85221800Y-52249820D02*
X87021800Y-52249820D01*
X92676800Y-39749380D02*
X99559800Y-39749380D01*
X92676800Y-40509380D02*
X99850800Y-40509380D01*
X83265800Y-39029380D02*
X89796800Y-39029380D01*
X82735800Y-40189380D02*
X89796800Y-40189380D01*
X83811800Y-38149380D02*
X98661800Y-38149380D01*
X88881800Y-34590380D02*
X93591800Y-34590380D01*
X82168800Y-42910380D02*
X100304800Y-42910380D01*
X86174800Y-35829380D02*
X96298800Y-35829380D01*
X92676800Y-38749380D02*
X99048800Y-38749380D01*
X85430800Y-36389380D02*
X97042800Y-36389380D01*
X92676800Y-40709380D02*
X99914800Y-40709380D01*
X83546800Y-38549380D02*
X89796800Y-38549380D01*
X92676800Y-41069380D02*
X100016800Y-41069380D01*
X82435800Y-41149380D02*
X100037800Y-41149380D01*
X92676800Y-40069380D02*
X99691800Y-40069380D01*
X89801800Y-34390380D02*
X92671800Y-34390380D01*
X82896800Y-39789380D02*
X89796800Y-39789380D01*
X89033800Y-34550380D02*
X93439800Y-34550380D01*
X92676800Y-40469380D02*
X99836800Y-40469380D01*
X85198800Y-36589380D02*
X97274800Y-36589380D01*
X84205800Y-37629380D02*
X98267800Y-37629380D01*
X92676800Y-40669380D02*
X99901800Y-40669380D01*
X92676800Y-39629380D02*
X99505800Y-39629380D01*
X82649800Y-40429380D02*
X89796800Y-40429380D01*
X92676800Y-40749380D02*
X99926800Y-40749380D01*
X82159800Y-43150380D02*
X100313800Y-43150380D01*
X83022800Y-39509380D02*
X89796800Y-39509380D01*
X82240800Y-42149380D02*
X100232800Y-42149380D01*
X85024800Y-36749380D02*
X97448800Y-36749380D01*
X82327800Y-41629380D02*
X100145800Y-41629380D01*
X82194800Y-42549380D02*
X100278800Y-42549380D01*
X92676800Y-39229380D02*
X99312800Y-39229380D01*
X82829800Y-39949380D02*
X89796800Y-39949380D01*
X92676800Y-40829380D02*
X99950800Y-40829380D01*
X92676800Y-38829380D02*
X99095800Y-38829380D01*
X92676800Y-40629380D02*
X99889800Y-40629380D01*
X83139800Y-39269380D02*
X89796800Y-39269380D01*
X83244800Y-39069380D02*
X89796800Y-39069380D01*
X82985800Y-39589380D02*
X89796800Y-39589380D01*
X84140800Y-37709380D02*
X98332800Y-37709380D01*
X84739800Y-37029380D02*
X97733800Y-37029380D01*
X85527800Y-36309380D02*
X96945800Y-36309380D01*
X82558800Y-40709380D02*
X89796800Y-40709380D01*
X82781800Y-40069380D02*
X89796800Y-40069380D01*
X89197800Y-34510380D02*
X93275800Y-34510380D01*
X87724800Y-34990380D02*
X94748800Y-34990380D01*
X84372800Y-37429380D02*
X98100800Y-37429380D01*
X83986800Y-37909380D02*
X98486800Y-37909380D01*
X82304800Y-41749380D02*
X100168800Y-41749380D01*
X82283800Y-41869380D02*
X100189800Y-41869380D01*
X86684800Y-35509380D02*
X95788800Y-35509380D01*
X82156800Y-43270380D02*
X100316800Y-43270380D01*
X83354800Y-38869380D02*
X89796800Y-38869380D01*
X84700800Y-37069380D02*
X97772800Y-37069380D01*
X82191800Y-42589380D02*
X100281800Y-42589380D01*
X84407800Y-37389380D02*
X98065800Y-37389380D01*
X89376800Y-34470380D02*
X93096800Y-34470380D01*
X84818800Y-36949380D02*
X97654800Y-36949380D01*
X82488800Y-40949380D02*
X89796800Y-40949380D01*
X82297800Y-41789380D02*
X100175800Y-41789380D01*
X82511800Y-40869380D02*
X89796800Y-40869380D01*
X92676800Y-38469380D02*
X98876800Y-38469380D01*
X82312800Y-41709380D02*
X100160800Y-41709380D01*
X84940800Y-36829380D02*
X97532800Y-36829380D01*
X82766800Y-40109380D02*
X89796800Y-40109380D01*
X82252800Y-42069380D02*
X100220800Y-42069380D01*
X83424800Y-38749380D02*
X89796800Y-38749380D01*
X82161800Y-43070380D02*
X100311800Y-43070380D01*
X83926800Y-37989380D02*
X98546800Y-37989380D01*
X92676800Y-38509380D02*
X98901800Y-38509380D01*
X82206800Y-42429380D02*
X100266800Y-42429380D01*
X83839800Y-38109380D02*
X98633800Y-38109380D01*
X84271800Y-37549380D02*
X98201800Y-37549380D01*
X85945800Y-35989380D02*
X96527800Y-35989380D01*
X83756800Y-38229380D02*
X89796800Y-38229380D01*
X92676800Y-39429380D02*
X99412800Y-39429380D01*
X82949800Y-39669380D02*
X89796800Y-39669380D01*
X85289800Y-36509380D02*
X97183800Y-36509380D01*
X84442800Y-37349380D02*
X98030800Y-37349380D01*
X87919800Y-34910380D02*
X94553800Y-34910380D01*
X92676800Y-38629380D02*
X98976800Y-38629380D01*
X82230800Y-42229380D02*
X100242800Y-42229380D01*
X92676800Y-39109380D02*
X99250800Y-39109380D01*
X92676800Y-39669380D02*
X99523800Y-39669380D01*
X84478800Y-37309380D02*
X97994800Y-37309380D01*
X86295800Y-35749380D02*
X96177800Y-35749380D01*
X85478800Y-36349380D02*
X96994800Y-36349380D01*
X82750800Y-40149380D02*
X89796800Y-40149380D01*
X86357800Y-35709380D02*
X96115800Y-35709380D01*
X92676800Y-40349380D02*
X99795800Y-40349380D01*
X92676800Y-39069380D02*
X99228800Y-39069380D01*
X88240800Y-34790380D02*
X94232800Y-34790380D01*
X83309800Y-38949380D02*
X89796800Y-38949380D01*
X84982800Y-36789380D02*
X97490800Y-36789380D01*
X82415800Y-41229380D02*
X100057800Y-41229380D01*
X89575800Y-34430380D02*
X92897800Y-34430380D01*
X83041800Y-39469380D02*
X89796800Y-39469380D01*
X92676800Y-40949380D02*
X99984800Y-40949380D01*
X83222800Y-39109380D02*
X89796800Y-39109380D01*
X86058800Y-35909380D02*
X96414800Y-35909380D01*
X88022800Y-34870380D02*
X94450800Y-34870380D01*
X82663800Y-40389380D02*
X89796800Y-40389380D01*
X86420800Y-35669380D02*
X96052800Y-35669380D01*
X88604800Y-34670380D02*
X93868800Y-34670380D01*
X82378800Y-41389380D02*
X100094800Y-41389380D01*
X82534800Y-40789380D02*
X89796800Y-40789380D01*
X91196800Y-34270380D02*
X91276800Y-34270380D01*
X92676800Y-40789380D02*
X99938800Y-40789380D01*
X92676800Y-38869380D02*
X99118800Y-38869380D01*
X83701800Y-38309380D02*
X89796800Y-38309380D01*
X82181800Y-42710380D02*
X100291800Y-42710380D01*
X86116800Y-35869380D02*
X96356800Y-35869380D01*
X92676800Y-39949380D02*
X99643800Y-39949380D01*
X85066800Y-36709380D02*
X97406800Y-36709380D01*
X84304800Y-37509380D02*
X98168800Y-37509380D01*
X92676800Y-40269380D02*
X99766800Y-40269380D01*
X82157800Y-43230380D02*
X100315800Y-43230380D01*
X82846800Y-39909380D02*
X89796800Y-39909380D01*
X85678800Y-36189380D02*
X96794800Y-36189380D01*
X85110800Y-36669380D02*
X97362800Y-36669380D01*
X85335800Y-36469380D02*
X97137800Y-36469380D01*
X87046800Y-35309380D02*
X95426800Y-35309380D01*
X84172800Y-37669380D02*
X98300800Y-37669380D01*
X82425800Y-41189380D02*
X100047800Y-41189380D01*
X83956800Y-37949380D02*
X98516800Y-37949380D01*
X86754800Y-35469380D02*
X95718800Y-35469380D01*
X82202800Y-42469380D02*
X100270800Y-42469380D01*
X82276800Y-41909380D02*
X100196800Y-41909380D01*
X82156800Y-43350380D02*
X100316800Y-43350380D01*
X82290800Y-41829380D02*
X100182800Y-41829380D01*
X86616800Y-35549380D02*
X95856800Y-35549380D01*
X86484800Y-35629380D02*
X95988800Y-35629380D01*
X82691800Y-40309380D02*
X89796800Y-40309380D01*
X83728800Y-38269380D02*
X89796800Y-38269380D01*
X82343800Y-41549380D02*
X100129800Y-41549380D01*
X82879800Y-39829380D02*
X89796800Y-39829380D01*
X82596800Y-40589380D02*
X89796800Y-40589380D01*
X84550800Y-37229380D02*
X97922800Y-37229380D01*
X92676800Y-39829380D02*
X99593800Y-39829380D01*
X82166800Y-42950380D02*
X100306800Y-42950380D01*
X87820800Y-34950380D02*
X94652800Y-34950380D01*
X92676800Y-38669380D02*
X99000800Y-38669380D01*
X88477800Y-34710380D02*
X93995800Y-34710380D01*
X85627800Y-36229380D02*
X96845800Y-36229380D01*
X82797800Y-40029380D02*
X89796800Y-40029380D01*
X82184800Y-42669380D02*
X100288800Y-42669380D01*
X92676800Y-40029380D02*
X99675800Y-40029380D01*
X85154800Y-36629380D02*
X97318800Y-36629380D01*
X92676800Y-39349380D02*
X99373800Y-39349380D01*
X85782800Y-36109380D02*
X96690800Y-36109380D01*
X92676800Y-38789380D02*
X99071800Y-38789380D01*
X82445800Y-41109380D02*
X100027800Y-41109380D01*
X85382800Y-36429380D02*
X97090800Y-36429380D01*
X92676800Y-40429380D02*
X99823800Y-40429380D01*
X84624800Y-37149380D02*
X97848800Y-37149380D01*
X82156800Y-43310380D02*
X100316800Y-43310380D01*
X84778800Y-36989380D02*
X97694800Y-36989380D01*
X82456800Y-41069380D02*
X89796800Y-41069380D01*
X82499800Y-40909380D02*
X89796800Y-40909380D01*
X92676800Y-39189380D02*
X99292800Y-39189380D01*
X92676800Y-40109380D02*
X99706800Y-40109380D01*
X86550800Y-35589380D02*
X95922800Y-35589380D01*
X83060800Y-39429380D02*
X89796800Y-39429380D01*
X92676800Y-38909380D02*
X99140800Y-38909380D01*
X92676800Y-39269380D02*
X99333800Y-39269380D01*
X92676800Y-39589380D02*
X99487800Y-39589380D01*
X88129800Y-34830380D02*
X94343800Y-34830380D01*
X83448800Y-38709380D02*
X89796800Y-38709380D01*
X82405800Y-41269380D02*
X100067800Y-41269380D01*
X83003800Y-39549380D02*
X89796800Y-39549380D01*
X82225800Y-42269380D02*
X100247800Y-42269380D01*
X92676800Y-39469380D02*
X99431800Y-39469380D01*
X83675800Y-38349380D02*
X89796800Y-38349380D01*
X84016800Y-37869380D02*
X98456800Y-37869380D01*
X92676800Y-39149380D02*
X99271800Y-39149380D01*
X92676800Y-41029380D02*
X100006800Y-41029380D01*
X84514800Y-37269380D02*
X97958800Y-37269380D01*
X82522800Y-40829380D02*
X89796800Y-40829380D01*
X82609800Y-40549380D02*
X89796800Y-40549380D01*
X83099800Y-39349380D02*
X89796800Y-39349380D01*
X82198800Y-42509380D02*
X100274800Y-42509380D01*
X92676800Y-38269380D02*
X98744800Y-38269380D01*
X83119800Y-39309380D02*
X89796800Y-39309380D01*
X88738800Y-34630380D02*
X93734800Y-34630380D01*
X82155800Y-43390380D02*
X100317800Y-43390380D01*
X84077800Y-37789380D02*
X98395800Y-37789380D01*
X87631800Y-35030380D02*
X94841800Y-35030380D01*
X82257800Y-42029380D02*
X100215800Y-42029380D01*
X82220800Y-42309380D02*
X100252800Y-42309380D01*
X82466800Y-41029380D02*
X89796800Y-41029380D01*
X83868800Y-38069380D02*
X98604800Y-38069380D01*
X85576800Y-36269380D02*
X96896800Y-36269380D01*
X92676800Y-39549380D02*
X99469800Y-39549380D01*
X82264800Y-41989380D02*
X100208800Y-41989380D01*
X86897800Y-35389380D02*
X95575800Y-35389380D01*
X90422800Y-34310380D02*
X92050800Y-34310380D01*
X92676800Y-38989380D02*
X99185800Y-38989380D01*
X82163800Y-43030380D02*
X100309800Y-43030380D01*
X83332800Y-38909380D02*
X89796800Y-38909380D01*
X92676800Y-38349380D02*
X98797800Y-38349380D01*
X88356800Y-34750380D02*
X94116800Y-34750380D01*
X92676800Y-38589380D02*
X98951800Y-38589380D01*
X82187800Y-42629380D02*
X100285800Y-42629380D01*
X86234800Y-35789380D02*
X96238800Y-35789380D01*
X87203800Y-35229380D02*
X95269800Y-35229380D01*
X82369800Y-41429380D02*
X100103800Y-41429380D01*
X84587800Y-37189380D02*
X97885800Y-37189380D01*
X92676800Y-40869380D02*
X99961800Y-40869380D01*
X84858800Y-36909380D02*
X97614800Y-36909380D01*
X92676800Y-40909380D02*
X99973800Y-40909380D01*
X86824800Y-35429380D02*
X95648800Y-35429380D01*
X82583800Y-40629380D02*
X89796800Y-40629380D01*
X83596800Y-38469380D02*
X89796800Y-38469380D01*
X82913800Y-39749380D02*
X89796800Y-39749380D01*
X82931800Y-39709380D02*
X89796800Y-39709380D01*
X82235800Y-42189380D02*
X100237800Y-42189380D01*
X82862800Y-39869380D02*
X89796800Y-39869380D01*
X84899800Y-36869380D02*
X97573800Y-36869380D01*
X92676800Y-39909380D02*
X99626800Y-39909380D01*
X82210800Y-42389380D02*
X100262800Y-42389380D01*
X92676800Y-38949380D02*
X99163800Y-38949380D01*
X92676800Y-40189380D02*
X99737800Y-40189380D01*
X86971800Y-35349380D02*
X95501800Y-35349380D01*
X82175800Y-42790380D02*
X100297800Y-42790380D01*
X82571800Y-40669380D02*
X89796800Y-40669380D01*
X84109800Y-37749380D02*
X98363800Y-37749380D01*
X82160800Y-43110380D02*
X100312800Y-43110380D01*
X92676800Y-38429380D02*
X98850800Y-38429380D01*
X83401800Y-38789380D02*
X89796800Y-38789380D01*
X90070800Y-34350380D02*
X92402800Y-34350380D01*
X82164800Y-42990380D02*
X100308800Y-42990380D01*
X83521800Y-38589380D02*
X89796800Y-38589380D01*
X83201800Y-39149380D02*
X89796800Y-39149380D01*
X82706800Y-40269380D02*
X89796800Y-40269380D01*
X82360800Y-41469380D02*
X100112800Y-41469380D01*
X92676800Y-40309380D02*
X99781800Y-40309380D01*
X83571800Y-38509380D02*
X89796800Y-38509380D01*
X85890800Y-36029380D02*
X96582800Y-36029380D01*
X82622800Y-40509380D02*
X89796800Y-40509380D01*
X83783800Y-38189380D02*
X98689800Y-38189380D01*
X86121800Y-53149820D02*
X86121800Y-51349820D01*
X82387800Y-41349380D02*
X100085800Y-41349380D01*
X83472800Y-38669380D02*
X89796800Y-38669380D01*
X92676800Y-39869380D02*
X99610800Y-39869380D01*
X82270800Y-41949380D02*
X100202800Y-41949380D01*
X82351800Y-41509380D02*
X100121800Y-41509380D01*
X82477800Y-40989380D02*
X89796800Y-40989380D01*
X92676800Y-39389380D02*
X99392800Y-39389380D01*
X92676800Y-38389380D02*
X98824800Y-38389380D01*
X92676800Y-39709380D02*
X99541800Y-39709380D01*
X82319800Y-41669380D02*
X100153800Y-41669380D01*
X83496800Y-38629380D02*
X89796800Y-38629380D01*
X82215800Y-42349380D02*
X100257800Y-42349380D01*
X83622800Y-38429380D02*
X89796800Y-38429380D01*
X82636800Y-40469380D02*
X89796800Y-40469380D01*
X83080800Y-39389380D02*
X89796800Y-39389380D01*
X92676800Y-40149380D02*
X99722800Y-40149380D01*
X92676800Y-38229380D02*
X98716800Y-38229380D01*
X82178800Y-42750380D02*
X100294800Y-42750380D01*
X92676800Y-39989380D02*
X99659800Y-39989380D01*
X85836800Y-36069380D02*
X96636800Y-36069380D01*
X92676800Y-38709380D02*
X99024800Y-38709380D01*
X84237800Y-37589380D02*
X98235800Y-37589380D01*
X83180800Y-39189380D02*
X89796800Y-39189380D01*
X84662800Y-37109380D02*
X97810800Y-37109380D01*
X92676800Y-39029380D02*
X99207800Y-39029380D01*
X83287800Y-38989380D02*
X89796800Y-38989380D01*
X92676800Y-40549380D02*
X99863800Y-40549380D01*
X87284800Y-35190380D02*
X95188800Y-35190380D01*
X82173800Y-42830380D02*
X100299800Y-42830380D01*
X82677800Y-40349380D02*
X89796800Y-40349380D01*
X82720800Y-40229380D02*
X89796800Y-40229380D01*
X92676800Y-39789380D02*
X99576800Y-39789380D01*
X85730800Y-36149380D02*
X96742800Y-36149380D01*
X86001800Y-35949380D02*
X96471800Y-35949380D01*
X92676800Y-39309380D02*
X99353800Y-39309380D01*
X84338800Y-37469380D02*
X98134800Y-37469380D01*
X83648800Y-38389380D02*
X89796800Y-38389380D01*
X83160800Y-39229380D02*
X89796800Y-39229380D01*
X82246800Y-42109380D02*
X100226800Y-42109380D01*
X92676800Y-40589380D02*
X99876800Y-40589380D01*
X82158800Y-43190380D02*
X100314800Y-43190380D01*
X83377800Y-38829380D02*
X89796800Y-38829380D01*
X87540800Y-35070380D02*
X94932800Y-35070380D01*
%TO.C,U36*%
X186929000Y-32878000D02*
X186929000Y-25922000D01*
X189889000Y-34424000D02*
X189889000Y-30440000D01*
X188529000Y-34021000D02*
X188529000Y-30440000D01*
X188449000Y-33984000D02*
X188449000Y-30440000D01*
X187209000Y-33153000D02*
X187209000Y-25647000D01*
X187849000Y-33647000D02*
X187849000Y-28840000D01*
X189729000Y-26760000D02*
X189729000Y-24403000D01*
X190250000Y-34465000D02*
X190250000Y-30440000D01*
X189970000Y-34435000D02*
X189970000Y-30440000D01*
X188289000Y-33904000D02*
X188289000Y-28840000D01*
X185649000Y-30462000D02*
X185649000Y-28338000D01*
X189849000Y-28360000D02*
X189849000Y-24382000D01*
X187969000Y-26760000D02*
X187969000Y-25077000D01*
X186009000Y-31525000D02*
X186009000Y-27275000D01*
X189369000Y-26760000D02*
X189369000Y-24482000D01*
X190290000Y-28360000D02*
X190290000Y-24332000D01*
X188569000Y-34039000D02*
X188569000Y-30440000D01*
X189329000Y-34307000D02*
X189329000Y-30440000D01*
X189129000Y-26760000D02*
X189129000Y-24550000D01*
X188889000Y-34168000D02*
X188889000Y-30440000D01*
X187689000Y-26760000D02*
X187689000Y-25262000D01*
X186569000Y-32454000D02*
X186569000Y-26346000D01*
X189489000Y-26760000D02*
X189489000Y-24453000D01*
X188729000Y-34107000D02*
X188729000Y-30440000D01*
X186969000Y-32920000D02*
X186969000Y-25880000D01*
X187769000Y-33594000D02*
X187769000Y-28840000D01*
X189569000Y-26760000D02*
X189569000Y-24435000D01*
X188769000Y-34123000D02*
X188769000Y-30440000D01*
X188409000Y-33964000D02*
X188409000Y-30440000D01*
X185729000Y-30778000D02*
X185729000Y-28022000D01*
X185609000Y-30262000D02*
X185609000Y-28538000D01*
X187049000Y-33001000D02*
X187049000Y-25799000D01*
X190010000Y-34440000D02*
X190010000Y-30440000D01*
X186889000Y-32836000D02*
X186889000Y-25964000D01*
X188969000Y-26760000D02*
X188969000Y-24603000D01*
X189809000Y-28360000D02*
X189809000Y-24389000D01*
X189409000Y-26760000D02*
X189409000Y-24472000D01*
X189329000Y-26760000D02*
X189329000Y-24493000D01*
X190410000Y-28360000D02*
X190410000Y-24325000D01*
X185889000Y-31246000D02*
X185889000Y-27554000D01*
X186609000Y-32506000D02*
X186609000Y-26294000D01*
X188049000Y-26760000D02*
X188049000Y-25029000D01*
X190210000Y-34462000D02*
X190210000Y-30440000D01*
X189449000Y-26760000D02*
X189449000Y-24462000D01*
X186729000Y-32654000D02*
X186729000Y-26146000D01*
X187289000Y-33224000D02*
X187289000Y-25576000D01*
X187009000Y-32961000D02*
X187009000Y-25839000D01*
X189289000Y-26760000D02*
X189289000Y-24503000D01*
X186649000Y-32556000D02*
X186649000Y-26244000D01*
X187689000Y-33538000D02*
X187689000Y-28840000D01*
X185689000Y-30630000D02*
X185689000Y-28170000D01*
X189049000Y-26760000D02*
X189049000Y-24576000D01*
X187089000Y-33040000D02*
X187089000Y-25760000D01*
X189009000Y-26760000D02*
X189009000Y-24589000D01*
X189569000Y-34365000D02*
X189569000Y-30440000D01*
X190330000Y-34470000D02*
X190330000Y-30440000D01*
X189009000Y-34211000D02*
X189009000Y-30440000D01*
X187969000Y-33723000D02*
X187969000Y-28840000D01*
X188689000Y-34090000D02*
X188689000Y-30440000D01*
X190050000Y-34445000D02*
X190050000Y-30440000D01*
X186129000Y-31765000D02*
X186129000Y-27035000D01*
X186409000Y-32230000D02*
X186409000Y-26570000D01*
X189689000Y-34390000D02*
X189689000Y-30440000D01*
X187249000Y-33189000D02*
X187249000Y-25611000D01*
X189289000Y-34297000D02*
X189289000Y-30440000D01*
X189529000Y-26760000D02*
X189529000Y-24444000D01*
X188129000Y-26760000D02*
X188129000Y-24983000D01*
X188009000Y-33747000D02*
X188009000Y-28840000D01*
X190570000Y-34480000D02*
X190570000Y-24320000D01*
X190170000Y-34458000D02*
X190170000Y-30440000D01*
X189649000Y-26760000D02*
X189649000Y-24418000D01*
X185569000Y-29999000D02*
X185569000Y-28801000D01*
X187169000Y-33116000D02*
X187169000Y-25684000D01*
X186249000Y-31979000D02*
X186249000Y-26821000D01*
X187889000Y-26760000D02*
X187889000Y-25127000D01*
X188009000Y-26760000D02*
X188009000Y-25053000D01*
X189769000Y-34404000D02*
X189769000Y-30440000D01*
X189689000Y-26760000D02*
X189689000Y-24410000D01*
X187489000Y-33389000D02*
X187489000Y-25411000D01*
X187129000Y-33079000D02*
X187129000Y-25721000D01*
X189169000Y-34262000D02*
X189169000Y-30440000D01*
X189129000Y-34250000D02*
X189129000Y-30440000D01*
X187449000Y-33357000D02*
X187449000Y-25443000D01*
X189209000Y-34274000D02*
X189209000Y-30440000D01*
X196129646Y-32275000D02*
X195129646Y-32275000D01*
X190370000Y-28360000D02*
X190370000Y-24327000D01*
X187849000Y-26760000D02*
X187849000Y-25153000D01*
X186169000Y-31839000D02*
X186169000Y-26961000D01*
X188169000Y-33840000D02*
X188169000Y-28840000D01*
X188329000Y-33925000D02*
X188329000Y-28840000D01*
X189649000Y-34382000D02*
X189649000Y-30440000D01*
X189169000Y-26760000D02*
X189169000Y-24538000D01*
X186529000Y-32400000D02*
X186529000Y-26400000D01*
X190610000Y-34480000D02*
X190610000Y-24320000D01*
X188489000Y-34003000D02*
X188489000Y-30440000D01*
X188689000Y-26760000D02*
X188689000Y-24710000D01*
X186289000Y-32045000D02*
X186289000Y-26755000D01*
X189970000Y-28360000D02*
X189970000Y-24365000D01*
X190330000Y-28360000D02*
X190330000Y-24330000D01*
X188249000Y-33883000D02*
X188249000Y-28840000D01*
X189609000Y-34374000D02*
X189609000Y-30440000D01*
X185849000Y-31142000D02*
X185849000Y-27658000D01*
X190130000Y-28360000D02*
X190130000Y-24346000D01*
X190650000Y-34480000D02*
X190650000Y-24320000D01*
X187729000Y-33566000D02*
X187729000Y-28840000D01*
X190050000Y-28360000D02*
X190050000Y-24355000D01*
X186089000Y-31689000D02*
X186089000Y-27111000D01*
X189369000Y-34318000D02*
X189369000Y-30440000D01*
X187569000Y-33450000D02*
X187569000Y-25350000D01*
X189849000Y-34418000D02*
X189849000Y-30440000D01*
X189489000Y-34347000D02*
X189489000Y-30440000D01*
X190210000Y-28360000D02*
X190210000Y-24338000D01*
X190290000Y-34468000D02*
X190290000Y-30440000D01*
X188889000Y-26760000D02*
X188889000Y-24632000D01*
X187809000Y-26760000D02*
X187809000Y-25179000D01*
X188609000Y-34057000D02*
X188609000Y-30440000D01*
X188209000Y-33862000D02*
X188209000Y-28840000D01*
X190090000Y-34450000D02*
X190090000Y-30440000D01*
X187409000Y-33325000D02*
X187409000Y-25475000D01*
X187329000Y-33258000D02*
X187329000Y-25542000D01*
X185769000Y-30910000D02*
X185769000Y-27890000D01*
X188209000Y-26760000D02*
X188209000Y-24938000D01*
X195629646Y-32775000D02*
X195629646Y-31775000D01*
X188249000Y-26760000D02*
X188249000Y-24917000D01*
X187729000Y-26760000D02*
X187729000Y-25234000D01*
X190490000Y-34478000D02*
X190490000Y-24322000D01*
X188329000Y-26760000D02*
X188329000Y-24875000D01*
X188609000Y-26760000D02*
X188609000Y-24743000D01*
X188449000Y-26760000D02*
X188449000Y-24816000D01*
X185929000Y-31344000D02*
X185929000Y-27456000D01*
X186209000Y-31910000D02*
X186209000Y-26890000D01*
X190410000Y-34475000D02*
X190410000Y-30440000D01*
X188569000Y-26760000D02*
X188569000Y-24761000D01*
X187649000Y-33510000D02*
X187649000Y-25290000D01*
X186769000Y-32701000D02*
X186769000Y-26099000D01*
X189089000Y-26760000D02*
X189089000Y-24563000D01*
X188809000Y-34138000D02*
X188809000Y-30440000D01*
X186689000Y-32606000D02*
X186689000Y-26194000D01*
X188289000Y-26760000D02*
X188289000Y-24896000D01*
X190170000Y-28360000D02*
X190170000Y-24342000D01*
X186049000Y-31609000D02*
X186049000Y-27191000D01*
X189729000Y-34397000D02*
X189729000Y-30440000D01*
X187769000Y-26760000D02*
X187769000Y-25206000D01*
X189209000Y-26760000D02*
X189209000Y-24526000D01*
X189609000Y-26760000D02*
X189609000Y-24426000D01*
X188849000Y-34154000D02*
X188849000Y-30440000D01*
X189929000Y-28360000D02*
X189929000Y-24370000D01*
X189769000Y-28360000D02*
X189769000Y-24396000D01*
X189249000Y-26760000D02*
X189249000Y-24515000D01*
X188729000Y-26760000D02*
X188729000Y-24693000D01*
X188489000Y-26760000D02*
X188489000Y-24797000D01*
X188969000Y-34197000D02*
X188969000Y-30440000D01*
X188929000Y-26760000D02*
X188929000Y-24617000D01*
X190130000Y-34454000D02*
X190130000Y-30440000D01*
X187369000Y-33292000D02*
X187369000Y-25508000D01*
X189449000Y-34338000D02*
X189449000Y-30440000D01*
X186489000Y-32345000D02*
X186489000Y-26455000D01*
X186849000Y-32792000D02*
X186849000Y-26008000D01*
X189889000Y-28360000D02*
X189889000Y-24376000D01*
X188769000Y-26760000D02*
X188769000Y-24677000D01*
X188129000Y-33817000D02*
X188129000Y-28840000D01*
X188529000Y-26760000D02*
X188529000Y-24779000D01*
X190010000Y-28360000D02*
X190010000Y-24360000D01*
X188849000Y-26760000D02*
X188849000Y-24646000D01*
X189809000Y-34411000D02*
X189809000Y-30440000D01*
X186329000Y-32109000D02*
X186329000Y-26691000D01*
X188169000Y-26760000D02*
X188169000Y-24960000D01*
X190250000Y-28360000D02*
X190250000Y-24335000D01*
X188809000Y-26760000D02*
X188809000Y-24662000D01*
X188369000Y-33945000D02*
X188369000Y-30440000D01*
X187889000Y-33673000D02*
X187889000Y-28840000D01*
X189089000Y-34237000D02*
X189089000Y-30440000D01*
X190450000Y-34477000D02*
X190450000Y-24323000D01*
X188929000Y-34183000D02*
X188929000Y-30440000D01*
X187929000Y-33698000D02*
X187929000Y-28840000D01*
X189529000Y-34356000D02*
X189529000Y-30440000D01*
X186809000Y-32747000D02*
X186809000Y-26053000D01*
X185809000Y-31030000D02*
X185809000Y-27770000D01*
X188089000Y-26760000D02*
X188089000Y-25005000D01*
X190530000Y-34479000D02*
X190530000Y-24321000D01*
X186369000Y-32170000D02*
X186369000Y-26630000D01*
X188649000Y-26760000D02*
X188649000Y-24726000D01*
X189409000Y-34328000D02*
X189409000Y-30440000D01*
X189249000Y-34285000D02*
X189249000Y-30440000D01*
X189929000Y-34430000D02*
X189929000Y-30440000D01*
X187929000Y-26760000D02*
X187929000Y-25102000D01*
X188649000Y-34074000D02*
X188649000Y-30440000D01*
X188369000Y-26760000D02*
X188369000Y-24855000D01*
X187609000Y-33480000D02*
X187609000Y-25320000D01*
X188409000Y-26760000D02*
X188409000Y-24836000D01*
X188089000Y-33795000D02*
X188089000Y-28840000D01*
X188049000Y-33771000D02*
X188049000Y-28840000D01*
X190370000Y-34473000D02*
X190370000Y-30440000D01*
X190090000Y-28360000D02*
X190090000Y-24350000D01*
X189049000Y-34224000D02*
X189049000Y-30440000D01*
X186449000Y-32289000D02*
X186449000Y-26511000D01*
X187809000Y-33621000D02*
X187809000Y-28840000D01*
X185969000Y-31437000D02*
X185969000Y-27363000D01*
X187529000Y-33420000D02*
X187529000Y-25380000D01*
X195770000Y-29400000D02*
G75*
G03*
X195770000Y-29400000I-5120000J0D01*
G01*
D11*
%TO.C,U7*%
X46423200Y-108792600D02*
X45923200Y-108292600D01*
X46423200Y-106992600D02*
X50023200Y-106992600D01*
X45923200Y-108292600D02*
X45923200Y-107492600D01*
X50523200Y-107492600D02*
X50523200Y-108292600D01*
X50023200Y-108792600D02*
X46423200Y-108792600D01*
X50023200Y-106992600D02*
X50523200Y-107492600D01*
X50523200Y-108292600D02*
X50023200Y-108792600D01*
X45923200Y-107492600D02*
X46423200Y-106992600D01*
D15*
%TO.C,U38*%
X174329000Y-33178000D02*
X174329000Y-26222000D01*
X175969000Y-34339000D02*
X175969000Y-30740000D01*
X173689000Y-32345000D02*
X173689000Y-27055000D01*
X177770000Y-34773000D02*
X177770000Y-30740000D01*
X176769000Y-27060000D02*
X176769000Y-24782000D01*
X174009000Y-32806000D02*
X174009000Y-26594000D01*
X177249000Y-34718000D02*
X177249000Y-30740000D01*
X177089000Y-34690000D02*
X177089000Y-30740000D01*
X176489000Y-34537000D02*
X176489000Y-30740000D01*
X173329000Y-31644000D02*
X173329000Y-27756000D01*
X177410000Y-34740000D02*
X177410000Y-30740000D01*
X174529000Y-33379000D02*
X174529000Y-26021000D01*
X176369000Y-27060000D02*
X176369000Y-24903000D01*
X175089000Y-33838000D02*
X175089000Y-29140000D01*
X177049000Y-34682000D02*
X177049000Y-30740000D01*
X176049000Y-34374000D02*
X176049000Y-30740000D01*
X177530000Y-34754000D02*
X177530000Y-30740000D01*
X173249000Y-31442000D02*
X173249000Y-27958000D01*
X176889000Y-27060000D02*
X176889000Y-24753000D01*
X176209000Y-27060000D02*
X176209000Y-24962000D01*
X174569000Y-33416000D02*
X174569000Y-25984000D01*
X176969000Y-34665000D02*
X176969000Y-30740000D01*
X174489000Y-33340000D02*
X174489000Y-26060000D01*
X177570000Y-34758000D02*
X177570000Y-30740000D01*
X176929000Y-27060000D02*
X176929000Y-24744000D01*
X175769000Y-34245000D02*
X175769000Y-30740000D01*
X173129000Y-31078000D02*
X173129000Y-28322000D01*
X174969000Y-33750000D02*
X174969000Y-25650000D01*
X176529000Y-27060000D02*
X176529000Y-24850000D01*
X174129000Y-32954000D02*
X174129000Y-26446000D01*
X175169000Y-33894000D02*
X175169000Y-29140000D01*
X176089000Y-34390000D02*
X176089000Y-30740000D01*
X174209000Y-33047000D02*
X174209000Y-26353000D01*
X174369000Y-33220000D02*
X174369000Y-26180000D01*
X175289000Y-33973000D02*
X175289000Y-29140000D01*
X176969000Y-27060000D02*
X176969000Y-24735000D01*
X174049000Y-32856000D02*
X174049000Y-26544000D01*
X175569000Y-27060000D02*
X175569000Y-25260000D01*
X173529000Y-32065000D02*
X173529000Y-27335000D01*
X176329000Y-34483000D02*
X176329000Y-30740000D01*
X175729000Y-34225000D02*
X175729000Y-29140000D01*
X177249000Y-28660000D02*
X177249000Y-24682000D01*
X177890000Y-34778000D02*
X177890000Y-24622000D01*
X176729000Y-27060000D02*
X176729000Y-24793000D01*
X175809000Y-34264000D02*
X175809000Y-30740000D01*
X176289000Y-27060000D02*
X176289000Y-24932000D01*
X176609000Y-34574000D02*
X176609000Y-30740000D01*
X175649000Y-34183000D02*
X175649000Y-29140000D01*
X173729000Y-32409000D02*
X173729000Y-26991000D01*
X177490000Y-28660000D02*
X177490000Y-24650000D01*
X175689000Y-34204000D02*
X175689000Y-29140000D01*
X176409000Y-34511000D02*
X176409000Y-30740000D01*
X173209000Y-31330000D02*
X173209000Y-28070000D01*
X175369000Y-27060000D02*
X175369000Y-25377000D01*
X177049000Y-27060000D02*
X177049000Y-24718000D01*
X177810000Y-34775000D02*
X177810000Y-30740000D01*
X175969000Y-27060000D02*
X175969000Y-25061000D01*
X175209000Y-33921000D02*
X175209000Y-29140000D01*
X175489000Y-27060000D02*
X175489000Y-25305000D01*
X174169000Y-33001000D02*
X174169000Y-26399000D01*
X172969000Y-30299000D02*
X172969000Y-29101000D01*
X176809000Y-27060000D02*
X176809000Y-24772000D01*
X177129000Y-34697000D02*
X177129000Y-30740000D01*
X176369000Y-34497000D02*
X176369000Y-30740000D01*
X175649000Y-27060000D02*
X175649000Y-25217000D01*
X176849000Y-27060000D02*
X176849000Y-24762000D01*
X177570000Y-28660000D02*
X177570000Y-24642000D01*
X177490000Y-34750000D02*
X177490000Y-30740000D01*
X175369000Y-34023000D02*
X175369000Y-29140000D01*
X177329000Y-28660000D02*
X177329000Y-24670000D01*
X175729000Y-27060000D02*
X175729000Y-25175000D01*
X175529000Y-27060000D02*
X175529000Y-25283000D01*
X177610000Y-34762000D02*
X177610000Y-30740000D01*
X175449000Y-34071000D02*
X175449000Y-29140000D01*
X177770000Y-28660000D02*
X177770000Y-24627000D01*
X175849000Y-34284000D02*
X175849000Y-30740000D01*
X173929000Y-32700000D02*
X173929000Y-26700000D01*
X178050000Y-34780000D02*
X178050000Y-24620000D01*
X175689000Y-27060000D02*
X175689000Y-25196000D01*
X175769000Y-27060000D02*
X175769000Y-25155000D01*
X176449000Y-34524000D02*
X176449000Y-30740000D01*
X177009000Y-34674000D02*
X177009000Y-30740000D01*
X177690000Y-34768000D02*
X177690000Y-30740000D01*
X173769000Y-32470000D02*
X173769000Y-26930000D01*
X177209000Y-34711000D02*
X177209000Y-30740000D01*
X176649000Y-34585000D02*
X176649000Y-30740000D01*
X173049000Y-30762000D02*
X173049000Y-28638000D01*
X176009000Y-34357000D02*
X176009000Y-30740000D01*
X176249000Y-34454000D02*
X176249000Y-30740000D01*
X177530000Y-28660000D02*
X177530000Y-24646000D01*
X176849000Y-34638000D02*
X176849000Y-30740000D01*
X175569000Y-34140000D02*
X175569000Y-29140000D01*
X175249000Y-27060000D02*
X175249000Y-25453000D01*
X176569000Y-34562000D02*
X176569000Y-30740000D01*
X175209000Y-27060000D02*
X175209000Y-25479000D01*
X173849000Y-32589000D02*
X173849000Y-26811000D01*
X176649000Y-27060000D02*
X176649000Y-24815000D01*
X174409000Y-33261000D02*
X174409000Y-26139000D01*
X177690000Y-28660000D02*
X177690000Y-24632000D01*
X176489000Y-27060000D02*
X176489000Y-24863000D01*
X173009000Y-30562000D02*
X173009000Y-28838000D01*
X175169000Y-27060000D02*
X175169000Y-25506000D01*
X176729000Y-34607000D02*
X176729000Y-30740000D01*
X175929000Y-34321000D02*
X175929000Y-30740000D01*
X176529000Y-34550000D02*
X176529000Y-30740000D01*
X173969000Y-32754000D02*
X173969000Y-26646000D01*
X183529646Y-32575000D02*
X182529646Y-32575000D01*
X176329000Y-27060000D02*
X176329000Y-24917000D01*
X174689000Y-33524000D02*
X174689000Y-25876000D01*
X175529000Y-34117000D02*
X175529000Y-29140000D01*
X176249000Y-27060000D02*
X176249000Y-24946000D01*
X177410000Y-28660000D02*
X177410000Y-24660000D01*
X174249000Y-33092000D02*
X174249000Y-26308000D01*
X176569000Y-27060000D02*
X176569000Y-24838000D01*
X178010000Y-34780000D02*
X178010000Y-24620000D01*
X177370000Y-28660000D02*
X177370000Y-24665000D01*
X175889000Y-27060000D02*
X175889000Y-25097000D01*
X175929000Y-27060000D02*
X175929000Y-25079000D01*
X173369000Y-31737000D02*
X173369000Y-27663000D01*
X173809000Y-32530000D02*
X173809000Y-26870000D01*
X177730000Y-28660000D02*
X177730000Y-24630000D01*
X175329000Y-33998000D02*
X175329000Y-29140000D01*
X177169000Y-28660000D02*
X177169000Y-24696000D01*
X174889000Y-33689000D02*
X174889000Y-25711000D01*
X175449000Y-27060000D02*
X175449000Y-25329000D01*
X173489000Y-31989000D02*
X173489000Y-27411000D01*
X173449000Y-31909000D02*
X173449000Y-27491000D01*
X177810000Y-28660000D02*
X177810000Y-24625000D01*
X177450000Y-34745000D02*
X177450000Y-30740000D01*
X177209000Y-28660000D02*
X177209000Y-24689000D01*
X174449000Y-33301000D02*
X174449000Y-26099000D01*
X175889000Y-34303000D02*
X175889000Y-30740000D01*
X176409000Y-27060000D02*
X176409000Y-24889000D01*
X176169000Y-27060000D02*
X176169000Y-24977000D01*
X177850000Y-34777000D02*
X177850000Y-24623000D01*
X175809000Y-27060000D02*
X175809000Y-25136000D01*
X176929000Y-34656000D02*
X176929000Y-30740000D01*
X173169000Y-31210000D02*
X173169000Y-28190000D01*
X175489000Y-34095000D02*
X175489000Y-29140000D01*
X176049000Y-27060000D02*
X176049000Y-25026000D01*
X174729000Y-33558000D02*
X174729000Y-25842000D01*
X176169000Y-34423000D02*
X176169000Y-30740000D01*
X174849000Y-33657000D02*
X174849000Y-25743000D01*
X176129000Y-27060000D02*
X176129000Y-24993000D01*
X175129000Y-33866000D02*
X175129000Y-29140000D01*
X175009000Y-33780000D02*
X175009000Y-25620000D01*
X175409000Y-27060000D02*
X175409000Y-25353000D01*
X177650000Y-28660000D02*
X177650000Y-24635000D01*
X175329000Y-27060000D02*
X175329000Y-25402000D01*
X175289000Y-27060000D02*
X175289000Y-25427000D01*
X173889000Y-32645000D02*
X173889000Y-26755000D01*
X174649000Y-33489000D02*
X174649000Y-25911000D01*
X173289000Y-31546000D02*
X173289000Y-27854000D01*
X175049000Y-33810000D02*
X175049000Y-25590000D01*
X173409000Y-31825000D02*
X173409000Y-27575000D01*
X175249000Y-33947000D02*
X175249000Y-29140000D01*
X173649000Y-32279000D02*
X173649000Y-27121000D01*
X176889000Y-34647000D02*
X176889000Y-30740000D01*
X177129000Y-27060000D02*
X177129000Y-24703000D01*
X173609000Y-32210000D02*
X173609000Y-27190000D01*
X176689000Y-27060000D02*
X176689000Y-24803000D01*
X177009000Y-27060000D02*
X177009000Y-24726000D01*
X177450000Y-28660000D02*
X177450000Y-24655000D01*
X176809000Y-34628000D02*
X176809000Y-30740000D01*
X177329000Y-34730000D02*
X177329000Y-30740000D01*
X176609000Y-27060000D02*
X176609000Y-24826000D01*
X176209000Y-34438000D02*
X176209000Y-30740000D01*
X177970000Y-34780000D02*
X177970000Y-24620000D01*
X177650000Y-34765000D02*
X177650000Y-30740000D01*
X177169000Y-34704000D02*
X177169000Y-30740000D01*
X174929000Y-33720000D02*
X174929000Y-25680000D01*
X175609000Y-27060000D02*
X175609000Y-25238000D01*
X176289000Y-34468000D02*
X176289000Y-30740000D01*
X175089000Y-27060000D02*
X175089000Y-25562000D01*
X177610000Y-28660000D02*
X177610000Y-24638000D01*
X175849000Y-27060000D02*
X175849000Y-25116000D01*
X177370000Y-34735000D02*
X177370000Y-30740000D01*
X183029646Y-33075000D02*
X183029646Y-32075000D01*
X175129000Y-27060000D02*
X175129000Y-25534000D01*
X175409000Y-34047000D02*
X175409000Y-29140000D01*
X173089000Y-30930000D02*
X173089000Y-28470000D01*
X174289000Y-33136000D02*
X174289000Y-26264000D01*
X177289000Y-28660000D02*
X177289000Y-24676000D01*
X177289000Y-34724000D02*
X177289000Y-30740000D01*
X173569000Y-32139000D02*
X173569000Y-27261000D01*
X177089000Y-27060000D02*
X177089000Y-24710000D01*
X176129000Y-34407000D02*
X176129000Y-30740000D01*
X174809000Y-33625000D02*
X174809000Y-25775000D01*
X175609000Y-34162000D02*
X175609000Y-29140000D01*
X176449000Y-27060000D02*
X176449000Y-24876000D01*
X176769000Y-34618000D02*
X176769000Y-30740000D01*
X176089000Y-27060000D02*
X176089000Y-25010000D01*
X174769000Y-33592000D02*
X174769000Y-25808000D01*
X176009000Y-27060000D02*
X176009000Y-25043000D01*
X176689000Y-34597000D02*
X176689000Y-30740000D01*
X177930000Y-34779000D02*
X177930000Y-24621000D01*
X177730000Y-34770000D02*
X177730000Y-30740000D01*
X174089000Y-32906000D02*
X174089000Y-26494000D01*
X174609000Y-33453000D02*
X174609000Y-25947000D01*
X183170000Y-29700000D02*
G75*
G03*
X183170000Y-29700000I-5120000J0D01*
G01*
%TO.C,U14*%
X152080000Y-90830000D02*
X159320000Y-90830000D01*
X159320000Y-90830000D02*
X159320000Y-94570000D01*
X152080000Y-94570000D02*
X159320000Y-94570000D01*
X152080000Y-90830000D02*
X152080000Y-94570000D01*
%TO.C,U16*%
X47096400Y-78299400D02*
X57336400Y-78299400D01*
X54067400Y-76789400D02*
X54067400Y-78299400D01*
X47096400Y-74249400D02*
X57336400Y-74249400D01*
X47096400Y-74249400D02*
X47096400Y-78890400D01*
X47096400Y-76789400D02*
X47096400Y-81430400D01*
X57336400Y-76789400D02*
X57336400Y-81430400D01*
X57336400Y-74249400D02*
X57336400Y-78890400D01*
X47096400Y-81430400D02*
X57336400Y-81430400D01*
X50366400Y-76789400D02*
X50366400Y-78299400D01*
X47096400Y-76789400D02*
X57336400Y-76789400D01*
X47096400Y-75759400D02*
X57336400Y-75759400D01*
D11*
%TO.C,U44*%
X235450000Y-33850000D02*
X235450000Y-24850000D01*
X245450000Y-24850000D02*
X245450000Y-33850000D01*
X245450000Y-25850000D02*
X235450000Y-25850000D01*
X235450000Y-24850000D02*
X245450000Y-24850000D01*
X245450000Y-33850000D02*
X235450000Y-33850000D01*
X243450000Y-32350000D02*
G75*
G03*
X243450000Y-32350000I-500000J0D01*
G01*
X238450000Y-32350000D02*
G75*
G03*
X238450000Y-32350000I-500000J0D01*
G01*
%TO.C,U43*%
X59406800Y-22703400D02*
X59406800Y-31703400D01*
X49406800Y-22703400D02*
X59406800Y-22703400D01*
X49406800Y-31703400D02*
X49406800Y-22703400D01*
X59406800Y-31703400D02*
X49406800Y-31703400D01*
X59406800Y-23703400D02*
X49406800Y-23703400D01*
X57406800Y-30203400D02*
G75*
G03*
X57406800Y-30203400I-500000J0D01*
G01*
X52406800Y-30203400D02*
G75*
G03*
X52406800Y-30203400I-500000J0D01*
G01*
%TO.C,U1-Mosfet1*%
X176100000Y-38612500D02*
X172100000Y-38612500D01*
X176100000Y-57112500D02*
X176100000Y-38612500D01*
X197350000Y-59612500D02*
X173850000Y-59612500D01*
X195100000Y-38612500D02*
X195100000Y-57112500D01*
X194600000Y-57612500D02*
X176600000Y-57612500D01*
X172100000Y-38612500D02*
X172100000Y-57862500D01*
X199100000Y-38612500D02*
X195100000Y-38612500D01*
X199100000Y-57862500D02*
X199100000Y-38612500D01*
X194600000Y-57612500D02*
G75*
G03*
X195100000Y-57112500I-1J500001D01*
G01*
X172100000Y-57862500D02*
G75*
G03*
X173850000Y-59612500I1750000J0D01*
G01*
X197350000Y-59612500D02*
G75*
G03*
X199100000Y-57862500I0J1750000D01*
G01*
X176100000Y-57112500D02*
G75*
G03*
X176600000Y-57612500I500000J0D01*
G01*
%TO.C,U4-Diode1*%
X197150000Y-83812500D02*
X173650000Y-83812500D01*
X175900000Y-81312500D02*
X175900000Y-62812500D01*
X171900000Y-62812500D02*
X171900000Y-82062500D01*
X194400000Y-81812500D02*
X176400000Y-81812500D01*
X198900000Y-62812500D02*
X194900000Y-62812500D01*
X194900000Y-62812500D02*
X194900000Y-81312500D01*
X198900000Y-82062500D02*
X198900000Y-62812500D01*
X175900000Y-62812500D02*
X171900000Y-62812500D01*
X197150000Y-83812500D02*
G75*
G03*
X198900000Y-82062500I0J1750000D01*
G01*
X171900000Y-82062500D02*
G75*
G03*
X173650000Y-83812500I1750000J0D01*
G01*
X194400000Y-81812500D02*
G75*
G03*
X194900000Y-81312500I-1J500001D01*
G01*
X175900000Y-81312500D02*
G75*
G03*
X176400000Y-81812500I500000J0D01*
G01*
%TO.C,U3-Diode1*%
X95295200Y-89981300D02*
X99295200Y-89981300D01*
X72295200Y-89981300D02*
X76295200Y-89981300D01*
X76295200Y-89981300D02*
X76295200Y-71481300D01*
X99295200Y-89981300D02*
X99295200Y-70731300D01*
X95295200Y-71481300D02*
X95295200Y-89981300D01*
X72295200Y-70731300D02*
X72295200Y-89981300D01*
X74045200Y-68981300D02*
X97545200Y-68981300D01*
X76795200Y-70981300D02*
X94795200Y-70981300D01*
X95295200Y-71481300D02*
G75*
G03*
X94795200Y-70981300I-500000J0D01*
G01*
X99295200Y-70731300D02*
G75*
G03*
X97545200Y-68981300I-1750000J0D01*
G01*
X74045200Y-68981300D02*
G75*
G03*
X72295200Y-70731300I0J-1750000D01*
G01*
X76795200Y-70981300D02*
G75*
G03*
X76295200Y-71481300I1J-500001D01*
G01*
D15*
%TO.C,U22*%
X60092800Y-100182800D02*
X60092800Y-95942800D01*
X58972800Y-95292800D02*
X58972800Y-95942800D01*
X60092800Y-96782800D02*
X57852800Y-96782800D01*
X58972800Y-100832800D02*
X58972800Y-100182800D01*
X60092800Y-95942800D02*
X57852800Y-95942800D01*
X60092800Y-96662800D02*
X57852800Y-96662800D01*
X60092800Y-96542800D02*
X57852800Y-96542800D01*
X57852800Y-95942800D02*
X57852800Y-100182800D01*
X57852800Y-100182800D02*
X60092800Y-100182800D01*
%TO.C,U37*%
X139570000Y-95770000D02*
X132330000Y-95770000D01*
X139570000Y-95770000D02*
X139570000Y-92030000D01*
X139570000Y-92030000D02*
X132330000Y-92030000D01*
X132330000Y-95770000D02*
X132330000Y-92030000D01*
D11*
%TO.C,U1*%
X156670000Y-118400000D02*
X156670000Y-119200000D01*
X156670000Y-119200000D02*
X156170000Y-119700000D01*
X156170000Y-119700000D02*
X152570000Y-119700000D01*
X156170000Y-117900000D02*
X156670000Y-118400000D01*
X152070000Y-119200000D02*
X152070000Y-118400000D01*
X152570000Y-117900000D02*
X156170000Y-117900000D01*
X152570000Y-119700000D02*
X152070000Y-119200000D01*
X152070000Y-118400000D02*
X152570000Y-117900000D01*
%TO.C,U42*%
X139850000Y-98600000D02*
X131350000Y-98600000D01*
X142100000Y-107600000D02*
X129100000Y-107600000D01*
X129100000Y-107600000D02*
X129100000Y-119600000D01*
X129100000Y-119600000D02*
X142100000Y-119600000D01*
X131350000Y-98600000D02*
X131350000Y-107600000D01*
X142100000Y-119600000D02*
X142100000Y-107600000D01*
X139850000Y-107600000D02*
X139850000Y-98600000D01*
D15*
%TO.C,U23*%
X54280000Y-60934000D02*
X54280000Y-56293000D01*
X54280000Y-59424000D02*
X44040000Y-59424000D01*
X44040000Y-63220000D02*
X44040000Y-58579000D01*
X54280000Y-56293000D02*
X44040000Y-56293000D01*
X47309000Y-60934000D02*
X47309000Y-59424000D01*
X54280000Y-60934000D02*
X44040000Y-60934000D01*
X54280000Y-61710000D02*
X44040000Y-61710000D01*
X54280000Y-63220000D02*
X54280000Y-58579000D01*
X51010000Y-60934000D02*
X51010000Y-59424000D01*
X44040000Y-60934000D02*
X44040000Y-56293000D01*
X54280000Y-63220000D02*
X44040000Y-63220000D01*
%TO.C,U6*%
X38850000Y-36200000D02*
X38850000Y-49600000D01*
X40850000Y-51600000D02*
X54250000Y-51700000D01*
X54250000Y-36200000D02*
X38850000Y-36200000D01*
X38850000Y-49600000D02*
X40850000Y-51600000D01*
X54250000Y-51700000D02*
X54250000Y-36200000D01*
X48500000Y-43850000D02*
G75*
G03*
X48500000Y-43850000I-1900000J0D01*
G01*
%TO.C,U27*%
X84370000Y-101470000D02*
X84370000Y-98730000D01*
X77060000Y-100100000D02*
X77830000Y-100100000D01*
X77830000Y-101470000D02*
X84370000Y-101470000D01*
X84370000Y-98730000D02*
X77830000Y-98730000D01*
X85140000Y-100100000D02*
X84370000Y-100100000D01*
X77830000Y-98730000D02*
X77830000Y-101470000D01*
%TO.C,U17*%
X84340000Y-62770000D02*
X84340000Y-58129000D01*
X94580000Y-62770000D02*
X84340000Y-62770000D01*
X84340000Y-60484000D02*
X84340000Y-55843000D01*
X94580000Y-61260000D02*
X84340000Y-61260000D01*
X94580000Y-62770000D02*
X94580000Y-58129000D01*
X94580000Y-60484000D02*
X84340000Y-60484000D01*
X94580000Y-60484000D02*
X94580000Y-55843000D01*
X94580000Y-55843000D02*
X84340000Y-55843000D01*
X91310000Y-60484000D02*
X91310000Y-58974000D01*
X87609000Y-60484000D02*
X87609000Y-58974000D01*
X94580000Y-58974000D02*
X84340000Y-58974000D01*
%TO.C,U20*%
X91530000Y-73530000D02*
X91530000Y-78171000D01*
X91530000Y-76070000D02*
X91530000Y-80711000D01*
X81290000Y-73530000D02*
X81290000Y-78171000D01*
X81290000Y-77580000D02*
X91530000Y-77580000D01*
X81290000Y-80711000D02*
X91530000Y-80711000D01*
X81290000Y-73530000D02*
X91530000Y-73530000D01*
X81290000Y-76070000D02*
X81290000Y-80711000D01*
X88261000Y-76070000D02*
X88261000Y-77580000D01*
X81290000Y-75040000D02*
X91530000Y-75040000D01*
X84560000Y-76070000D02*
X84560000Y-77580000D01*
X81290000Y-76070000D02*
X91530000Y-76070000D01*
D11*
%TO.C,U9*%
X94480000Y-26300000D02*
X90880000Y-26300000D01*
X90380000Y-25800000D02*
X90380000Y-25000000D01*
X94980000Y-25800000D02*
X94480000Y-26300000D01*
X90880000Y-24500000D02*
X94480000Y-24500000D01*
X94480000Y-24500000D02*
X94980000Y-25000000D01*
X90880000Y-26300000D02*
X90380000Y-25800000D01*
X90380000Y-25000000D02*
X90880000Y-24500000D01*
X94980000Y-25000000D02*
X94980000Y-25800000D01*
%TO.C,U2-Mosfet1*%
X43902200Y-71233800D02*
X61902200Y-71233800D01*
X39402200Y-90233800D02*
X43402200Y-90233800D01*
X43402200Y-90233800D02*
X43402200Y-71733800D01*
X62402200Y-90233800D02*
X66402200Y-90233800D01*
X39402200Y-70983800D02*
X39402200Y-90233800D01*
X41152200Y-69233800D02*
X64652200Y-69233800D01*
X66402200Y-90233800D02*
X66402200Y-70983800D01*
X62402200Y-71733800D02*
X62402200Y-90233800D01*
X66402200Y-70983800D02*
G75*
G03*
X64652200Y-69233800I-1750000J0D01*
G01*
X41152200Y-69233800D02*
G75*
G03*
X39402200Y-70983800I0J-1750000D01*
G01*
X62402200Y-71733800D02*
G75*
G03*
X61902200Y-71233800I-500000J0D01*
G01*
X43902200Y-71233800D02*
G75*
G03*
X43402200Y-71733800I1J-500001D01*
G01*
D15*
%TO.C,U18*%
X95230800Y-96199000D02*
X102470800Y-96199000D01*
X95230800Y-92459000D02*
X102470800Y-92459000D01*
X102470800Y-92459000D02*
X102470800Y-96199000D01*
X95230800Y-92459000D02*
X95230800Y-96199000D01*
%TO.C,U19*%
X64380000Y-100470000D02*
X71620000Y-100470000D01*
X64380000Y-96730000D02*
X71620000Y-96730000D01*
X64380000Y-96730000D02*
X64380000Y-100470000D01*
X71620000Y-96730000D02*
X71620000Y-100470000D01*
%TD*%
M02*
